<?xml version="1.0" encoding="UTF-8" standalone="no"?>
<!-- Created with Inkscape (http://www.inkscape.org/) -->

<svg
   width="500mm"
   height="500mm"
   viewBox="0 0 500 500"
   version="1.1"
   id="svg5"
   sodipodi:docname="blueprint.svg"
   inkscape:version="1.2.2 (b0a84865, 2022-12-01)"
   xmlns:inkscape="http://www.inkscape.org/namespaces/inkscape"
   xmlns:sodipodi="http://sodipodi.sourceforge.net/DTD/sodipodi-0.dtd"
   xmlns="http://www.w3.org/2000/svg"
   xmlns:svg="http://www.w3.org/2000/svg">
  <sodipodi:namedview
     id="namedview7"
     pagecolor="#ffffff"
     bordercolor="#000000"
     borderopacity="0.25"
     inkscape:showpageshadow="2"
     inkscape:pageopacity="0.0"
     inkscape:pagecheckerboard="0"
     inkscape:deskcolor="#d1d1d1"
     inkscape:document-units="mm"
     showgrid="true"
     inkscape:zoom="4.4195761"
     inkscape:cx="912.98349"
     inkscape:cy="107.36324"
     inkscape:window-width="1920"
     inkscape:window-height="1027"
     inkscape:window-x="0"
     inkscape:window-y="394"
     inkscape:window-maximized="1"
     inkscape:current-layer="layer1">
    <inkscape:grid
       type="xygrid"
       id="grid315"
       units="mm"
       spacingx="2"
       spacingy="2" />
  </sodipodi:namedview>
  <defs
     id="defs2" />
  <g
     inkscape:label="Layer 1"
     inkscape:groupmode="layer"
     id="layer1">
    <circle
       style="fill:none;stroke:#000783;stroke-width:0.1;stroke-opacity:1;stroke-dasharray:none"
       id="path390"
       cx="250"
       cy="250"
       r="250" />
    <path
       inkscape:label="Gear 8"
       style="fill:none;stroke:#000783;stroke-width:0.1;stroke-opacity:1;stroke-dasharray:none"
       d="m 256.06572,22.256588 1.32105,0.244305 c 0.0757,0.02107 0.29709,0.09668 0.62945,0.334146 0.39127,0.285107 0.902,0.781851 1.38155,1.626314 a 10,10 0 0 1 -0.41273,0.996417 c -0.93622,0.258032 -1.64862,0.248136 -2.12688,0.173074 -0.40292,-0.0671 -0.61296,-0.170162 -0.68136,-0.208822 l -1.10687,-0.761372 a 0.75,0.75 0 0 0 -0.98454,0.116849 5.5,5.5 0 0 1 -0.48207,0.482064 0.75,0.75 0 0 0 -0.11685,0.984539 l 0.76138,1.106885 c 0.0387,0.0684 0.14171,0.278431 0.20882,0.681353 0.0751,0.478271 0.0849,1.19067 -0.17307,2.126891 a 10,10 0 0 1 -0.99643,0.412727 c -0.84445,-0.479548 -1.3412,-0.990289 -1.62631,-1.38156 -0.23746,-0.332356 -0.3131,-0.553747 -0.33414,-0.629442 l -0.24431,-1.32106 a 0.75,0.75 0 0 0 -0.7788,-0.61355 5.5,5.5 0 0 1 -0.68174,-2e-6 0.75,0.75 0 0 0 -0.7788,0.613552 l -0.2443,1.321062 c -0.0206,0.07587 -0.0967,0.297098 -0.33412,0.629452 -0.2851,0.39127 -0.78185,0.902011 -1.62631,1.381561 a 10,10 0 0 1 -0.99642,-0.412728 c -0.25803,-0.936221 -0.24814,-1.648621 -0.17307,-2.126891 0.0671,-0.402921 0.17013,-0.612972 0.20884,-0.681343 l 0.76138,-1.106882 a 0.75,0.75 0 0 0 -0.11691,-0.984567 5.5,5.5 0 0 1 -0.48206,-0.482061 0.75,0.75 0 0 0 -0.98454,-0.116851 l -1.10689,0.761378 c -0.0684,0.03865 -0.27842,0.141713 -0.68134,0.208816 -0.47828,0.07507 -1.19068,0.08496 -2.1269,-0.173073 a 10,10 0 0 1 -0.41273,-0.996415 c 0.47955,-0.844465 0.99029,-1.34121 1.38156,-1.626318 0.33235,-0.237461 0.55375,-0.3131 0.62945,-0.334137 l 1.32106,-0.244309 a 0.75,0.75 0 0 0 0.61355,-0.7788 5.5,5.5 0 0 1 0,-0.681742 0.75,0.75 0 0 0 -0.61355,-0.778799 l -1.32107,-0.244312 c -0.0757,-0.02107 -0.29708,-0.09668 -0.62944,-0.33413 -0.39126,-0.285107 -0.902,-0.781855 -1.38156,-1.626317 a 10,10 0 0 1 0.41273,-0.996418 c 0.93622,-0.258031 1.64863,-0.248136 2.12689,-0.173069 0.40293,0.0671 0.61296,0.170159 0.68135,0.208805 l 1.10689,0.76138 a 0.75,0.75 0 0 0 0.98454,-0.116849 5.5,5.5 0 0 1 0.48206,-0.482064 0.75,0.75 0 0 0 0.11686,-0.984539 l -0.76138,-1.106885 c -0.0387,-0.0684 -0.14172,-0.278435 -0.20882,-0.681353 -0.0751,-0.478271 -0.085,-1.190674 0.17307,-2.126891 a 10,10 0 0 1 0.99641,-0.412735 c 0.84446,0.479552 1.34121,0.990293 1.62632,1.381564 0.23746,0.332355 0.3131,0.553747 0.33413,0.629438 l 0.24431,1.32106 a 0.75,0.75 0 0 0 0.77881,0.613554 5.5,5.5 0 0 1 0.68173,-2e-6 0.75,0.75 0 0 0 0.77881,-0.613548 l 0.2443,-1.321062 c 0.0206,-0.07587 0.0967,-0.297098 0.33412,-0.629452 0.2851,-0.39127 0.78185,-0.902011 1.62631,-1.381561 a 10,10 0 0 1 0.99642,0.412728 c 0.25803,0.936221 0.24814,1.648621 0.17307,2.126891 -0.0671,0.402921 -0.17013,0.612972 -0.20884,0.681343 l -0.76138,1.106882 a 0.75,0.75 0 0 0 0.11685,0.98454 5.5,5.5 0 0 1 0.48206,0.482065 0.75,0.75 0 0 0 0.98454,0.116847 l 1.10688,-0.761377 c 0.0684,-0.03865 0.27844,-0.14171 0.68136,-0.208812 0.47827,-0.07507 1.19067,-0.08496 2.12689,0.173068 a 10,10 0 0 1 0.41273,0.996419 c -0.47955,0.844461 -0.99029,1.34121 -1.38156,1.626318 -0.33236,0.237457 -0.55375,0.3131 -0.62944,0.334137 l -1.32106,0.244309 a 0.75,0.75 0 0 0 -0.61355,0.7788 5.5,5.5 0 0 1 0,0.681742 0.75,0.75 0 0 0 0.61355,0.778799 z"
       id="path3717" />
    <path
       inkscape:label="Gear 240"
       style="fill:none;stroke:#000783;stroke-width:0.1;stroke-opacity:1;stroke-dasharray:none"
       d="m 489.46351,247.68475 c -0.8152,0.32635 -1.60356,0.62757 -2.36399,0.90555 -0.26818,0.0981 -0.5329,0.19316 -0.79409,0.28548 a 236.30799,236.30868 0 0 1 0,2.24971 c 0.26119,0.0923 0.52591,0.18745 0.79409,0.28547 0.76043,0.27797 1.54879,0.57922 2.36399,0.90555 a 0.74217328,0.7421755 0 0 1 0.48696,0.70581 239.96936,239.97008 0 0 1 -0.003,0.23885 0.74217328,0.7421755 0 0 1 -0.50526,0.69281 c -0.82347,0.30489 -1.61943,0.58539 -2.38688,0.84335 -0.27067,0.0909 -0.53778,0.17915 -0.8013,0.26462 a 236.30799,236.30868 0 0 1 -0.0589,2.2489 c 0.25869,0.0992 0.52082,0.20117 0.78636,0.30619 0.7529,0.29777 1.53309,0.61955 2.33948,0.96711 a 0.74217328,0.7421755 0 0 1 0.46831,0.71833 239.96936,239.97008 0 0 1 -0.009,0.23867 0.74217328,0.7421755 0 0 1 -0.52323,0.67935 c -0.83118,0.28323 -1.63421,0.54281 -2.40815,0.78059 -0.27295,0.0838 -0.54228,0.16501 -0.80795,0.24353 a 236.30799,236.30868 0 0 1 -0.11775,2.24661 c 0.25602,0.10587 0.51539,0.21473 0.77808,0.32666 0.74485,0.31738 1.51635,0.65947 2.31336,1.02802 a 0.74217328,0.7421755 0 0 1 0.44935,0.73034 239.96936,239.97008 0 0 1 -0.0156,0.23834 0.74217328,0.7421755 0 0 1 -0.54083,0.66543 c -0.83831,0.26138 -1.64785,0.49983 -2.42775,0.71728 -0.27506,0.0767 -0.54642,0.15077 -0.81406,0.2223 a 236.30799,236.30868 0 0 1 -0.17652,2.24276 c 0.25315,0.11253 0.50959,0.22815 0.76927,0.34692 0.73628,0.33676 1.49855,0.69893 2.28564,1.08822 a 0.74217328,0.7421755 0 0 1 0.43009,0.74185 239.96936,239.97008 0 0 1 -0.0219,0.23785 0.74217328,0.7421755 0 0 1 -0.55806,0.65106 c -0.84485,0.23933 -1.66037,0.45652 -2.44571,0.65347 -0.27696,0.0694 -0.55016,0.13641 -0.81958,0.20092 a 236.30799,236.30868 0 0 1 -0.23516,2.23737 c 0.25011,0.11912 0.50343,0.2414 0.7599,0.36692 0.72723,0.35594 1.47977,0.73795 2.2564,1.1477 a 0.74217328,0.7421755 0 0 1 0.41051,0.75285 239.96936,239.97008 0 0 1 -0.0281,0.2372 0.74217328,0.7421755 0 0 1 -0.5749,0.6362 c -0.85084,0.21716 -1.67178,0.41291 -2.46198,0.58924 -0.27869,0.0622 -0.55355,0.12197 -0.82457,0.17941 a 236.30799,236.30868 0 0 1 -0.29364,2.23043 c 0.2469,0.12563 0.49693,0.25451 0.75004,0.38671 0.71764,0.37484 1.45994,0.7764 2.22557,1.20636 a 0.74217328,0.7421755 0 0 1 0.39066,0.76333 239.96936,239.97008 0 0 1 -0.0342,0.23638 0.74217328,0.7421755 0 0 1 -0.59137,0.62094 c -0.85624,0.1948 -1.68199,0.36902 -2.47656,0.5246 -0.28021,0.0549 -0.55655,0.10742 -0.82897,0.15774 a 236.30799,236.30868 0 0 1 -0.35192,2.222 c 0.24354,0.13204 0.49009,0.26742 0.73965,0.4062 0.70759,0.39351 1.4391,0.81436 2.19324,1.26421 a 0.74217328,0.7421755 0 0 1 0.37054,0.7733 239.96936,239.97008 0 0 1 -0.0405,0.2354 0.74217328,0.7421755 0 0 1 -0.60744,0.60525 c -0.86102,0.17231 -1.69106,0.32485 -2.4894,0.45958 -0.28158,0.0474 -0.55919,0.0928 -0.83283,0.13599 a 236.30799,236.30868 0 0 1 -0.40997,2.21202 c 0.23999,0.13839 0.48293,0.28016 0.72877,0.42543 0.69702,0.41189 1.41728,0.85175 2.15936,1.32119 a 0.74217328,0.7421755 0 0 1 0.35018,0.78273 239.96936,239.97008 0 0 1 -0.0467,0.23426 0.74217328,0.7421755 0 0 1 -0.62305,0.58915 c -0.86524,0.14972 -1.69899,0.28046 -2.50059,0.39424 -0.28271,0.0401 -0.56143,0.0782 -0.83611,0.11416 a 236.30799,236.30868 0 0 1 -0.46773,2.20055 c 0.23629,0.1446 0.47544,0.2927 0.71739,0.44434 0.68602,0.43 1.39452,0.88856 2.12403,1.37727 a 0.74217328,0.7421755 0 0 1 0.32957,0.79163 239.96936,239.97008 0 0 1 -0.0528,0.23296 0.74217328,0.7421755 0 0 1 -0.63825,0.57263 c -0.86886,0.12703 -1.70576,0.23591 -2.51007,0.32866 -0.28366,0.0328 -0.56328,0.0634 -0.8388,0.0922 a 236.30799,236.30868 0 0 1 -0.52518,2.18754 c 0.23242,0.15074 0.46761,0.30506 0.70552,0.46299 0.67452,0.4478 1.37077,0.92474 2.08726,1.43238 a 0.74217328,0.7421755 0 0 1 0.30874,0.79999 239.96936,239.97008 0 0 1 -0.0588,0.2315 0.74217328,0.7421755 0 0 1 -0.65303,0.55572 c -0.87189,0.10424 -1.71133,0.19118 -2.5178,0.26286 -0.28442,0.0254 -0.56475,0.0486 -0.84094,0.0702 a 236.30799,236.30868 0 0 1 -0.58226,2.17303 c 0.22841,0.15678 0.45948,0.31719 0.69316,0.48129 0.66257,0.46532 1.34609,0.96032 2.04906,1.48655 a 0.74217328,0.7421755 0 0 1 0.28768,0.80778 239.96936,239.97008 0 0 1 -0.0648,0.22989 0.74217328,0.7421755 0 0 1 -0.66737,0.53843 c -0.87431,0.0813 -1.71574,0.14632 -2.52382,0.19685 -0.28499,0.0178 -0.56583,0.0339 -0.84248,0.0482 a 236.30799,236.30868 0 0 1 -0.63894,2.15705 c 0.22422,0.1627 0.45101,0.32911 0.68031,0.49928 0.65016,0.48249 1.3205,0.99522 2.00944,1.53966 a 0.74217328,0.7421755 0 0 1 0.26645,0.81504 239.96936,239.97008 0 0 1 -0.0709,0.22811 0.74217328,0.7421755 0 0 1 -0.68122,0.5208 c -0.87616,0.0585 -1.719,0.10134 -2.52812,0.13071 -0.28536,0.0104 -0.56651,0.019 -0.84345,0.0262 a 236.30799,236.30868 0 0 1 -0.69519,2.13959 c 0.21988,0.16852 0.44224,0.34079 0.66701,0.51691 0.63732,0.49934 1.294,1.02946 1.96846,1.59174 a 0.74217328,0.7421755 0 0 1 0.24502,0.82175 239.96936,239.97008 0 0 1 -0.0768,0.22617 0.74217328,0.7421755 0 0 1 -0.69463,0.50279 c -0.87739,0.0356 -1.72106,0.0563 -2.53067,0.0644 -0.28553,0.003 -0.56681,0.004 -0.84385,0.004 a 236.30799,236.30868 0 0 1 -0.75096,2.12065 c 0.2154,0.17423 0.43317,0.35227 0.65325,0.5342 0.62403,0.51585 1.26661,1.06298 1.92612,1.64272 a 0.74217328,0.7421755 0 0 1 0.22342,0.82787 239.96936,239.97008 0 0 1 -0.0827,0.2241 0.74217328,0.7421755 0 0 1 -0.70755,0.48441 c -0.878,0.0126 -1.72195,0.0113 -2.53147,-0.002 -0.28552,-0.005 -0.56673,-0.0106 -0.84367,-0.018 a 236.30799,236.30868 0 0 1 -0.80622,2.10027 c 0.21077,0.1798 0.42381,0.36349 0.63904,0.55111 0.61031,0.53203 1.23834,1.09577 1.88246,1.69259 a 0.74217328,0.7421755 0 0 1 0.20167,0.83343 239.96936,239.97008 0 0 1 -0.0885,0.22185 0.74217328,0.7421755 0 0 1 -0.71998,0.46574 c -0.87805,-0.0105 -1.72166,-0.0339 -2.53057,-0.068 -0.2853,-0.0121 -0.56626,-0.0255 -0.84291,-0.0401 a 236.30799,236.30868 0 0 1 -0.86093,2.07843 c 0.20598,0.18525 0.41414,0.37445 0.6244,0.56766 0.5962,0.54781 1.20925,1.1278 1.83752,1.74127 a 0.74217328,0.7421755 0 0 1 0.17978,0.83843 239.96936,239.97008 0 0 1 -0.0943,0.21946 0.74217328,0.7421755 0 0 1 -0.73194,0.44673 c -0.87746,-0.0335 -1.72019,-0.0789 -2.52794,-0.13427 -0.28487,-0.0195 -0.56539,-0.0403 -0.84156,-0.0621 a 236.30799,236.30868 0 0 1 -0.91503,2.0552 c 0.20106,0.19058 0.4042,0.38516 0.60932,0.58379 0.58164,0.56324 1.17931,1.15908 1.7913,1.78878 a 0.74217328,0.7421755 0 0 1 0.15777,0.84285 239.96936,239.97008 0 0 1 -0.1,0.21692 0.74217328,0.7421755 0 0 1 -0.74337,0.42741 c -0.87629,-0.0564 -1.71753,-0.1239 -2.52355,-0.20039 -0.28428,-0.027 -0.56415,-0.0551 -0.83966,-0.0842 a 236.30799,236.30868 0 0 1 -0.96851,2.03056 c 0.19601,0.19576 0.39398,0.3956 0.59383,0.59954 0.56669,0.57826 1.14856,1.18955 1.74387,1.83506 a 0.74217328,0.7421755 0 0 1 0.13565,0.84669 239.96936,239.97008 0 0 1 -0.10565,0.21423 0.74217328,0.7421755 0 0 1 -0.7543,0.4078 c -0.87452,-0.0794 -1.7137,-0.16882 -2.51745,-0.26638 -0.28345,-0.0345 -0.56251,-0.0698 -0.83714,-0.10615 a 236.30799,236.30868 0 0 1 -1.02134,2.00451 c 0.19081,0.20082 0.38348,0.40578 0.57792,0.61488 0.55136,0.5929 1.11703,1.21921 1.69523,1.88008 a 0.74217328,0.7421755 0 0 1 0.11345,0.84995 239.96936,239.97008 0 0 1 -0.11121,0.21137 0.74217328,0.7421755 0 0 1 -0.76472,0.38794 c -0.87214,-0.10219 -1.7087,-0.21362 -2.50961,-0.33219 -0.28247,-0.0419 -0.56051,-0.0845 -0.8341,-0.12802 a 236.30799,236.30868 0 0 1 -1.07344,1.97707 c 0.18549,0.20576 0.37273,0.41568 0.56165,0.6298 0.53563,0.60713 1.08471,1.24804 1.64542,1.92381 a 0.74217328,0.7421755 0 0 1 0.0912,0.85264 239.96936,239.97008 0 0 1 -0.11671,0.20839 0.74217328,0.7421755 0 0 1 -0.77462,0.36778 c -0.86914,-0.12499 -1.70249,-0.25828 -2.50003,-0.39777 -0.28128,-0.0492 -0.55809,-0.0992 -0.83045,-0.14982 a 236.30799,236.30868 0 0 1 -1.12485,1.9483 c 0.18005,0.21055 0.36172,0.42529 0.54497,0.6443 0.51957,0.62093 1.05167,1.27598 1.5945,1.96621 a 0.74217328,0.7421755 0 0 1 0.0688,0.85473 239.96936,239.97008 0 0 1 -0.12213,0.20528 0.74217328,0.7421755 0 0 1 -0.78397,0.34736 c -0.86559,-0.14769 -1.69517,-0.30276 -2.48879,-0.46308 -0.27988,-0.0565 -0.5553,-0.11374 -0.82624,-0.17149 a 236.30799,236.30868 0 0 1 -1.17547,1.91818 c 0.17447,0.21518 0.35048,0.43462 0.52793,0.65832 0.50313,0.63434 1.01791,1.3031 1.54248,2.0073 a 0.74217328,0.7421755 0 0 1 0.0464,0.85623 239.96936,239.97008 0 0 1 -0.12745,0.20201 0.74217328,0.7421755 0 0 1 -0.79281,0.32673 c -0.86143,-0.17029 -1.68667,-0.34703 -2.47582,-0.52807 -0.27832,-0.0638 -0.55212,-0.12823 -0.82146,-0.19308 a 236.30799,236.30868 0 0 1 -1.22527,1.88677 c 0.16878,0.21969 0.33897,0.44365 0.5105,0.67193 0.48635,0.64729 0.98346,1.32929 1.48941,2.04698 a 0.74217328,0.7421755 0 0 1 0.0239,0.85716 239.96936,239.97008 0 0 1 -0.1327,0.19859 0.74217328,0.7421755 0 0 1 -0.80108,0.30588 c -0.85668,-0.1928 -1.67701,-0.39106 -2.46115,-0.5927 -0.27654,-0.0711 -0.54858,-0.14266 -0.81613,-0.21451 a 236.30799,236.30868 0 0 1 -1.27423,1.85403 c 0.16297,0.22404 0.32724,0.45237 0.49274,0.68507 0.46923,0.65979 0.94832,1.35457 1.43531,2.08526 a 0.74217328,0.7421755 0 0 1 0.002,0.85748 239.96936,239.97008 0 0 1 -0.13785,0.19508 0.74217328,0.7421755 0 0 1 -0.80881,0.28478 c -0.85132,-0.21515 -1.66618,-0.43483 -2.44477,-0.65692 -0.27457,-0.0784 -0.54467,-0.15695 -0.81024,-0.23579 a 236.30799,236.30868 0 0 1 -1.32233,1.82004 c 0.15704,0.22821 0.31528,0.46078 0.47463,0.69771 0.45181,0.67186 0.91255,1.37895 1.38024,2.12213 a 0.74217328,0.7421755 0 0 1 -0.0208,0.85724 239.96936,239.97008 0 0 1 -0.14292,0.19139 0.74217328,0.7421755 0 0 1 -0.816,0.26351 c -0.8454,-0.23735 -1.65423,-0.47829 -2.42674,-0.72069 -0.27244,-0.0855 -0.54036,-0.17116 -0.80378,-0.25692 a 236.30799,236.30868 0 0 1 -1.36954,1.7848 c 0.15102,0.23225 0.30313,0.46888 0.45621,0.70991 0.43408,0.68345 0.87614,1.40236 1.32422,2.15753 a 0.74217328,0.7421755 0 0 1 -0.0433,0.8564 239.96936,239.97008 0 0 1 -0.14788,0.18758 0.74217328,0.7421755 0 0 1 -0.82261,0.24205 c -0.83891,-0.2594 -1.64114,-0.52143 -2.40704,-0.78395 -0.27011,-0.0926 -0.53571,-0.18526 -0.79679,-0.27789 a 236.30799,236.30868 0 0 1 -1.41579,1.74834 c 0.14489,0.23613 0.29073,0.47665 0.43748,0.72161 0.41603,0.69458 0.83912,1.42482 1.26729,2.19146 a 0.74217328,0.7421755 0 0 1 -0.0657,0.85497 239.96936,239.97008 0 0 1 -0.15275,0.18363 0.74217328,0.7421755 0 0 1 -0.82867,0.22045 c -0.83183,-0.28128 -1.62692,-0.56421 -2.38569,-0.8467 -0.2676,-0.0996 -0.53068,-0.1992 -0.78924,-0.29864 a 236.30799,236.30868 0 0 1 -1.46106,1.71069 c 0.13865,0.23983 0.27817,0.48408 0.41843,0.73281 0.39771,0.70522 0.80153,1.44629 1.20948,2.22389 a 0.74217328,0.7421755 0 0 1 -0.0881,0.85294 239.96936,239.97008 0 0 1 -0.15749,0.17959 0.74217328,0.7421755 0 0 1 -0.83416,0.19867 c -0.82417,-0.30296 -1.6116,-0.6066 -2.3627,-0.90886 -0.2649,-0.1066 -0.52529,-0.21303 -0.78116,-0.3192 a 236.30799,236.30868 0 0 1 -1.50534,1.67185 c 0.13233,0.24337 0.26539,0.49122 0.3991,0.74351 0.37911,0.7154 0.76341,1.46678 1.15086,2.25478 a 0.74217328,0.7421755 0 0 1 -0.11041,0.85036 239.96936,239.97008 0 0 1 -0.16213,0.17538 0.74217328,0.7421755 0 0 1 -0.83907,0.17679 c -0.81597,-0.32444 -1.59517,-0.64859 -2.33811,-0.97041 -0.26201,-0.1135 -0.51953,-0.2267 -0.77253,-0.33953 a 236.30799,236.30868 0 0 1 -1.54859,1.63186 c 0.12592,0.24677 0.25245,0.49801 0.37951,0.75372 0.36025,0.72507 0.72475,1.48625 1.09143,2.28412 a 0.74217328,0.7421755 0 0 1 -0.13262,0.84719 239.96936,239.97008 0 0 1 -0.16667,0.17108 0.74217328,0.7421755 0 0 1 -0.8434,0.15476 c -0.80721,-0.34568 -1.57765,-0.69013 -2.31191,-1.03129 -0.25895,-0.12032 -0.51341,-0.24023 -0.76337,-0.35964 a 236.30799,236.30868 0 0 1 -1.59077,1.59078 c 0.1194,0.24997 0.23932,0.50442 0.35963,0.76338 0.34116,0.73426 0.6856,1.50472 1.03128,2.31192 a 0.74217328,0.7421755 0 0 1 -0.15475,0.8434 239.96936,239.97008 0 0 1 -0.17109,0.16668 0.74217328,0.7421755 0 0 1 -0.84718,0.13262 c -0.79788,-0.36668 -1.55906,-0.73118 -2.28412,-1.09145 -0.25573,-0.12704 -0.50695,-0.25358 -0.75373,-0.37949 a 236.30799,236.30868 0 0 1 -1.63185,1.54858 c 0.11282,0.25302 0.22603,0.51052 0.33953,0.77254 0.32182,0.74294 0.64598,1.52214 0.9704,2.33812 a 0.74217328,0.7421755 0 0 1 -0.17676,0.83907 239.96936,239.97008 0 0 1 -0.17541,0.16214 0.74217328,0.7421755 0 0 1 -0.85035,0.1104 c -0.788,-0.38745 -1.53937,-0.77175 -2.25477,-1.15086 -0.2523,-0.13372 -0.50014,-0.26678 -0.74352,-0.39911 a 236.30799,236.30868 0 0 1 -1.67183,1.50534 c 0.10616,0.25588 0.21259,0.51627 0.31918,0.78117 0.30227,0.75109 0.60591,1.53853 0.90887,2.36272 a 0.74217328,0.7421755 0 0 1 -0.19868,0.83415 239.96936,239.97008 0 0 1 -0.17957,0.15748 0.74217328,0.7421755 0 0 1 -0.85297,0.088 c -0.77758,-0.40795 -1.51862,-0.81179 -2.22384,-1.20949 -0.24873,-0.14027 -0.49299,-0.27979 -0.73283,-0.41844 a 236.30799,236.30868 0 0 1 -1.71067,1.46106 c 0.0994,0.25858 0.19901,0.52165 0.29864,0.78926 0.2825,0.75875 0.56542,1.55387 0.84671,2.38571 a 0.74217328,0.7421755 0 0 1 -0.22046,0.82867 239.96936,239.97008 0 0 1 -0.18364,0.15273 0.74217328,0.7421755 0 0 1 -0.85496,0.0656 c -0.76664,-0.42816 -1.49687,-0.85125 -2.19145,-1.2673 -0.24496,-0.14673 -0.48549,-0.29257 -0.72161,-0.43747 a 236.30799,236.30868 0 0 1 -1.74834,1.4158 c 0.0927,0.26108 0.18527,0.52667 0.27787,0.79678 0.26254,0.7659 0.52455,1.56814 0.78398,2.40705 a 0.74217328,0.7421755 0 0 1 -0.24207,0.82261 239.96936,239.97008 0 0 1 -0.18759,0.14788 0.74217328,0.7421755 0 0 1 -0.85638,0.0434 c -0.75518,-0.44808 -1.47408,-0.89014 -2.15753,-1.32422 -0.24103,-0.1531 -0.47765,-0.30519 -0.70991,-0.45621 a 236.30799,236.30868 0 0 1 -1.78478,1.36952 c 0.0858,0.26343 0.17143,0.53136 0.25691,0.80381 0.2424,0.77251 0.48332,1.58133 0.72069,2.42675 a 0.74217328,0.7421755 0 0 1 -0.26353,0.81598 239.96936,239.97008 0 0 1 -0.19138,0.14292 0.74217328,0.7421755 0 0 1 -0.85722,0.0209 c -0.74318,-0.46771 -1.45027,-0.92844 -2.12212,-1.38026 -0.23694,-0.15935 -0.46951,-0.31759 -0.69772,-0.47463 a 236.30799,236.30868 0 0 1 -1.82004,1.32234 c 0.0789,0.26557 0.15747,0.53564 0.2358,0.81025 0.2221,0.77857 0.44176,1.59344 0.65691,2.44477 a 0.74217328,0.7421755 0 0 1 -0.2848,0.80882 239.96936,239.97008 0 0 1 -0.19503,0.13786 0.74217328,0.7421755 0 0 1 -0.85749,-0.002 c -0.73069,-0.48699 -1.42548,-0.96606 -2.08526,-1.43532 -0.2327,-0.1655 -0.46105,-0.32976 -0.68507,-0.49273 a 236.30799,236.30868 0 0 1 -1.85403,1.27423 c 0.0719,0.26755 0.14339,0.5396 0.21451,0.81615 0.20163,0.78412 0.39989,1.60445 0.59269,2.46113 a 0.74217328,0.7421755 0 0 1 -0.30586,0.80109 239.96936,239.97008 0 0 1 -0.1986,0.1327 0.74217328,0.7421755 0 0 1 -0.85715,-0.024 c -0.71768,-0.50595 -1.39971,-1.00306 -2.04697,-1.48942 -0.2283,-0.17153 -0.45226,-0.34172 -0.67193,-0.51049 a 236.30799,236.30868 0 0 1 -1.88675,1.22526 c 0.0648,0.26934 0.1292,0.54316 0.19305,0.82148 0.18105,0.78914 0.35777,1.61437 0.52808,2.47581 a 0.74217328,0.7421755 0 0 1 -0.32673,0.7928 239.96936,239.97008 0 0 1 -0.20201,0.12745 0.74217328,0.7421755 0 0 1 -0.85623,-0.0463 c -0.70419,-0.52457 -1.37296,-1.03935 -2.00728,-1.54249 -0.22372,-0.17744 -0.44314,-0.35346 -0.65833,-0.52791 a 236.30799,236.30868 0 0 1 -1.91818,1.17545 c 0.0578,0.27095 0.11495,0.54637 0.17149,0.82625 0.16033,0.79362 0.31539,1.6232 0.46308,2.48879 a 0.74217328,0.7421755 0 0 1 -0.34737,0.78398 239.96936,239.97008 0 0 1 -0.20527,0.12212 0.74217328,0.7421755 0 0 1 -0.85471,-0.0687 c -0.69023,-0.54283 -1.3453,-1.07494 -1.96623,-1.59451 -0.21899,-0.18325 -0.43374,-0.36493 -0.64429,-0.54498 a 236.30799,236.30868 0 0 1 -1.94827,1.12487 c 0.0508,0.27235 0.1006,0.54917 0.1498,0.83044 0.13949,0.79754 0.27279,1.63089 0.39776,2.50006 a 0.74217328,0.7421755 0 0 1 -0.36777,0.7746 239.96936,239.97008 0 0 1 -0.20839,0.11674 0.74217328,0.7421755 0 0 1 -0.85262,-0.0911 c -0.67578,-0.56069 -1.31669,-1.10977 -1.92381,-1.64542 -0.21412,-0.18892 -0.42405,-0.37615 -0.62981,-0.56165 a 236.30799,236.30868 0 0 1 -1.97707,1.07346 c 0.0435,0.2736 0.0862,0.55162 0.12802,0.8341 0.11857,0.80091 0.23,1.63747 0.33219,2.50961 a 0.74217328,0.7421755 0 0 1 -0.38792,0.76473 239.96936,239.97008 0 0 1 -0.21138,0.11122 0.74217328,0.7421755 0 0 1 -0.84996,-0.11346 c -0.66087,-0.57819 -1.28717,-1.14386 -1.88008,-1.69522 -0.2091,-0.19446 -0.41404,-0.38713 -0.61487,-0.57795 a 236.30799,236.30868 0 0 1 -2.00449,1.02135 c 0.0362,0.27465 0.0718,0.55369 0.10613,0.83717 0.0975,0.80373 0.18706,1.64293 0.26638,2.51743 a 0.74217328,0.7421755 0 0 1 -0.4078,0.75431 239.96936,239.97008 0 0 1 -0.21422,0.10565 0.74217328,0.7421755 0 0 1 -0.8467,-0.13566 c -0.64549,-0.59531 -1.25679,-1.17717 -1.83504,-1.74386 -0.20395,-0.19986 -0.40377,-0.39783 -0.59954,-0.59385 a 236.30799,236.30868 0 0 1 -2.03053,0.96853 c 0.0291,0.27549 0.0572,0.55538 0.0842,0.83965 0.0765,0.80601 0.144,1.64725 0.2004,2.52356 a 0.74217328,0.7421755 0 0 1 -0.42741,0.74337 239.96936,239.97008 0 0 1 -0.21691,0.1 0.74217328,0.7421755 0 0 1 -0.84286,-0.15777 c -0.62969,-0.612 -1.22554,-1.20967 -1.78878,-1.7913 -0.19863,-0.20513 -0.39321,-0.40827 -0.58379,-0.60934 a 236.30799,236.30868 0 0 1 -2.0552,0.91504 c 0.0218,0.27616 0.0426,0.55669 0.0622,0.84156 0.0553,0.80776 0.10083,1.65048 0.13426,2.52794 a 0.74217328,0.7421755 0 0 1 -0.44673,0.73194 239.96936,239.97008 0 0 1 -0.21944,0.0943 0.74217328,0.7421755 0 0 1 -0.83844,-0.17979 c -0.61346,-0.62826 -1.19346,-1.24132 -1.74126,-1.8375 -0.19319,-0.21026 -0.38239,-0.41842 -0.56765,-0.6244 a 236.30799,236.30868 0 0 1 -2.07843,0.86092 c 0.0146,0.27664 0.0281,0.55762 0.0401,0.8429 0.0342,0.80892 0.0576,1.65255 0.0681,2.53059 a 0.74217328,0.7421755 0 0 1 -0.46572,0.71999 239.96936,239.97008 0 0 1 -0.22186,0.0884 0.74217328,0.7421755 0 0 1 -0.83343,-0.20166 c -0.59682,-0.64411 -1.16057,-1.27215 -1.69258,-1.88248 -0.18764,-0.21523 -0.37132,-0.42828 -0.55111,-0.63904 a 236.30799,236.30868 0 0 1 -2.10027,0.80623 c 0.007,0.27693 0.0134,0.55816 0.018,0.84367 0.0129,0.80954 0.0143,1.65349 0.002,2.53149 a 0.74217328,0.7421755 0 0 1 -0.48443,0.70755 239.96936,239.97008 0 0 1 -0.22409,0.0826 0.74217328,0.7421755 0 0 1 -0.82787,-0.22342 c -0.57974,-0.65952 -1.12686,-1.30209 -1.64272,-1.92611 -0.18194,-0.22008 -0.35996,-0.43787 -0.53419,-0.65325 a 236.30799,236.30868 0 0 1 -2.12065,0.75096 c 1.6e-4,0.27702 -9.9e-4,0.55831 -0.004,0.84385 -0.008,0.80959 -0.029,1.65329 -0.0646,2.53066 a 0.74217328,0.7421755 0 0 1 -0.50276,0.69464 239.96936,239.97008 0 0 1 -0.22619,0.0768 0.74217328,0.7421755 0 0 1 -0.82173,-0.24502 c -0.56229,-0.67445 -1.09239,-1.33114 -1.59174,-1.96845 -0.17612,-0.22478 -0.34839,-0.44713 -0.51692,-0.66701 a 236.30799,236.30868 0 0 1 -2.13958,0.69518 c -0.007,0.27694 -0.0157,0.55811 -0.0261,0.84346 -0.0294,0.80911 -0.0723,1.65198 -0.13071,2.52813 a 0.74217328,0.7421755 0 0 1 -0.52079,0.68123 239.96936,239.97008 0 0 1 -0.22811,0.0708 0.74217328,0.7421755 0 0 1 -0.81503,-0.26645 c -0.54444,-0.68895 -1.05719,-1.35928 -1.53968,-2.00945 -0.17016,-0.2293 -0.33656,-0.4561 -0.49925,-0.68031 a 236.30799,236.30868 0 0 1 -2.15705,0.63894 c -0.0143,0.27666 -0.0304,0.55749 -0.0483,0.84249 -0.0506,0.80806 -0.11547,1.6495 -0.19684,2.52383 a 0.74217328,0.7421755 0 0 1 -0.53844,0.66736 239.96936,239.97008 0 0 1 -0.22989,0.0647 0.74217328,0.7421755 0 0 1 -0.80778,-0.28768 c -0.52622,-0.70297 -1.02123,-1.38649 -1.48654,-2.04907 -0.16411,-0.23368 -0.32452,-0.46476 -0.48128,-0.69316 a 236.30799,236.30868 0 0 1 -2.17305,0.58227 c -0.0216,0.27619 -0.045,0.55651 -0.0703,0.84093 -0.0717,0.80647 -0.15862,1.64592 -0.26285,2.51782 a 0.74217328,0.7421755 0 0 1 -0.55571,0.65304 239.96936,239.97008 0 0 1 -0.23152,0.0588 0.74217328,0.7421755 0 0 1 -0.79998,-0.30873 c -0.50762,-0.71651 -0.98459,-1.41275 -1.43238,-2.08729 -0.15794,-0.23788 -0.31224,-0.47309 -0.46298,-0.70551 a 236.30799,236.30868 0 0 1 -2.18753,0.52518 c -0.0288,0.27553 -0.0595,0.55515 -0.0923,0.83881 -0.0928,0.80432 -0.20164,1.6412 -0.32865,2.51008 a 0.74217328,0.7421755 0 0 1 -0.57262,0.63826 239.96936,239.97008 0 0 1 -0.23296,0.0527 0.74217328,0.7421755 0 0 1 -0.79165,-0.32956 c -0.48868,-0.72956 -0.94726,-1.43804 -1.37725,-2.12407 -0.15165,-0.24195 -0.29973,-0.4811 -0.44434,-0.71739 a 236.30799,236.30868 0 0 1 -2.20053,0.46773 c -0.036,0.27468 -0.074,0.55339 -0.11415,0.8361 -0.11379,0.80161 -0.24455,1.63538 -0.39426,2.50061 a 0.74217328,0.7421755 0 0 1 -0.58914,0.62307 239.96936,239.97008 0 0 1 -0.23427,0.0466 0.74217328,0.7421755 0 0 1 -0.78273,-0.35017 c -0.46943,-0.74209 -0.90929,-1.46234 -1.32117,-2.1594 -0.14527,-0.24583 -0.28706,-0.48878 -0.42542,-0.72877 a 236.30799,236.30868 0 0 1 -2.21203,0.40997 c -0.0432,0.27365 -0.0885,0.55127 -0.13601,0.83283 -0.13473,0.79835 -0.28726,1.6284 -0.45957,2.48943 a 0.74217328,0.7421755 0 0 1 -0.60526,0.60743 239.96936,239.97008 0 0 1 -0.23539,0.0405 0.74217328,0.7421755 0 0 1 -0.77329,-0.37055 c -0.44985,-0.75412 -0.87071,-1.48565 -1.2642,-2.19322 -0.13878,-0.24958 -0.27416,-0.49614 -0.40619,-0.73968 a 236.30799,236.30868 0 0 1 -2.22201,0.35192 c -0.0503,0.27244 -0.10286,0.54877 -0.15774,0.82901 -0.15559,0.79453 -0.32979,1.62032 -0.52459,2.47653 a 0.74217328,0.7421755 0 0 1 -0.62094,0.59138 239.96936,239.97008 0 0 1 -0.23639,0.0343 0.74217328,0.7421755 0 0 1 -0.76333,-0.39068 c -0.42994,-0.76564 -0.83151,-1.50794 -1.20636,-2.22557 -0.1322,-0.25311 -0.26106,-0.50315 -0.38669,-0.75005 a 236.30799,236.30868 0 0 1 -2.23045,0.29365 c -0.0574,0.27102 -0.1172,0.54588 -0.17939,0.82456 -0.17633,0.79021 -0.37209,1.61115 -0.58922,2.46199 a 0.74217328,0.7421755 0 0 1 -0.63623,0.57492 239.96936,239.97008 0 0 1 -0.23719,0.0281 0.74217328,0.7421755 0 0 1 -0.75283,-0.41052 c -0.40977,-0.77664 -0.79176,-1.52918 -1.14771,-2.25639 -0.12552,-0.25648 -0.24781,-0.50981 -0.36692,-0.75992 a 236.30799,236.30868 0 0 1 -2.23737,0.23517 c -0.0646,0.26941 -0.13145,0.54262 -0.20091,0.81958 -0.19696,0.78533 -0.41414,1.60085 -0.65348,2.44571 a 0.74217328,0.7421755 0 0 1 -0.65104,0.55806 239.96936,239.97008 0 0 1 -0.23786,0.0219 0.74217328,0.7421755 0 0 1 -0.74184,-0.43008 c -0.38929,-0.78709 -0.75146,-1.54939 -1.08822,-2.28567 -0.11879,-0.25967 -0.23439,-0.51611 -0.34692,-0.76924 a 236.30799,236.30868 0 0 1 -2.24276,0.1765 c -0.0716,0.26763 -0.1456,0.539 -0.22231,0.81404 -0.21743,0.7799 -0.45589,1.58947 -0.71727,2.42777 a 0.74217328,0.7421755 0 0 1 -0.66542,0.54084 239.96936,239.97008 0 0 1 -0.23834,0.0156 0.74217328,0.7421755 0 0 1 -0.73031,-0.44933 c -0.36857,-0.79702 -0.71065,-1.56853 -1.02802,-2.31339 -0.11194,-0.26269 -0.2208,-0.52206 -0.32667,-0.77806 a 236.30799,236.30868 0 0 1 -2.2466,0.11773 c -0.0785,0.26567 -0.15968,0.53501 -0.24354,0.80795 -0.23779,0.77396 -0.49736,1.57701 -0.78059,2.40817 a 0.74217328,0.7421755 0 0 1 -0.67935,0.52322 239.96936,239.97008 0 0 1 -0.23866,0.009 0.74217328,0.7421755 0 0 1 -0.71834,-0.46831 c -0.34756,-0.80639 -0.66933,-1.58657 -0.96711,-2.33949 -0.10501,-0.26553 -0.20705,-0.52765 -0.30617,-0.78634 a 236.30799,236.30868 0 0 1 -2.24893,0.0589 c -0.0855,0.26352 -0.17362,0.53064 -0.2646,0.80131 -0.25796,0.76745 -0.53846,1.56342 -0.84335,2.38688 a 0.74217328,0.7421755 0 0 1 -0.69282,0.50526 239.96936,239.97008 0 0 1 -0.23883,0.003 0.74217328,0.7421755 0 0 1 -0.70581,-0.48695 c -0.32635,-0.81521 -0.62757,-1.60357 -0.90553,-2.36401 -0.098,-0.26819 -0.19317,-0.53291 -0.28549,-0.7941 a 236.30799,236.30868 0 0 1 -2.24969,0 c -0.0924,0.26119 -0.18746,0.52591 -0.28549,0.7941 -0.27796,0.76044 -0.57921,1.5488 -0.90554,2.36401 a 0.74217328,0.7421755 0 0 1 -0.70581,0.48695 239.96936,239.97008 0 0 1 -0.23884,-0.003 0.74217328,0.7421755 0 0 1 -0.69281,-0.50526 c -0.30489,-0.82346 -0.5854,-1.61943 -0.84335,-2.38688 -0.091,-0.27067 -0.17916,-0.53779 -0.26461,-0.80131 a 236.30799,236.30868 0 0 1 -2.24891,-0.0589 c -0.0991,0.25869 -0.20117,0.52081 -0.30619,0.78634 -0.29778,0.75292 -0.61954,1.5331 -0.96712,2.33949 a 0.74217328,0.7421755 0 0 1 -0.71831,0.46831 239.96936,239.97008 0 0 1 -0.23868,-0.009 0.74217328,0.7421755 0 0 1 -0.67935,-0.52322 c -0.28323,-0.83116 -0.54279,-1.63421 -0.78059,-2.40817 -0.0838,-0.27294 -0.165,-0.54228 -0.24352,-0.80795 a 236.30799,236.30868 0 0 1 -2.24661,-0.11773 c -0.10586,0.256 -0.21472,0.51537 -0.32665,0.77806 -0.31739,0.74486 -0.65947,1.51637 -1.02803,2.31339 a 0.74217328,0.7421755 0 0 1 -0.73031,0.44933 239.96936,239.97008 0 0 1 -0.23836,-0.0156 0.74217328,0.7421755 0 0 1 -0.66542,-0.54084 c -0.26138,-0.8383 -0.49984,-1.64787 -0.71728,-2.42777 -0.0767,-0.27504 -0.15076,-0.54641 -0.22231,-0.81404 a 236.30799,236.30868 0 0 1 -2.24275,-0.1765 c -0.11253,0.25313 -0.22814,0.50957 -0.34691,0.76924 -0.33678,0.73628 -0.69893,1.49858 -1.08823,2.28567 a 0.74217328,0.7421755 0 0 1 -0.74184,0.43008 239.96936,239.97008 0 0 1 -0.23786,-0.0219 0.74217328,0.7421755 0 0 1 -0.65103,-0.55806 c -0.23935,-0.84486 -0.45653,-1.66038 -0.65347,-2.44571 -0.0695,-0.27696 -0.13642,-0.55017 -0.20093,-0.81958 a 236.30799,236.30868 0 0 1 -2.23736,-0.23517 c -0.11911,0.25011 -0.24141,0.50344 -0.36693,0.75992 -0.35593,0.72721 -0.73793,1.47975 -1.14769,2.25639 a 0.74217328,0.7421755 0 0 1 -0.75285,0.41052 239.96936,239.97008 0 0 1 -0.2372,-0.0281 0.74217328,0.7421755 0 0 1 -0.63621,-0.57492 c -0.21713,-0.85084 -0.4129,-1.67178 -0.58923,-2.46199 -0.0622,-0.27868 -0.12195,-0.55354 -0.17939,-0.82456 a 236.30799,236.30868 0 0 1 -2.23045,-0.29365 c -0.12562,0.2469 -0.2545,0.49694 -0.38669,0.75005 -0.37485,0.71763 -0.7764,1.45993 -1.20635,2.22557 a 0.74217328,0.7421755 0 0 1 -0.76334,0.39068 239.96936,239.97008 0 0 1 -0.23639,-0.0343 0.74217328,0.7421755 0 0 1 -0.62093,-0.59138 c -0.1948,-0.85621 -0.36901,-1.682 -0.5246,-2.47653 -0.0549,-0.28024 -0.10742,-0.55657 -0.15775,-0.82901 a 236.30799,236.30868 0 0 1 -2.22197,-0.35192 c -0.13205,0.24354 -0.26742,0.4901 -0.4062,0.73968 -0.3935,0.70757 -0.81436,1.4391 -1.26421,2.19322 a 0.74217328,0.7421755 0 0 1 -0.77329,0.37055 239.96936,239.97008 0 0 1 -0.23541,-0.0405 0.74217328,0.7421755 0 0 1 -0.60525,-0.60743 c -0.17231,-0.86103 -0.32485,-1.69108 -0.45958,-2.48943 -0.0476,-0.28156 -0.0929,-0.55918 -0.13599,-0.83283 a 236.30799,236.30868 0 0 1 -2.21203,-0.40997 c -0.13837,0.23999 -0.28016,0.48294 -0.42541,0.72877 -0.41189,0.69706 -0.85175,1.41731 -1.32119,2.1594 a 0.74217328,0.7421755 0 0 1 -0.78273,0.35017 239.96936,239.97008 0 0 1 -0.23426,-0.0466 0.74217328,0.7421755 0 0 1 -0.58914,-0.62307 c -0.14972,-0.86523 -0.28047,-1.699 -0.39426,-2.50061 -0.0401,-0.28271 -0.0782,-0.56142 -0.11416,-0.8361 A 236.30799,236.30868 0 0 1 199.77,480.90808 c -0.1446,0.23629 -0.2927,0.47544 -0.44435,0.71739 -0.42999,0.68603 -0.88856,1.39451 -1.37726,2.12407 a 0.74217328,0.7421755 0 0 1 -0.79161,0.32956 239.96936,239.97008 0 0 1 -0.23298,-0.0527 0.74217328,0.7421755 0 0 1 -0.57262,-0.63826 c -0.12702,-0.86888 -0.2359,-1.70576 -0.32867,-2.51008 -0.0327,-0.28366 -0.0635,-0.56328 -0.0923,-0.83881 a 236.30799,236.30868 0 0 1 -2.18754,-0.52518 c -0.15073,0.23242 -0.30504,0.46763 -0.46296,0.70551 -0.44782,0.67454 -0.92476,1.37078 -1.4324,2.08729 a 0.74217328,0.7421755 0 0 1 -0.79998,0.30873 239.96936,239.97008 0 0 1 -0.2315,-0.0588 0.74217328,0.7421755 0 0 1 -0.55573,-0.65304 c -0.10423,-0.8719 -0.19116,-1.71135 -0.26284,-2.51782 -0.0253,-0.28442 -0.0488,-0.56474 -0.0703,-0.84093 a 236.30799,236.30868 0 0 1 -2.17304,-0.58227 c -0.15678,0.2284 -0.31719,0.45948 -0.48128,0.69316 -0.4653,0.66258 -0.96032,1.3461 -1.48652,2.04907 a 0.74217328,0.7421755 0 0 1 -0.8078,0.28768 239.96936,239.97008 0 0 1 -0.22989,-0.0647 0.74217328,0.7421755 0 0 1 -0.53843,-0.66736 c -0.0813,-0.87433 -0.14631,-1.71577 -0.19685,-2.52383 -0.0178,-0.285 -0.0338,-0.56583 -0.0483,-0.84249 a 236.30799,236.30868 0 0 1 -2.15706,-0.63894 c -0.1627,0.22421 -0.3291,0.45101 -0.49926,0.68031 -0.4825,0.65017 -0.99523,1.3205 -1.53967,2.00945 a 0.74217328,0.7421755 0 0 1 -0.81504,0.26645 239.96936,239.97008 0 0 1 -0.22812,-0.0708 0.74217328,0.7421755 0 0 1 -0.52077,-0.68123 c -0.0585,-0.87615 -0.10134,-1.71902 -0.13071,-2.52813 -0.0104,-0.28535 -0.019,-0.56652 -0.0261,-0.84346 a 236.30799,236.30868 0 0 1 -2.13959,-0.69518 c -0.16851,0.21988 -0.34079,0.44223 -0.5169,0.66701 -0.49934,0.63731 -1.02944,1.294 -1.59172,1.96845 a 0.74217328,0.7421755 0 0 1 -0.82174,0.24502 239.96936,239.97008 0 0 1 -0.22618,-0.0768 0.74217328,0.7421755 0 0 1 -0.50278,-0.69464 c -0.0355,-0.87737 -0.0563,-1.72107 -0.0646,-2.53066 -0.003,-0.28554 -0.004,-0.56683 -0.004,-0.84385 a 236.30799,236.30868 0 0 1 -2.12066,-0.75096 c -0.17423,0.21538 -0.35227,0.43317 -0.5342,0.65325 -0.51586,0.62402 -1.06297,1.26659 -1.64272,1.92611 a 0.74217328,0.7421755 0 0 1 -0.82787,0.22342 239.96936,239.97008 0 0 1 -0.22409,-0.0826 0.74217328,0.7421755 0 0 1 -0.48443,-0.70755 c -0.0125,-0.878 -0.0113,-1.72195 0.002,-2.53149 0.005,-0.28551 0.0107,-0.56674 0.018,-0.84367 a 236.30799,236.30868 0 0 1 -2.10028,-0.80623 c -0.17979,0.21076 -0.36348,0.42381 -0.55111,0.63904 -0.532,0.61033 -1.09575,1.23837 -1.69256,1.88248 a 0.74217328,0.7421755 0 0 1 -0.83343,0.20166 239.96936,239.97008 0 0 1 -0.22185,-0.0884 0.74217328,0.7421755 0 0 1 -0.46573,-0.71999 c 0.0105,-0.87804 0.0338,-1.72167 0.0681,-2.53059 0.012,-0.28528 0.0254,-0.56626 0.0401,-0.8429 a 236.30799,236.30868 0 0 1 -2.07844,-0.86092 c -0.18525,0.20598 -0.37444,0.41414 -0.56764,0.6244 -0.54782,0.59618 -1.12781,1.20924 -1.74127,1.8375 a 0.74217328,0.7421755 0 0 1 -0.83844,0.17979 239.96936,239.97008 0 0 1 -0.21945,-0.0943 0.74217328,0.7421755 0 0 1 -0.44673,-0.73194 c 0.0334,-0.87746 0.0788,-1.72018 0.13426,-2.52794 0.0195,-0.28487 0.0402,-0.5654 0.0622,-0.84156 a 236.30799,236.30868 0 0 1 -2.0552,-0.91504 c -0.19058,0.20107 -0.38515,0.40421 -0.5838,0.60934 -0.56323,0.58163 -1.15907,1.1793 -1.78878,1.7913 a 0.74217328,0.7421755 0 0 1 -0.84284,0.15777 239.96936,239.97008 0 0 1 -0.21692,-0.1 0.74217328,0.7421755 0 0 1 -0.42741,-0.74337 c 0.0564,-0.87631 0.1239,-1.71755 0.20039,-2.52356 0.027,-0.28427 0.0551,-0.56416 0.0842,-0.83965 a 236.30799,236.30868 0 0 1 -2.03054,-0.96853 c -0.19576,0.19602 -0.39559,0.39399 -0.59953,0.59385 -0.57827,0.56669 -1.18956,1.14855 -1.83506,1.74386 a 0.74217328,0.7421755 0 0 1 -0.8467,0.13566 239.96936,239.97008 0 0 1 -0.21421,-0.10565 0.74217328,0.7421755 0 0 1 -0.40781,-0.75431 c 0.0793,-0.8745 0.16881,-1.7137 0.26638,-2.51743 0.0344,-0.28348 0.0699,-0.56252 0.10615,-0.83717 a 236.30799,236.30868 0 0 1 -2.00449,-1.02135 c -0.20084,0.19082 -0.40578,0.38349 -0.61489,0.57795 -0.5929,0.55136 -1.2192,1.11703 -1.88008,1.69522 a 0.74217328,0.7421755 0 0 1 -0.84995,0.11346 239.96936,239.97008 0 0 1 -0.21138,-0.11122 0.74217328,0.7421755 0 0 1 -0.38792,-0.76473 c 0.10219,-0.87214 0.21361,-1.7087 0.33219,-2.50961 0.0418,-0.28248 0.0845,-0.5605 0.12802,-0.8341 a 236.30799,236.30868 0 0 1 -1.97707,-1.07346 c -0.20577,0.1855 -0.41569,0.37273 -0.6298,0.56165 -0.60713,0.53565 -1.24802,1.08473 -1.9238,1.64542 a 0.74217328,0.7421755 0 0 1 -0.85263,0.0911 239.96936,239.97008 0 0 1 -0.20841,-0.11674 0.74217328,0.7421755 0 0 1 -0.36777,-0.7746 c 0.12498,-0.86917 0.25827,-1.70252 0.39778,-2.50006 0.0493,-0.28127 0.0991,-0.55809 0.14981,-0.83044 a 236.30799,236.30868 0 0 1 -1.94829,-1.12487 c -0.21056,0.18005 -0.4253,0.36173 -0.64429,0.54498 -0.62094,0.51957 -1.276,1.05168 -1.96623,1.59451 a 0.74217328,0.7421755 0 0 1 -0.85472,0.0687 239.96936,239.97008 0 0 1 -0.20527,-0.12212 0.74217328,0.7421755 0 0 1 -0.34737,-0.78398 c 0.14769,-0.86559 0.30276,-1.69517 0.46308,-2.48879 0.0565,-0.27988 0.11374,-0.5553 0.17149,-0.82625 a 236.30799,236.30868 0 0 1 -1.91817,-1.17545 c -0.21519,0.17445 -0.43463,0.35047 -0.65834,0.52791 -0.63432,0.50314 -1.30308,1.01792 -2.00727,1.54249 a 0.74217328,0.7421755 0 0 1 -0.85623,0.0463 239.96936,239.97008 0 0 1 -0.20201,-0.12745 0.74217328,0.7421755 0 0 1 -0.32673,-0.7928 c 0.17031,-0.86144 0.34704,-1.68667 0.52807,-2.47581 0.0639,-0.27832 0.12825,-0.55214 0.19307,-0.82148 a 236.30799,236.30868 0 0 1 -1.88675,-1.22526 c -0.21969,0.16877 -0.44365,0.33896 -0.67192,0.51049 -0.64729,0.48636 -1.3293,0.98347 -2.04699,1.48942 a 0.74217328,0.7421755 0 0 1 -0.85715,0.024 239.96936,239.97008 0 0 1 -0.1986,-0.1327 0.74217328,0.7421755 0 0 1 -0.30586,-0.80109 c 0.19279,-0.85668 0.39105,-1.67701 0.59268,-2.46113 0.0712,-0.27655 0.14266,-0.5486 0.21452,-0.81615 a 236.30799,236.30868 0 0 1 -1.85403,-1.27423 c -0.22403,0.16297 -0.45237,0.32723 -0.68507,0.49273 -0.65978,0.46926 -1.35457,0.94833 -2.08525,1.43532 a 0.74217328,0.7421755 0 0 1 -0.8575,0.002 239.96936,239.97008 0 0 1 -0.19505,-0.13786 0.74217328,0.7421755 0 0 1 -0.28479,-0.80882 c 0.21515,-0.85133 0.43482,-1.6662 0.65692,-2.44477 0.0784,-0.27461 0.15695,-0.54468 0.23579,-0.81025 a 236.30799,236.30868 0 0 1 -1.82004,-1.32234 c -0.2282,0.15704 -0.46076,0.31528 -0.6977,0.47463 -0.67186,0.45182 -1.37895,0.91255 -2.12214,1.38026 a 0.74217328,0.7421755 0 0 1 -0.85722,-0.0209 239.96936,239.97008 0 0 1 -0.1914,-0.14292 0.74217328,0.7421755 0 0 1 -0.26352,-0.81598 c 0.23737,-0.84542 0.47829,-1.65424 0.72069,-2.42675 0.0855,-0.27245 0.17116,-0.54038 0.25693,-0.80381 a 236.30799,236.30868 0 0 1 -1.7848,-1.36952 c -0.23224,0.15102 -0.46886,0.30311 -0.70991,0.45621 -0.68345,0.43408 -1.40235,0.87614 -2.15752,1.32422 a 0.74217328,0.7421755 0 0 1 -0.85639,-0.0434 239.96936,239.97008 0 0 1 -0.18759,-0.14788 0.74217328,0.7421755 0 0 1 -0.24207,-0.82261 c 0.25943,-0.83891 0.52144,-1.64115 0.78399,-2.40705 0.0927,-0.27011 0.18524,-0.5357 0.27788,-0.79678 a 236.30799,236.30868 0 0 1 -1.74836,-1.4158 c -0.23612,0.1449 -0.476636,0.29074 -0.72159,0.43747 -0.69458,0.41605 -1.424812,0.83914 -2.191452,1.2673 a 0.74217328,0.7421755 0 0 1 -0.854966,-0.0656 239.96936,239.97008 0 0 1 -0.183642,-0.15273 0.74217328,0.7421755 0 0 1 -0.220448,-0.82867 c 0.281282,-0.83184 0.564209,-1.62696 0.846706,-2.38571 0.09964,-0.26761 0.199207,-0.53068 0.29864,-0.78926 a 236.30799,236.30868 0 0 1 -1.710679,-1.46106 c -0.239833,0.13865 -0.484092,0.27817 -0.732812,0.41844 -0.705226,0.3977 -1.446282,0.80154 -2.223869,1.20949 a 0.74217328,0.7421755 0 0 1 -0.852951,-0.088 239.96936,239.97008 0 0 1 -0.179581,-0.15748 0.74217328,0.7421755 0 0 1 -0.198682,-0.83415 c 0.302962,-0.82419 0.606606,-1.61163 0.908867,-2.36272 0.106602,-0.2649 0.213031,-0.52529 0.319198,-0.78117 a 236.30799,236.30868 0 0 1 -1.671846,-1.50534 c -0.243381,0.13233 -0.49121,0.26539 -0.743516,0.39911 -0.715394,0.37911 -1.466768,0.76341 -2.254767,1.15086 a 0.74217328,0.7421755 0 0 1 -0.850351,-0.1104 239.96936,239.97008 0 0 1 -0.175396,-0.16214 0.74217328,0.7421755 0 0 1 -0.176779,-0.83907 c 0.324433,-0.81598 0.648583,-1.59518 0.970402,-2.33812 0.1135,-0.26202 0.226709,-0.51952 0.339537,-0.77254 a 236.30799,236.30868 0 0 1 -1.631867,-1.54858 c -0.246761,0.12591 -0.497987,0.25245 -0.753707,0.37949 -0.725074,0.36027 -1.48625,0.72477 -2.28412,1.09145 a 0.74217328,0.7421755 0 0 1 -0.847172,-0.13262 239.96936,239.97008 0 0 1 -0.171093,-0.16668 0.74217328,0.7421755 0 0 1 -0.154752,-0.8434 c 0.345679,-0.8072 0.690117,-1.57766 1.031276,-2.31192 0.120318,-0.25896 0.24023,-0.51341 0.359644,-0.76338 a 236.30799,236.30868 0 0 1 -1.590773,-1.59078 c -0.249973,0.11941 -0.504427,0.23932 -0.763383,0.35964 -0.734257,0.34116 -1.504711,0.68561 -2.311909,1.03129 a 0.74217328,0.7421755 0 0 1 -0.843408,-0.15476 239.96936,239.97008 0 0 1 -0.166671,-0.17108 0.74217328,0.7421755 0 0 1 -0.132623,-0.84719 c 0.366693,-0.79787 0.731179,-1.55905 1.091441,-2.28412 0.127056,-0.25571 0.253586,-0.50695 0.379502,-0.75372 a 236.30799,236.30868 0 0 1 -1.548584,-1.63186 c -0.253014,0.11283 -0.510518,0.22603 -0.772536,0.33953 -0.742935,0.32182 -1.522144,0.64597 -2.338112,0.97041 a 0.74217328,0.7421755 0 0 1 -0.83907,-0.17679 239.96936,239.97008 0 0 1 -0.162135,-0.17538 0.74217328,0.7421755 0 0 1 -0.110401,-0.85036 c 0.387453,-0.788 0.771743,-1.53938 1.150859,-2.25478 0.133708,-0.25229 0.266771,-0.50014 0.399102,-0.74351 a 236.30799,236.30868 0 0 1 -1.505336,-1.67185 c -0.25588,0.10617 -0.516259,0.2126 -0.781159,0.3192 -0.751104,0.30226 -1.538531,0.6059 -2.362712,0.90886 a 0.74217328,0.7421755 0 0 1 -0.834155,-0.19867 239.96936,239.97008 0 0 1 -0.157487,-0.17959 0.74217328,0.7421755 0 0 1 -0.0881,-0.85294 c 0.407946,-0.7776 0.811773,-1.51867 1.209487,-2.22389 0.140267,-0.24873 0.279771,-0.49298 0.418427,-0.73281 a 236.30799,236.30868 0 0 1 -1.461055,-1.71069 c -0.258572,0.0994 -0.521647,0.19901 -0.789247,0.29864 -0.75876,0.28249 -1.553867,0.56542 -2.385696,0.8467 a 0.74217328,0.7421755 0 0 1 -0.828666,-0.22045 239.96936,239.97008 0 0 1 -0.152734,-0.18363 0.74217328,0.7421755 0 0 1 -0.06574,-0.85497 c 0.428162,-0.76664 0.851247,-1.49688 1.267288,-2.19146 0.146728,-0.24496 0.29258,-0.48548 0.437466,-0.72161 a 236.30799,236.30868 0 0 1 -1.415774,-1.74834 c -0.261087,0.0926 -0.526681,0.18529 -0.796796,0.27789 -0.765893,0.26252 -1.568133,0.52455 -2.40704,0.78395 a 0.74217328,0.7421755 0 0 1 -0.822613,-0.24205 239.96936,239.97008 0 0 1 -0.147873,-0.18758 0.74217328,0.7421755 0 0 1 -0.04335,-0.8564 c 0.448083,-0.75517 0.890141,-1.47408 1.324218,-2.15753 0.15309,-0.24103 0.305188,-0.47766 0.456206,-0.70991 a 236.30799,236.30868 0 0 1 -1.370823,-1.78467 c -0.263421,0.0858 -0.531349,0.17143 -0.803795,0.25691 -0.772504,0.24241 -1.581328,0.48334 -2.426737,0.7207 a 0.74217328,0.7421755 0 0 1 -0.815994,-0.26351 239.96936,239.97008 0 0 1 -0.142914,-0.19139 0.74217328,0.7421755 0 0 1 -0.0209,-0.85725 c 0.467698,-0.74317 0.928422,-1.45026 1.380243,-2.12212 0.159348,-0.23693 0.317586,-0.4695 0.474633,-0.69771 a 236.30799,236.30868 0 0 1 -1.322334,-1.82005 c -0.265575,0.0789 -0.535654,0.15747 -0.810246,0.23579 -0.778584,0.2221 -1.593436,0.44178 -2.444772,0.65693 a 0.74217328,0.7421755 0 0 1 -0.808815,-0.28478 239.96936,239.97008 0 0 1 -0.137855,-0.19508 0.74217328,0.7421755 0 0 1 0.0016,-0.85748 c 0.486991,-0.73069 0.966066,-1.42548 1.435319,-2.08526 0.165495,-0.2327 0.329768,-0.46103 0.492735,-0.68507 a 236.30799,236.30868 0 0 1 -1.274239,-1.85403 c -0.267549,0.0718 -0.539592,0.14339 -0.816138,0.2145 -0.784133,0.20165 -1.604456,0.39991 -2.461132,0.59271 A 0.74217328,0.7421755 0 0 1 50.538712,383.42015 239.96936,239.97008 0 0 1 50.40601,383.22156 0.74217328,0.7421755 0 0 1 50.43,382.3644 c 0.505953,-0.71769 1.00305,-1.3997 1.489412,-2.04698 0.171532,-0.22829 0.341724,-0.45224 0.510501,-0.67193 a 236.30799,236.30868 0 0 1 -1.22527,-1.88677 c -0.269338,0.0647 -0.54316,0.12923 -0.821475,0.19308 -0.789142,0.18104 -1.614373,0.35778 -2.475802,0.52807 a 0.74217328,0.7421755 0 0 1 -0.792804,-0.32673 239.96936,239.97008 0 0 1 -0.127456,-0.20201 0.74217328,0.7421755 0 0 1 0.04641,-0.85623 c 0.524566,-0.7042 1.039347,-1.37296 1.542486,-2.0073 0.177448,-0.2237 0.353447,-0.44314 0.527914,-0.65832 a 236.30799,236.30868 0 0 1 -1.175461,-1.91819 c -0.270941,0.0578 -0.546356,0.11497 -0.826246,0.1715 -0.793609,0.16032 -1.623187,0.31539 -2.488777,0.46308 a 0.74217328,0.7421755 0 0 1 -0.783978,-0.34736 239.96936,239.97008 0 0 1 -0.122126,-0.20528 0.74217328,0.7421755 0 0 1 0.06882,-0.85473 c 0.542819,-0.69023 1.07493,-1.34528 1.594501,-1.96621 0.183243,-0.21901 0.364925,-0.43375 0.544966,-0.6443 a 236.30799,236.30868 0 0 1 -1.124844,-1.9483 c -0.272361,0.0507 -0.54918,0.10061 -0.830454,0.14981 -0.797535,0.1395 -1.630886,0.27279 -2.500046,0.39778 a 0.74217328,0.7421755 0 0 1 -0.774618,-0.36778 239.96936,239.97008 0 0 1 -0.116709,-0.20839 0.74217328,0.7421755 0 0 1 0.09115,-0.85264 c 0.560702,-0.67578 1.109777,-1.31669 1.645425,-1.92381 0.188912,-0.21412 0.376154,-0.42404 0.561645,-0.62981 a 236.30799,236.30868 0 0 1 -1.073458,-1.97706 c -0.273595,0.0434 -0.551625,0.0862 -0.834092,0.12801 -0.800912,0.11858 -1.637466,0.23001 -2.509601,0.3322 a 0.74217328,0.7421755 0 0 1 -0.764724,-0.38794 239.96936,239.97008 0 0 1 -0.111216,-0.21137 0.74217328,0.7421755 0 0 1 0.113449,-0.84995 c 0.578199,-0.66087 1.143863,-1.28719 1.695221,-1.88008 0.194452,-0.2091 0.387125,-0.41406 0.577939,-0.61489 a 236.30799,236.30868 0 0 1 -1.021338,-2.0045 c -0.274639,0.0364 -0.553693,0.0717 -0.837157,0.10615 -0.803742,0.0976 -1.642928,0.18705 -2.517438,0.26638 a 0.74217328,0.7421755 0 0 1 -0.754308,-0.40781 239.96936,239.97008 0 0 1 -0.105642,-0.21422 0.74217328,0.7421755 0 0 1 0.135658,-0.84669 c 0.595299,-0.64552 1.177167,-1.2568 1.743855,-1.83506 0.19986,-0.20394 0.397829,-0.40378 0.593836,-0.59955 a 236.30799,236.30868 0 0 1 -0.968517,-2.03055 c -0.275495,0.0291 -0.555381,0.0572 -0.839647,0.0842 -0.80602,0.0765 -1.647262,0.14399 -2.523549,0.20039 a 0.74217328,0.7421755 0 0 1 -0.743374,-0.42741 239.96936,239.97008 0 0 1 -0.1,-0.21692 0.74217328,0.7421755 0 0 1 0.157777,-0.84285 c 0.611994,-0.6297 1.209661,-1.22555 1.791291,-1.78878 0.205131,-0.19863 0.408266,-0.39321 0.609329,-0.58379 a 236.30799,236.30868 0 0 1 -0.915033,-2.0552 c -0.276163,0.0219 -0.556686,0.0427 -0.841563,0.0621 -0.807747,0.0554 -1.650465,0.10083 -2.527929,0.13427 a 0.74217328,0.7421755 0 0 1 -0.73193,-0.44673 239.96936,239.97008 0 0 1 -0.09429,-0.21946 0.74217328,0.7421755 0 0 1 0.179785,-0.83843 c 0.628266,-0.61347 1.241329,-1.19346 1.837503,-1.74127 0.210259,-0.19321 0.418418,-0.38241 0.624401,-0.56766 a 236.30799,236.30868 0 0 1 -0.86092,-2.07844 c -0.276641,0.0146 -0.557613,0.0282 -0.842903,0.0401 -0.808918,0.0343 -1.652539,0.0576 -2.530577,0.068 a 0.74217328,0.7421755 0 0 1 -0.719987,-0.46574 239.96936,239.97008 0 0 1 -0.0885,-0.22185 0.74217328,0.7421755 0 0 1 0.20167,-0.83343 c 0.644111,-0.59682 1.272143,-1.16056 1.882456,-1.69259 0.215243,-0.18762 0.428283,-0.37131 0.639045,-0.55111 a 236.30799,236.30868 0 0 1 -0.806215,-2.10027 c -0.276934,0.007 -0.55816,0.0135 -0.843667,0.018 -0.809537,0.013 -1.65348,0.0143 -2.531491,0.002 a 0.74217328,0.7421755 0 0 1 -0.707549,-0.48442 239.96936,239.97008 0 0 1 -0.08266,-0.22409 0.74217328,0.7421755 0 0 1 0.223419,-0.82787 c 0.659514,-0.57974 1.302088,-1.12687 1.926117,-1.64272 0.220082,-0.18194 0.437856,-0.35998 0.653253,-0.5342 a 236.30799,236.30868 0 0 1 -0.750663,-2.12065 c -0.277031,1.6e-4 -0.558318,-9.8e-4 -0.84385,-0.004 -0.8096,-0.008 -1.653285,-0.029 -2.53067,-0.0644 a 0.74217328,0.7421755 0 0 1 -0.694624,-0.50279 239.96936,239.97008 0 0 1 -0.07677,-0.22617 0.74217328,0.7421755 0 0 1 0.245014,-0.82175 c 0.674463,-0.56228 1.331139,-1.09241 1.968457,-1.59175 0.224769,-0.17611 0.44713,-0.34838 0.667013,-0.5169 a 236.30799,236.30868 0 0 1 -0.695194,-2.13959 c -0.27694,-0.007 -0.558095,-0.0157 -0.843452,-0.0262 -0.809111,-0.0294 -1.651963,-0.0722 -2.528117,-0.1307 a 0.74217328,0.7421755 0 0 1 -0.681225,-0.5208 239.96936,239.97008 0 0 1 -0.07084,-0.22811 0.74217328,0.7421755 0 0 1 0.266438,-0.81504 c 0.688953,-0.54444 1.359281,-1.05717 2.009452,-1.53966 0.229301,-0.17017 0.456097,-0.33658 0.680316,-0.49928 a 236.30799,236.30868 0 0 1 -0.638949,-2.15705 c -0.276658,-0.0143 -0.557492,-0.0304 -0.84248,-0.0482 -0.808062,-0.0505 -1.649504,-0.11548 -2.523828,-0.19685 a 0.74217328,0.7421755 0 0 1 -0.667358,-0.53843 239.96936,239.97008 0 0 1 -0.06484,-0.22989 0.74217328,0.7421755 0 0 1 0.287685,-0.80778 c 0.702965,-0.52623 1.386486,-1.02123 2.049065,-1.48655 0.233678,-0.1641 0.46475,-0.32451 0.693151,-0.48129 a 236.30799,236.30868 0 0 1 -0.582263,-2.17304 c -0.27619,-0.0216 -0.556508,-0.045 -0.84093,-0.0702 -0.806463,-0.0716 -1.645918,-0.15862 -2.51781,-0.26286 a 0.74217328,0.7421755 0 0 1 -0.653037,-0.55572 239.96936,239.97008 0 0 1 -0.0588,-0.2315 0.74217328,0.7421755 0 0 1 0.308732,-0.79999 c 0.7165,-0.50764 1.412743,-0.98458 2.087275,-1.43239 0.237893,-0.15794 0.473086,-0.31224 0.705513,-0.46298 a 236.30799,236.30868 0 0 1 -0.525181,-2.18754 c -0.27553,-0.0288 -0.555139,-0.0595 -0.838803,-0.0922 -0.80431,-0.0927 -1.6412,-0.20164 -2.510065,-0.32866 a 0.74217328,0.7421755 0 0 1 -0.638267,-0.57263 239.96936,239.97008 0 0 1 -0.05271,-0.23296 0.74217328,0.7421755 0 0 1 0.329565,-0.79163 c 0.729543,-0.48871 1.438035,-0.94727 2.124057,-1.37727 0.241946,-0.15164 0.481097,-0.29974 0.71739,-0.44434 a 236.30799,236.30868 0 0 1 -0.467736,-2.20055 c -0.274683,-0.0361 -0.553393,-0.074 -0.836103,-0.11416 -0.801606,-0.11378 -1.63536,-0.24452 -2.500603,-0.39424 a 0.74217328,0.7421755 0 0 1 -0.623059,-0.58915 239.96936,239.97008 0 0 1 -0.04659,-0.23427 0.74217328,0.7421755 0 0 1 0.350177,-0.78272 c 0.742085,-0.46944 1.462336,-0.9093 2.15938,-1.32119 0.245834,-0.14527 0.488779,-0.28705 0.728776,-0.42543 a 236.30799,236.30868 0 0 1 -0.409973,-2.21202 c -0.273645,-0.0432 -0.551264,-0.0884 -0.832826,-0.13599 -0.798356,-0.13474 -1.628399,-0.28727 -2.489427,-0.45958 a 0.74217328,0.7421755 0 0 1 -0.607422,-0.60525 239.96936,239.97008 0 0 1 -0.04046,-0.2354 0.74217328,0.7421755 0 0 1 0.370546,-0.7733 c 0.754118,-0.44985 1.485639,-0.8707 2.193224,-1.26421 0.249553,-0.13878 0.496125,-0.27416 0.739664,-0.4062 a 236.30799,236.30868 0 0 1 -0.351931,-2.222 c -0.272422,-0.0504 -0.548759,-0.10288 -0.828982,-0.15774 -0.794553,-0.15559 -1.62032,-0.3298 -2.476541,-0.5246 a 0.74217328,0.7421755 0 0 1 -0.591371,-0.62094 239.96936,239.97008 0 0 1 -0.03428,-0.23638 0.74217328,0.7421755 0 0 1 0.390661,-0.76333 c 0.765637,-0.42996 1.507921,-0.83153 2.225568,-1.20637 0.253098,-0.13219 0.503131,-0.26107 0.750041,-0.3867 a 236.30799,236.30868 0 0 1 -0.293644,-2.23043 c -0.27101,-0.0574 -0.545878,-0.11722 -0.82457,-0.17941 -0.790206,-0.17634 -1.611131,-0.37208 -2.46196,-0.58924 a 0.74217328,0.7421755 0 0 1 -0.574913,-0.6362 239.96936,239.97008 0 0 1 -0.02807,-0.2372 0.74217328,0.7421755 0 0 1 0.410508,-0.75285 c 0.776629,-0.40976 1.529172,-0.79176 2.256382,-1.1477 0.256473,-0.12552 0.509794,-0.2478 0.759909,-0.36692 a 236.30799,236.30868 0 0 1 -0.235157,-2.23737 c -0.269416,-0.0645 -0.542625,-0.13146 -0.81959,-0.20092 -0.785322,-0.19695 -1.600841,-0.41414 -2.445694,-0.65348 a 0.74217328,0.7421755 0 0 1 -0.558062,-0.65105 239.96936,239.97008 0 0 1 -0.02186,-0.23785 0.74217328,0.7421755 0 0 1 0.430076,-0.74185 c 0.787088,-0.38929 1.549372,-0.75147 2.285652,-1.08822 0.259671,-0.11878 0.516104,-0.23439 0.769251,-0.34692 a 236.30799,236.30868 0 0 1 -0.176509,-2.24276 c -0.267632,-0.0715 -0.538996,-0.14562 -0.81405,-0.2223 -0.779896,-0.21745 -1.58945,-0.4559 -2.427749,-0.71728 a 0.74217328,0.7421755 0 0 1 -0.540829,-0.66543 239.96936,239.97008 0 0 1 -0.01563,-0.23834 0.74217328,0.7421755 0 0 1 0.449345,-0.73034 c 0.797011,-0.36855 1.568516,-0.71064 2.313357,-1.02803 0.262692,-0.11193 0.522064,-0.22078 0.77807,-0.32665 a 236.30799,236.30868 0 0 1 -0.11774,-2.24661 c -0.265669,-0.0786 -0.535,-0.15967 -0.807952,-0.24353 -0.773938,-0.23778 -1.576971,-0.49736 -2.408142,-0.78059 a 0.74217328,0.7421755 0 0 1 -0.523224,-0.67935 239.96936,239.97008 0 0 1 -0.0094,-0.23868 0.74217328,0.7421755 0 0 1 0.468308,-0.71832 c 0.806387,-0.34756 1.58658,-0.66934 2.339474,-0.96711 0.265532,-0.10502 0.527666,-0.20706 0.786355,-0.30619 a 236.30799,236.30868 0 0 1 -0.05889,-2.24891 c -0.263522,-0.0855 -0.530637,-0.17363 -0.801301,-0.26462 -0.767447,-0.25795 -1.563411,-0.53845 -2.386882,-0.84334 a 0.74217328,0.7421755 0 0 1 -0.505261,-0.69283 239.96936,239.97008 0 0 1 -0.0031,-0.23883 0.74217328,0.7421755 0 0 1 0.486952,-0.70581 c 0.815208,-0.32633 1.603557,-0.62758 2.363989,-0.90555 0.268188,-0.0981 0.532904,-0.19316 0.7941,-0.28547 a 236.30799,236.30868 0 0 1 0,-2.24971 c -0.261196,-0.0923 -0.525912,-0.18746 -0.7941,-0.28549 -0.760432,-0.27797 -1.548781,-0.57919 -2.363989,-0.90554 a 0.74217328,0.7421755 0 0 1 -0.486952,-0.7058 239.96936,239.97008 0 0 1 0.0031,-0.23884 0.74217328,0.7421755 0 0 1 0.505261,-0.69283 c 0.823471,-0.30488 1.619435,-0.58538 2.386882,-0.84334 0.270664,-0.0909 0.537779,-0.17917 0.801301,-0.26461 a 236.30799,236.30868 0 0 1 0.05889,-2.24893 c -0.258689,-0.0991 -0.520823,-0.20116 -0.786355,-0.30619 -0.752894,-0.29777 -1.533087,-0.61955 -2.339474,-0.96711 a 0.74217328,0.7421755 0 0 1 -0.468308,-0.71832 239.96936,239.97008 0 0 1 0.0094,-0.23867 0.74217328,0.7421755 0 0 1 0.523224,-0.67936 c 0.831171,-0.28323 1.634204,-0.5428 2.408142,-0.78058 0.272952,-0.0839 0.542283,-0.16501 0.807952,-0.24354 a 236.30799,236.30868 0 0 1 0.11774,-2.24662 c -0.256006,-0.10585 -0.515378,-0.21471 -0.77807,-0.32665 -0.744841,-0.31738 -1.516346,-0.65947 -2.313357,-1.02802 a 0.74217328,0.7421755 0 0 1 -0.449345,-0.73032 239.96936,239.97008 0 0 1 0.01563,-0.23836 0.74217328,0.7421755 0 0 1 0.540829,-0.66542 c 0.838299,-0.26137 1.647853,-0.49983 2.427749,-0.71729 0.275054,-0.0767 0.546418,-0.15075 0.81405,-0.2223 a 236.30799,236.30868 0 0 1 0.176509,-2.24276 c -0.253147,-0.11252 -0.50958,-0.22814 -0.769251,-0.3469 -0.73628,-0.33677 -1.498564,-0.69894 -2.285652,-1.08824 a 0.74217328,0.7421755 0 0 1 -0.430076,-0.74184 239.96936,239.97008 0 0 1 0.02186,-0.23786 0.74217328,0.7421755 0 0 1 0.558062,-0.65104 c 0.844853,-0.23934 1.660372,-0.45653 2.445694,-0.65347 0.276965,-0.0694 0.550174,-0.13641 0.81959,-0.20092 a 236.30799,236.30868 0 0 1 0.235157,-2.23738 c -0.250115,-0.11912 -0.503436,-0.2414 -0.759909,-0.36692 -0.72721,-0.35593 -1.479753,-0.73793 -2.256382,-1.14771 a 0.74217328,0.7421755 0 0 1 -0.410508,-0.75285 239.96936,239.97008 0 0 1 0.02807,-0.23719 0.74217328,0.7421755 0 0 1 0.574913,-0.6362 c 0.850829,-0.21715 1.671754,-0.41291 2.46196,-0.58924 0.278692,-0.0622 0.55356,-0.12196 0.82457,-0.17939 a 236.30799,236.30868 0 0 1 0.293644,-2.23046 c -0.24691,-0.12562 -0.496943,-0.2545 -0.750041,-0.3867 -0.717647,-0.37483 -1.459931,-0.77641 -2.225568,-1.20636 a 0.74217328,0.7421755 0 0 1 -0.390661,-0.76334 239.96936,239.97008 0 0 1 0.03428,-0.23638 0.74217328,0.7421755 0 0 1 0.591371,-0.62095 c 0.856221,-0.1948 1.681988,-0.369 2.476541,-0.52457 0.280223,-0.055 0.55656,-0.10743 0.828982,-0.15776 a 236.30799,236.30868 0 0 1 0.351931,-2.22201 c -0.243539,-0.13203 -0.490111,-0.26741 -0.739664,-0.40618 -0.707585,-0.3935 -1.439106,-0.81436 -2.193224,-1.26422 a 0.74217328,0.7421755 0 0 1 -0.370546,-0.77329 239.96936,239.97008 0 0 1 0.04046,-0.2354 0.74217328,0.7421755 0 0 1 0.607422,-0.60526 c 0.861028,-0.17232 1.691071,-0.32484 2.489427,-0.45957 0.281562,-0.0475 0.559181,-0.0928 0.832826,-0.136 a 236.30799,236.30868 0 0 1 0.409973,-2.21202 c -0.239997,-0.13838 -0.482942,-0.28016 -0.728776,-0.42543 -0.697044,-0.41188 -1.417295,-0.85175 -2.15938,-1.32118 a 0.74217328,0.7421755 0 0 1 -0.350177,-0.78273 239.96936,239.97008 0 0 1 0.04659,-0.23427 0.74217328,0.7421755 0 0 1 0.623059,-0.58914 c 0.865243,-0.14973 1.698997,-0.28047 2.500603,-0.39426 0.28271,-0.0402 0.56142,-0.0782 0.836103,-0.11413 a 236.30799,236.30868 0 0 1 0.467736,-2.20055 c -0.236293,-0.14461 -0.475444,-0.2927 -0.71739,-0.44434 -0.686022,-0.43 -1.394514,-0.88857 -2.124057,-1.37728 a 0.74217328,0.7421755 0 0 1 -0.329565,-0.79162 239.96936,239.97008 0 0 1 0.05271,-0.23295 0.74217328,0.7421755 0 0 1 0.638267,-0.57264 c 0.868865,-0.12703 1.705755,-0.23591 2.510065,-0.32868 0.283664,-0.0328 0.563273,-0.0633 0.838803,-0.0922 a 236.30799,236.30868 0 0 1 0.525181,-2.18754 c -0.232427,-0.15075 -0.46762,-0.30505 -0.705513,-0.46298 -0.674532,-0.4478 -1.370775,-0.92475 -2.087275,-1.43239 a 0.74217328,0.7421755 0 0 1 -0.308732,-0.79998 239.96936,239.97008 0 0 1 0.0588,-0.23151 0.74217328,0.7421755 0 0 1 0.653037,-0.55572 c 0.871892,-0.10425 1.711347,-0.19118 2.51781,-0.26285 0.284422,-0.0254 0.56474,-0.0487 0.84093,-0.0702 a 236.30799,236.30868 0 0 1 0.582263,-2.17304 c -0.228401,-0.15678 -0.459473,-0.31719 -0.693151,-0.4813 -0.662579,-0.46531 -1.3461,-0.96033 -2.049065,-1.48654 a 0.74217328,0.7421755 0 0 1 -0.287685,-0.80779 239.96936,239.97008 0 0 1 0.06484,-0.22989 0.74217328,0.7421755 0 0 1 0.667358,-0.53845 c 0.874324,-0.0814 1.715766,-0.14629 2.523828,-0.19684 0.284988,-0.0178 0.565822,-0.0339 0.84248,-0.0482 a 236.30799,236.30868 0 0 1 0.638949,-2.15705 c -0.224219,-0.16271 -0.451015,-0.32911 -0.680316,-0.49928 -0.650171,-0.48249 -1.320499,-0.99523 -2.009452,-1.53965 a 0.74217328,0.7421755 0 0 1 -0.266438,-0.81506 239.96936,239.97008 0 0 1 0.07084,-0.2281 0.74217328,0.7421755 0 0 1 0.681225,-0.52079 c 0.876154,-0.0585 1.719006,-0.10135 2.528117,-0.13071 0.285357,-0.0104 0.566512,-0.019 0.843452,-0.0262 a 236.30799,236.30868 0 0 1 0.695194,-2.13958 c -0.219883,-0.16851 -0.442244,-0.3408 -0.667013,-0.51689 -0.637318,-0.49936 -1.293994,-1.02947 -1.968457,-1.59174 a 0.74217328,0.7421755 0 0 1 -0.245014,-0.82175 239.96936,239.97008 0 0 1 0.07677,-0.22618 0.74217328,0.7421755 0 0 1 0.694624,-0.50278 c 0.877385,-0.0356 1.72107,-0.0563 2.53067,-0.0645 0.285532,-0.003 0.566819,-0.004 0.84385,-0.004 a 236.30799,236.30868 0 0 1 0.750962,-2.12065 c -0.215397,-0.17421 -0.433171,-0.35225 -0.653253,-0.53419 -0.624029,-0.51586 -1.266603,-1.06298 -1.926117,-1.64273 a 0.74217328,0.7421755 0 0 1 -0.223419,-0.82787 239.96936,239.97008 0 0 1 0.08266,-0.22409 0.74217328,0.7421755 0 0 1 0.707549,-0.48443 c 0.878011,-0.0126 1.721954,-0.0112 2.531491,0.002 0.285507,0.005 0.566733,0.0107 0.843667,0.018 a 236.30799,236.30868 0 0 1 0.806215,-2.10027 c -0.210762,-0.17978 -0.423802,-0.36347 -0.639045,-0.5511 -0.610313,-0.53202 -1.238345,-1.09577 -1.882456,-1.69259 a 0.74217328,0.7421755 0 0 1 -0.20167,-0.83344 239.96936,239.97008 0 0 1 0.0885,-0.22185 0.74217328,0.7421755 0 0 1 0.719987,-0.46573 c 0.878038,0.0105 1.721659,0.0339 2.530577,0.068 0.28529,0.012 0.566262,0.0255 0.842903,0.0401 a 236.30799,236.30868 0 0 1 0.86092,-2.07846 c -0.205983,-0.18524 -0.414142,-0.37444 -0.624401,-0.56763 -0.596174,-0.54782 -1.209237,-1.12781 -1.837503,-1.74129 a 0.74217328,0.7421755 0 0 1 -0.179785,-0.83843 239.96936,239.97008 0 0 1 0.09429,-0.21946 0.74217328,0.7421755 0 0 1 0.73193,-0.44673 c 0.877464,0.0335 1.720182,0.0789 2.527929,0.13427 0.284877,0.0195 0.5654,0.0403 0.841563,0.0622 a 236.30799,236.30868 0 0 1 0.915033,-2.05518 c -0.201063,-0.19058 -0.404198,-0.38517 -0.609329,-0.58381 -0.58163,-0.56323 -1.179297,-1.15907 -1.791291,-1.78879 a 0.74217328,0.7421755 0 0 1 -0.157777,-0.84283 239.96936,239.97008 0 0 1 0.1,-0.21693 0.74217328,0.7421755 0 0 1 0.743374,-0.42742 c 0.876287,0.0564 1.717529,0.12391 2.523549,0.2004 0.284266,0.0271 0.564152,0.0551 0.839647,0.0842 a 236.30799,236.30868 0 0 1 0.968517,-2.03054 c -0.196007,-0.19577 -0.393976,-0.3956 -0.593836,-0.59955 -0.566688,-0.57826 -1.148556,-1.18954 -1.743855,-1.83507 a 0.74217328,0.7421755 0 0 1 -0.135658,-0.84667 239.96936,239.97008 0 0 1 0.105642,-0.21423 0.74217328,0.7421755 0 0 1 0.754308,-0.4078 c 0.87451,0.0794 1.713696,0.16881 2.517438,0.26637 0.283464,0.0345 0.562518,0.0697 0.837157,0.10615 a 236.30799,236.30868 0 0 1 1.021338,-2.00449 c -0.190814,-0.20084 -0.383487,-0.40579 -0.577939,-0.6149 -0.551358,-0.59289 -1.117022,-1.2192 -1.695221,-1.88007 a 0.74217328,0.7421755 0 0 1 -0.113449,-0.84996 239.96936,239.97008 0 0 1 0.111216,-0.21137 0.74217328,0.7421755 0 0 1 0.764724,-0.38794 c 0.872135,0.1022 1.708689,0.21364 2.509601,0.3322 0.282467,0.0418 0.560497,0.0845 0.834092,0.12802 a 236.30799,236.30868 0 0 1 1.073458,-1.97707 c -0.185491,-0.20578 -0.372733,-0.4157 -0.561645,-0.62981 -0.535648,-0.60713 -1.084723,-1.24803 -1.645425,-1.92382 a 0.74217328,0.7421755 0 0 1 -0.09115,-0.85262 239.96936,239.97008 0 0 1 0.116709,-0.20842 0.74217328,0.7421755 0 0 1 0.774618,-0.36776 c 0.86916,0.12499 1.702511,0.25827 2.500046,0.39777 0.281274,0.0492 0.558093,0.0992 0.830454,0.14981 a 236.30799,236.30868 0 0 1 1.124844,-1.94829 c -0.180041,-0.21055 -0.361723,-0.42531 -0.544966,-0.6443 -0.519571,-0.62095 -1.051682,-1.27599 -1.594501,-1.96622 a 0.74217328,0.7421755 0 0 1 -0.06882,-0.85473 239.96936,239.97008 0 0 1 0.122126,-0.20528 0.74217328,0.7421755 0 0 1 0.783978,-0.34736 c 0.86559,0.14769 1.695168,0.30276 2.488777,0.46308 0.27989,0.0565 0.555305,0.11374 0.826246,0.17151 a 236.30799,236.30868 0 0 1 1.175461,-1.9182 c -0.174467,-0.21518 -0.350466,-0.43461 -0.527914,-0.65832 -0.503139,-0.63434 -1.01792,-1.30309 -1.542486,-2.0073 a 0.74217328,0.7421755 0 0 1 -0.04641,-0.85623 239.96936,239.97008 0 0 1 0.127456,-0.20201 0.74217328,0.7421755 0 0 1 0.792804,-0.32673 c 0.861429,0.1703 1.68666,0.34703 2.475802,0.52808 0.278315,0.0638 0.552137,0.12823 0.821475,0.19305 a 236.30799,236.30868 0 0 1 1.22527,-1.88674 c -0.168777,-0.21968 -0.338969,-0.44365 -0.510501,-0.67193 -0.486362,-0.64729 -0.983459,-1.32929 -1.489412,-2.04699 a 0.74217328,0.7421755 0 0 1 -0.02399,-0.85714 239.96936,239.97008 0 0 1 0.132702,-0.19861 0.74217328,0.7421755 0 0 1 0.801084,-0.30586 c 0.856676,0.1928 1.676999,0.39106 2.461132,0.59271 0.276546,0.0711 0.548589,0.14264 0.816138,0.21448 a 236.30799,236.30868 0 0 1 1.274239,-1.85403 c -0.162967,-0.22401 -0.32724,-0.45235 -0.492735,-0.68504 -0.469253,-0.6598 -0.948328,-1.35459 -1.435319,-2.08527 a 0.74217328,0.7421755 0 0 1 -0.0016,-0.85749 239.96936,239.97008 0 0 1 0.137855,-0.19507 0.74217328,0.7421755 0 0 1 0.808815,-0.28479 c 0.851336,0.21516 1.666188,0.43483 2.444772,0.65692 0.274592,0.0784 0.544671,0.15697 0.810246,0.2358 a 236.30799,236.30868 0 0 1 1.322334,-1.82004 c -0.157047,-0.22822 -0.315285,-0.46078 -0.474633,-0.69773 -0.451821,-0.67186 -0.912545,-1.37895 -1.380243,-2.12213 a 0.74217328,0.7421755 0 0 1 0.0209,-0.85724 239.96936,239.97008 0 0 1 0.142914,-0.19139 0.74217328,0.7421755 0 0 1 0.815994,-0.26351 c 0.845409,0.23737 1.654233,0.4783 2.426737,0.72068 0.272446,0.0855 0.540374,0.17117 0.803795,0.25694 a 236.30799,236.30868 0 0 1 1.369524,-1.7848 c -0.151018,-0.23226 -0.303115,-0.46888 -0.456206,-0.70992 -0.434078,-0.68344 -0.876136,-1.40235 -1.324218,-2.15752 a 0.74217328,0.7421755 0 0 1 0.04335,-0.85639 239.96936,239.97008 0 0 1 0.147874,-0.18759 0.74217328,0.7421755 0 0 1 0.822612,-0.24206 c 0.838906,0.25942 1.641147,0.52142 2.40704,0.78396 0.270116,0.0926 0.53571,0.18526 0.796795,0.27788 a 236.30799,236.30868 0 0 1 1.415775,-1.74834 c -0.144887,-0.23639 -0.290739,-0.47691 -0.437467,-0.721889 -0.416039,-0.69457 -0.839125,-1.424804 -1.267288,-2.191446 a 0.74217328,0.7421755 0 0 1 0.06574,-0.854968 239.96936,239.97008 0 0 1 0.152734,-0.183643 0.74217328,0.7421755 0 0 1 0.828666,-0.22045 c 0.831829,0.281283 1.626937,0.564212 2.385695,0.846709 0.2676,0.09963 0.530675,0.199209 0.789248,0.298642 a 236.30799,236.30868 0 0 1 1.461055,-1.710725 c -0.138656,-0.239833 -0.27816,-0.484095 -0.418428,-0.732813 -0.397713,-0.70523 -0.80154,-1.446288 -1.209486,-2.223876 a 0.74217328,0.7421755 0 0 1 0.0881,-0.852953 239.96936,239.97008 0 0 1 0.157488,-0.179581 0.74217328,0.7421755 0 0 1 0.834153,-0.198685 c 0.824183,0.302964 1.61161,0.606609 2.362713,0.90887 0.2649,0.106603 0.525279,0.213032 0.781159,0.319199 a 236.30799,236.30868 0 0 1 1.505337,-1.671852 c -0.132327,-0.243321 -0.26539,-0.49115 -0.399098,-0.743456 -0.379116,-0.715396 -0.763406,-1.466774 -1.150859,-2.254775 a 0.74217328,0.7421755 0 0 1 0.110401,-0.850354 239.96936,239.97008 0 0 1 0.162135,-0.175396 0.74217328,0.7421755 0 0 1 0.839072,-0.17678 c 0.815966,0.324433 1.595175,0.648586 2.338111,0.970406 0.262017,0.1135 0.519521,0.22671 0.772535,0.339537 a 236.30799,236.30868 0 0 1 1.548584,-1.631871 c -0.125585,-0.246742 -0.252116,-0.497971 -0.379174,-0.75369 -0.36026,-0.725076 -0.724748,-1.486253 -1.09144,-2.284127 a 0.74217328,0.7421755 0 0 1 0.132623,-0.847174 239.96936,239.97008 0 0 1 0.166672,-0.171093 0.74217328,0.7421755 0 0 1 0.843407,-0.154754 c 0.807198,0.345682 1.577654,0.69012 2.311909,1.031279 0.258957,0.12032 0.513409,0.240231 0.763383,0.359645 a 236.30799,236.30868 0 0 1 1.590772,-1.590778 C 83.583022,81.861695 83.46311,81.607242 83.342791,81.348283 83.001634,80.614025 82.657196,79.843567 82.311515,79.036369 a 0.74217328,0.7421755 0 0 1 0.154752,-0.843411 239.96936,239.97008 0 0 1 0.171093,-0.166673 0.74217328,0.7421755 0 0 1 0.847173,-0.132623 c 0.79787,0.366694 1.559045,0.731184 2.284119,1.091445 0.255719,0.127057 0.506946,0.253587 0.753708,0.379504 a 236.30799,236.30868 0 0 1 1.631865,-1.54859 c -0.112828,-0.253014 -0.226035,-0.51052 -0.339535,-0.772537 -0.321818,-0.742938 -0.64597,-1.522149 -0.970403,-2.33812 a 0.74217328,0.7421755 0 0 1 0.176778,-0.839072 239.96936,239.97008 0 0 1 0.175397,-0.162135 0.74217328,0.7421755 0 0 1 0.850352,-0.110401 c 0.787999,0.387453 1.539373,0.771744 2.254767,1.150861 0.252305,0.133708 0.500133,0.266772 0.743516,0.399103 a 236.30799,236.30868 0 0 1 1.671845,-1.50534 c -0.106166,-0.255881 -0.212596,-0.51626 -0.319196,-0.781161 -0.302263,-0.751107 -0.605906,-1.538536 -0.90887,-2.362721 a 0.74217328,0.7421755 0 0 1 0.198684,-0.834156 239.96936,239.97008 0 0 1 0.179581,-0.157488 0.74217328,0.7421755 0 0 1 0.852951,-0.0881 c 0.777586,0.407948 1.518642,0.811777 2.223868,1.209492 0.248719,0.140266 0.492979,0.279772 0.732812,0.418429 a 236.30799,236.30868 0 0 1 1.710679,-1.461061 C 97.288016,69.323038 97.188442,69.059961 97.088812,68.792361 96.806313,68.0336 96.523387,67.238492 96.242104,66.406659 a 0.74217328,0.7421755 0 0 1 0.22045,-0.828668 239.96936,239.97008 0 0 1 0.183641,-0.152734 0.74217328,0.7421755 0 0 1 0.854966,-0.06575 c 0.76664,0.428162 1.496874,0.85125 2.191453,1.26729 0.244954,0.146729 0.485476,0.292581 0.721586,0.437469 a 236.30799,236.30868 0 0 1 1.74836,-1.41578 c -0.0927,-0.261086 -0.18529,-0.526679 -0.27788,-0.796796 -0.26254,-0.765897 -0.52455,-1.568138 -0.78398,-2.407048 a 0.74217328,0.7421755 0 0 1 0.24207,-0.822616 239.96936,239.97008 0 0 1 0.18759,-0.147874 0.74217328,0.7421755 0 0 1 0.85638,-0.04335 c 0.75518,0.448084 1.47408,0.890141 2.15753,1.324221 0.24104,0.153091 0.47765,0.305189 0.7099,0.456209 a 236.30799,236.30868 0 0 1 1.78481,-1.369528 c -0.0858,-0.263423 -0.17144,-0.531351 -0.25693,-0.803799 -0.24241,-0.772506 -0.48332,-1.581332 -0.72069,-2.426745 a 0.74217328,0.7421755 0 0 1 0.26352,-0.815995 239.96936,239.97008 0 0 1 0.19138,-0.142914 0.74217328,0.7421755 0 0 1 0.85723,-0.02091 c 0.74318,0.467699 1.45027,0.928423 2.12214,1.380245 0.23694,0.159349 0.4695,0.317589 0.69771,0.474637 a 236.30799,236.30868 0 0 1 1.82003,-1.32234 c -0.0788,-0.265576 -0.15746,-0.535655 -0.23579,-0.810247 -0.2221,-0.778586 -0.44177,-1.593442 -0.65691,-2.44478 a 0.74217328,0.7421755 0 0 1 0.28479,-0.808817 239.96936,239.97008 0 0 1 0.19505,-0.137855 0.74217328,0.7421755 0 0 1 0.85749,0.0016 c 0.73067,0.486992 1.42547,0.966068 2.08525,1.435322 0.23271,0.165496 0.46104,0.329769 0.68507,0.492736 a 236.30799,236.30868 0 0 1 1.85404,-1.27424 c -0.0719,-0.26755 -0.1434,-0.539594 -0.21452,-0.816142 -0.20164,-0.784136 -0.3999,-1.604461 -0.59269,-2.46114 a 0.74217328,0.7421755 0 0 1 0.30586,-0.801087 239.96936,239.97008 0 0 1 0.1986,-0.132701 0.74217328,0.7421755 0 0 1 0.85715,0.02399 c 0.71769,0.505953 1.3997,1.003054 2.04699,1.489418 0.22828,0.171531 0.45224,0.341725 0.67192,0.510501 a 236.30799,236.30868 0 0 1 1.88675,-1.225272 c -0.0648,-0.269339 -0.12921,-0.543164 -0.19306,-0.821479 -0.18104,-0.789143 -0.35777,-1.614377 -0.52807,-2.47581 a 0.74217328,0.7421755 0 0 1 0.32673,-0.792805 239.96936,239.97008 0 0 1 0.202,-0.127456 0.74217328,0.7421755 0 0 1 0.85624,0.0464 c 0.70418,0.524567 1.37294,1.039349 2.00727,1.542492 0.22371,0.177446 0.44314,0.353446 0.65833,0.527915 a 236.30799,236.30868 0 0 1 1.91817,-1.175465 c -0.0578,-0.270943 -0.11495,-0.546358 -0.17149,-0.826249 -0.16032,-0.793612 -0.31538,-1.623192 -0.46308,-2.488784 a 0.74217328,0.7421755 0 0 1 0.34737,-0.783981 239.96936,239.97008 0 0 1 0.20527,-0.122126 0.74217328,0.7421755 0 0 1 0.85472,0.06882 c 0.69024,0.542822 1.34529,1.074933 1.96624,1.594507 0.21898,0.183243 0.43373,0.364927 0.64428,0.544969 a 236.30799,236.30868 0 0 1 1.94829,-1.124849 c -0.0506,-0.272364 -0.10062,-0.549181 -0.1498,-0.830456 -0.13951,-0.797537 -0.27281,-1.630892 -0.39778,-2.500054 a 0.74217328,0.7421755 0 0 1 0.36777,-0.774619 239.96936,239.97008 0 0 1 0.2084,-0.116711 0.74217328,0.7421755 0 0 1 0.85263,0.09116 c 0.67577,0.560704 1.31667,1.10978 1.9238,1.645429 0.21412,0.188914 0.42403,0.376156 0.62979,0.561648 a 236.30799,236.30868 0 0 1 1.97707,-1.073463 c -0.0435,-0.273595 -0.0862,-0.551626 -0.12801,-0.834094 -0.11857,-0.800914 -0.23,-1.637472 -0.33218,-2.509609 a 0.74217328,0.7421755 0 0 1 0.38791,-0.764725 239.96936,239.97008 0 0 1 0.21138,-0.111216 0.74217328,0.7421755 0 0 1 0.84996,0.113449 c 0.66087,0.5782 1.28717,1.143867 1.88007,1.695225 0.20911,0.194453 0.41404,0.387125 0.61489,0.577941 a 236.30799,236.30868 0 0 1 2.00449,-1.021342 c -0.0363,-0.274639 -0.0718,-0.553692 -0.10615,-0.837158 -0.0975,-0.803745 -0.18706,-1.642933 -0.26638,-2.517446 a 0.74217328,0.7421755 0 0 1 0.40781,-0.754308 239.96936,239.97008 0 0 1 0.21422,-0.105645 0.74217328,0.7421755 0 0 1 0.8467,0.13566 c 0.6455,0.595302 1.25679,1.177169 1.83505,1.743858 0.20395,0.199861 0.40377,0.397832 0.59954,0.593839 a 236.30799,236.30868 0 0 1 2.03053,-0.968519 c -0.0291,-0.275497 -0.0572,-0.555382 -0.0842,-0.839649 -0.0765,-0.806025 -0.14399,-1.647266 -0.20039,-2.523557 a 0.74217328,0.7421755 0 0 1 0.42741,-0.743376 239.96936,239.97008 0 0 1 0.21691,-0.1 0.74217328,0.7421755 0 0 1 0.84285,0.157778 c 0.6297,0.611994 1.22554,1.209664 1.78878,1.791297 0.19863,0.20513 0.39322,0.408265 0.58379,0.609328 A 236.30799,236.30868 0 0 1 154.9137,33.6669 c -0.0219,-0.276165 -0.0426,-0.556689 -0.0622,-0.841567 -0.0553,-0.807749 -0.10082,-1.65047 -0.13426,-2.527935 a 0.74217328,0.7421755 0 0 1 0.44673,-0.731934 239.96936,239.97008 0 0 1 0.21945,-0.09429 0.74217328,0.7421755 0 0 1 0.83843,0.179785 c 0.61347,0.628269 1.19347,1.241331 1.74128,1.837508 0.1932,0.210261 0.3824,0.418418 0.56765,0.624403 a 236.30799,236.30868 0 0 1 2.07843,-0.860922 c -0.0146,-0.276642 -0.0281,-0.557615 -0.0401,-0.842906 -0.0342,-0.80892 -0.0576,-1.652544 -0.0681,-2.530585 a 0.74217328,0.7421755 0 0 1 0.46573,-0.719987 239.96936,239.97008 0 0 1 0.22185,-0.08851 0.74217328,0.7421755 0 0 1 0.83343,0.201672 c 0.59681,0.644113 1.16056,1.272147 1.69256,1.882461 0.18764,0.215244 0.37133,0.428285 0.55112,0.639047 a 236.30799,236.30868 0 0 1 2.10027,-0.806219 c -0.007,-0.276933 -0.0134,-0.55816 -0.018,-0.843667 -0.013,-0.809541 -0.0143,-1.653486 -0.002,-2.531499 a 0.74217328,0.7421755 0 0 1 0.48443,-0.707551 239.96936,239.97008 0 0 1 0.22411,-0.08267 0.74217328,0.7421755 0 0 1 0.82785,0.223418 c 0.57975,0.659515 1.12686,1.302093 1.64273,1.926123 0.18193,0.220082 0.35996,0.437858 0.53418,0.653254 a 236.30799,236.30868 0 0 1 2.12068,-0.750964 c -1.7e-4,-0.277031 9.8e-4,-0.55832 0.004,-0.843851 0.008,-0.809602 0.029,-1.653291 0.0646,-2.530679 a 0.74217328,0.7421755 0 0 1 0.50276,-0.694626 239.96936,239.97008 0 0 1 0.2262,-0.07677 0.74217328,0.7421755 0 0 1 0.82173,0.245015 c 0.56227,0.674464 1.09238,1.331143 1.59172,1.968462 0.17611,0.224771 0.34839,0.447132 0.51691,0.667016 a 236.30799,236.30868 0 0 1 2.13959,-0.695195 c 0.007,-0.27694 0.0157,-0.558098 0.0261,-0.843455 0.0294,-0.809112 0.0723,-1.651967 0.13072,-2.528124 a 0.74217328,0.7421755 0 0 1 0.52077,-0.681228 239.96936,239.97008 0 0 1 0.22813,-0.07084 0.74217328,0.7421755 0 0 1 0.81503,0.26644 c 0.54445,0.688954 1.05718,1.359284 1.53967,2.009458 0.17016,0.229303 0.33657,0.456097 0.49926,0.680316 a 236.30799,236.30868 0 0 1 2.15706,-0.638948 c 0.0143,-0.276661 0.0304,-0.557494 0.0483,-0.842483 0.0506,-0.808064 0.11547,-1.64951 0.19685,-2.523835 a 0.74217328,0.7421755 0 0 1 0.53844,-0.667361 239.96936,239.97008 0 0 1 0.22988,-0.06483 0.74217328,0.7421755 0 0 1 0.8078,0.287685 c 0.5262,0.702966 1.02122,1.38649 1.48653,2.049071 0.16409,0.233678 0.3245,0.464752 0.48127,0.693153 a 236.30799,236.30868 0 0 1 2.17305,-0.582264 c 0.0215,-0.276191 0.0449,-0.55651 0.0703,-0.840934 0.0717,-0.806465 0.15862,-1.645922 0.26285,-2.517817 a 0.74217328,0.7421755 0 0 1 0.55573,-0.653039 239.96936,239.97008 0 0 1 0.2315,-0.05878 0.74217328,0.7421755 0 0 1 0.79997,0.308732 c 0.50765,0.7165 0.98459,1.412748 1.43239,2.087282 0.15793,0.237894 0.31224,0.473086 0.46297,0.705513 a 236.30799,236.30868 0 0 1 2.18754,-0.525181 c 0.0288,-0.27553 0.0595,-0.55514 0.0923,-0.838805 0.0928,-0.804315 0.20164,-1.641206 0.32866,-2.510074 a 0.74217328,0.7421755 0 0 1 0.57262,-0.638268 239.96936,239.97008 0 0 1 0.23298,-0.05272 0.74217328,0.7421755 0 0 1 0.79162,0.329568 c 0.48869,0.729544 0.94727,1.438037 1.37725,2.124061 0.15165,0.241949 0.29975,0.481098 0.44435,0.717392 a 236.30799,236.30868 0 0 1 2.20052,-0.467737 c 0.036,-0.274685 0.074,-0.553394 0.11415,-0.836105 0.11378,-0.801609 0.24454,-1.635365 0.39426,-2.500611 a 0.74217328,0.7421755 0 0 1 0.58914,-0.623058 239.96936,239.97008 0 0 1 0.23427,-0.04659 0.74217328,0.7421755 0 0 1 0.78272,0.350177 c 0.46945,0.742087 0.9093,1.462341 1.32119,2.159387 0.14525,0.245833 0.28704,0.488778 0.42542,0.728778 a 236.30799,236.30868 0 0 1 2.21202,-0.409975 c 0.0432,-0.273647 0.0885,-0.551267 0.136,-0.83283 0.13473,-0.798357 0.28726,-1.628403 0.45958,-2.489433 a 0.74217328,0.7421755 0 0 1 0.60525,-0.607423 239.96936,239.97008 0 0 1 0.2354,-0.04046 0.74217328,0.7421755 0 0 1 0.7733,0.370546 c 0.44984,0.754122 0.8707,1.485644 1.2642,2.193233 0.13878,0.249553 0.27416,0.496126 0.4062,0.739665 a 236.30799,236.30868 0 0 1 2.22197,-0.351932 c 0.0504,-0.272421 0.10289,-0.548761 0.15776,-0.828984 0.15559,-0.794555 0.32979,-1.620326 0.52458,-2.476551 a 0.74217328,0.7421755 0 0 1 0.62095,-0.591372 239.96936,239.97008 0 0 1 0.23638,-0.03427 0.74217328,0.7421755 0 0 1 0.76334,0.390662 c 0.42996,0.765638 0.83151,1.507926 1.20635,2.225573 0.1322,0.2531 0.26107,0.503132 0.3867,0.750045 a 236.30799,236.30868 0 0 1 2.23044,-0.293644 c 0.0574,-0.271013 0.1172,-0.545881 0.17939,-0.824573 0.17634,-0.79021 0.3721,-1.611137 0.58923,-2.461969 a 0.74217328,0.7421755 0 0 1 0.63622,-0.574913 239.96936,239.97008 0 0 1 0.2372,-0.02807 0.74217328,0.7421755 0 0 1 0.75285,0.410509 c 0.40976,0.77663 0.79175,1.529176 1.14769,2.256389 0.12552,0.256474 0.24782,0.509795 0.36693,0.759911 a 236.30799,236.30868 0 0 1 2.23735,-0.235158 c 0.0646,-0.269416 0.13146,-0.542625 0.20093,-0.819594 0.19695,-0.785322 0.41412,-1.600845 0.65347,-2.4457 a 0.74217328,0.7421755 0 0 1 0.65104,-0.558064 239.96936,239.97008 0 0 1 0.23785,-0.02186 0.74217328,0.7421755 0 0 1 0.74184,0.430076 c 0.3893,0.787091 0.75146,1.549377 1.08823,2.28566 0.11878,0.259671 0.23439,0.516106 0.34692,0.769254 a 236.30799,236.30868 0 0 1 2.24275,-0.176509 c 0.0716,-0.267635 0.14562,-0.538997 0.22231,-0.814054 0.21743,-0.779898 0.4559,-1.589455 0.71727,-2.427756 a 0.74217328,0.7421755 0 0 1 0.66543,-0.540831 239.96936,239.97008 0 0 1 0.23834,-0.01562 0.74217328,0.7421755 0 0 1 0.73032,0.449346 c 0.36856,0.797015 0.71064,1.568519 1.02803,2.313365 0.11192,0.26269 0.22079,0.522064 0.32665,0.778071 a 236.30799,236.30868 0 0 1 2.24661,-0.117741 c 0.0785,-0.265668 0.15967,-0.535001 0.24353,-0.807955 0.23778,-0.773939 0.49735,-1.576975 0.78058,-2.408146 a 0.74217328,0.7421755 0 0 1 0.67935,-0.523227 239.96936,239.97008 0 0 1 0.23869,-0.0094 0.74217328,0.7421755 0 0 1 0.71831,0.468313 c 0.34757,0.806387 0.66934,1.586583 0.96711,2.33948 0.10502,0.265532 0.20705,0.527667 0.30618,0.786358 a 236.30799,236.30868 0 0 1 2.24893,-0.05888 c 0.0854,-0.263523 0.17362,-0.530638 0.26459,-0.801304 0.25796,-0.767449 0.53847,-1.563415 0.84336,-2.386888 a 0.74217328,0.7421755 0 0 1 0.69281,-0.505265 239.96936,239.97008 0 0 1 0.23884,-0.0032 0.74217328,0.7421755 0 0 1 0.70581,0.486955 c 0.32634,0.815209 0.62759,1.603561 0.90555,2.363995 0.098,0.26819 0.19316,0.532906 0.28548,0.794102 a 236.30799,236.30868 0 0 1 2.24968,0 c 0.0923,-0.261196 0.18747,-0.525912 0.2855,-0.794102 0.27796,-0.760434 0.57919,-1.548786 0.90553,-2.363995 a 0.74217328,0.7421755 0 0 1 0.70582,-0.486955 239.96936,239.97008 0 0 1 0.23882,0.0032 0.74217328,0.7421755 0 0 1 0.69282,0.505265 c 0.30489,0.823473 0.58539,1.619439 0.84335,2.386888 0.091,0.270666 0.17916,0.537781 0.26461,0.801304 a 236.30799,236.30868 0 0 1 2.24892,0.05888 c 0.0991,-0.258691 0.20115,-0.520826 0.30617,-0.786358 0.29778,-0.752897 0.61954,-1.533093 0.96712,-2.33948 a 0.74217328,0.7421755 0 0 1 0.71834,-0.468313 239.96936,239.97008 0 0 1 0.23865,0.0094 0.74217328,0.7421755 0 0 1 0.67935,0.523227 c 0.28325,0.831171 0.5428,1.634207 0.7806,2.408146 0.0838,0.272954 0.16501,0.542287 0.24353,0.807955 a 236.30799,236.30868 0 0 1 2.24661,0.117741 c 0.10586,-0.256007 0.21472,-0.515381 0.32665,-0.778071 0.31738,-0.744846 0.65946,-1.51635 1.02802,-2.313365 a 0.74217328,0.7421755 0 0 1 0.73032,-0.449346 239.96936,239.97008 0 0 1 0.23835,0.01562 0.74217328,0.7421755 0 0 1 0.66541,0.540831 c 0.26138,0.838301 0.49985,1.647858 0.71728,2.427756 0.0767,0.275057 0.15077,0.546419 0.22231,0.814054 a 236.30799,236.30868 0 0 1 2.24277,0.176509 c 0.11251,-0.253148 0.22812,-0.509583 0.3469,-0.769254 0.33677,-0.736283 0.69893,-1.498569 1.08822,-2.28566 a 0.74217328,0.7421755 0 0 1 0.74184,-0.430076 239.96936,239.97008 0 0 1 0.23787,0.02186 0.74217328,0.7421755 0 0 1 0.65103,0.558064 c 0.23934,0.844855 0.45652,1.660378 0.65348,2.4457 0.0695,0.276969 0.13641,0.550178 0.20091,0.819594 a 236.30799,236.30868 0 0 1 2.23738,0.235158 c 0.11911,-0.250116 0.2414,-0.503437 0.36692,-0.759911 0.35594,-0.727213 0.73794,-1.479759 1.14771,-2.256389 a 0.74217328,0.7421755 0 0 1 0.75283,-0.410509 239.96936,239.97008 0 0 1 0.23719,0.02807 0.74217328,0.7421755 0 0 1 0.63621,0.574913 c 0.21714,0.850832 0.41291,1.671759 0.58923,2.461969 0.0622,0.278692 0.12196,0.55356 0.17939,0.824573 a 236.30799,236.30868 0 0 1 2.23046,0.293644 c 0.12562,-0.246913 0.25449,-0.496945 0.38669,-0.750045 0.37484,-0.717647 0.77642,-1.459935 1.20635,-2.225573 a 0.74217328,0.7421755 0 0 1 0.76333,-0.390662 239.96936,239.97008 0 0 1 0.2364,0.03427 0.74217328,0.7421755 0 0 1 0.62093,0.591372 c 0.1948,0.856225 0.36901,1.681996 0.5246,2.476551 0.0549,0.280223 0.10742,0.556563 0.15774,0.828984 a 236.30799,236.30868 0 0 1 2.222,0.351932 c 0.13204,-0.243539 0.26741,-0.490112 0.40619,-0.739665 0.39349,-0.707589 0.81435,-1.439111 1.2642,-2.193233 a 0.74217328,0.7421755 0 0 1 0.77329,-0.370546 239.96936,239.97008 0 0 1 0.2354,0.04046 0.74217328,0.7421755 0 0 1 0.60526,0.607423 c 0.1723,0.86103 0.32484,1.691076 0.45957,2.489433 0.0476,0.281563 0.0929,0.559183 0.13599,0.83283 a 236.30799,236.30868 0 0 1 2.21204,0.409975 c 0.13836,-0.24 0.28015,-0.482945 0.42542,-0.728778 0.41188,-0.697046 0.85175,-1.4173 1.32118,-2.159387 a 0.74217328,0.7421755 0 0 1 0.78272,-0.350177 239.96936,239.97008 0 0 1 0.23427,0.04659 0.74217328,0.7421755 0 0 1 0.58914,0.623058 c 0.14971,0.865246 0.28047,1.699002 0.39427,2.500611 0.04,0.282711 0.0781,0.56142 0.11414,0.836105 a 236.30799,236.30868 0 0 1 2.20052,0.467737 c 0.14462,-0.236294 0.2927,-0.475443 0.44435,-0.717392 0.43,-0.686024 0.88856,-1.394517 1.37726,-2.124061 a 0.74217328,0.7421755 0 0 1 0.79164,-0.329568 239.96936,239.97008 0 0 1 0.23296,0.05272 0.74217328,0.7421755 0 0 1 0.57262,0.638268 c 0.12701,0.868868 0.23589,1.705759 0.32865,2.510074 0.0327,0.283665 0.0635,0.563275 0.0923,0.838805 a 236.30799,236.30868 0 0 1 2.18753,0.525181 c 0.15074,-0.232427 0.30504,-0.467619 0.46298,-0.705513 0.4478,-0.674534 0.92476,-1.370782 1.43238,-2.087282 a 0.74217328,0.7421755 0 0 1 0.79999,-0.308732 239.96936,239.97008 0 0 1 0.23151,0.05878 0.74217328,0.7421755 0 0 1 0.55572,0.653039 c 0.10423,0.871895 0.19116,1.711352 0.26285,2.517817 0.0252,0.284424 0.0487,0.564743 0.0703,0.840934 a 236.30799,236.30868 0 0 1 2.17304,0.582264 c 0.15678,-0.228401 0.31718,-0.459475 0.48129,-0.693153 0.4653,-0.662581 0.96031,-1.346105 1.48653,-2.049071 a 0.74217328,0.7421755 0 0 1 0.80778,-0.287685 239.96936,239.97008 0 0 1 0.2299,0.06483 0.74217328,0.7421755 0 0 1 0.53844,0.667361 c 0.0813,0.874325 0.14629,1.715771 0.19684,2.523835 0.0178,0.284989 0.0338,0.565822 0.0483,0.842483 a 236.30799,236.30868 0 0 1 2.15705,0.638948 c 0.1627,-0.224219 0.32909,-0.451013 0.49925,-0.680316 0.4825,-0.650174 0.99525,-1.320504 1.53967,-2.009458 a 0.74217328,0.7421755 0 0 1 0.81505,-0.26644 239.96936,239.97008 0 0 1 0.22811,0.07084 0.74217328,0.7421755 0 0 1 0.52078,0.681228 c 0.0585,0.876157 0.10135,1.719012 0.13071,2.528124 0.0104,0.285357 0.019,0.566515 0.0261,0.843455 a 236.30799,236.30868 0 0 1 2.13958,0.695195 c 0.16852,-0.219884 0.34079,-0.442245 0.51691,-0.667016 0.49935,-0.637319 1.02945,-1.293998 1.59174,-1.968462 a 0.74217328,0.7421755 0 0 1 0.82174,-0.245015 239.96936,239.97008 0 0 1 0.22618,0.07677 0.74217328,0.7421755 0 0 1 0.50277,0.694626 c 0.0355,0.877388 0.0563,1.721077 0.0646,2.530679 0.003,0.285531 0.004,0.56682 0.004,0.843851 a 236.30799,236.30868 0 0 1 2.12064,0.750964 c 0.17422,-0.215396 0.35226,-0.433172 0.5342,-0.653254 0.51585,-0.62403 1.06296,-1.266608 1.64271,-1.926123 a 0.74217328,0.7421755 0 0 1 0.82788,-0.223418 239.96936,239.97008 0 0 1 0.22409,0.08267 0.74217328,0.7421755 0 0 1 0.48442,0.707551 c 0.0125,0.878013 0.0111,1.721958 -0.002,2.531499 -0.005,0.285507 -0.0105,0.566734 -0.018,0.843667 a 236.30799,236.30868 0 0 1 2.10028,0.806219 c 0.17979,-0.210762 0.36347,-0.423803 0.5511,-0.639047 0.53201,-0.610314 1.09576,-1.238348 1.69257,-1.882461 a 0.74217328,0.7421755 0 0 1 0.83345,-0.201672 239.96936,239.97008 0 0 1 0.22184,0.08851 0.74217328,0.7421755 0 0 1 0.46573,0.719987 c -0.0105,0.878041 -0.0338,1.721665 -0.0681,2.530585 -0.012,0.285291 -0.0254,0.566264 -0.0401,0.842906 a 236.30799,236.30868 0 0 1 2.07845,0.860923 c 0.18525,-0.205986 0.37445,-0.414143 0.56764,-0.624404 0.5478,-0.596177 1.1278,-1.209239 1.74126,-1.837508 a 0.74217328,0.7421755 0 0 1 0.83844,-0.179785 239.96936,239.97008 0 0 1 0.21945,0.09429 0.74217328,0.7421755 0 0 1 0.44672,0.731934 c -0.0334,0.877465 -0.0788,1.720186 -0.13426,2.527935 -0.0195,0.284878 -0.0402,0.565402 -0.0622,0.841567 a 236.30799,236.30868 0 0 1 2.05521,0.915033 c 0.19058,-0.201063 0.38515,-0.404198 0.58379,-0.609328 0.56323,-0.581633 1.15908,-1.179303 1.78878,-1.791297 a 0.74217328,0.7421755 0 0 1 0.84284,-0.157778 239.96936,239.97008 0 0 1 0.21693,0.1 0.74217328,0.7421755 0 0 1 0.4274,0.743376 c -0.0564,0.876291 -0.12389,1.717532 -0.20039,2.523557 -0.027,0.284267 -0.0552,0.564152 -0.0842,0.839649 a 236.30799,236.30868 0 0 1 2.03054,0.968519 c 0.19576,-0.196007 0.39559,-0.393978 0.59953,-0.593839 0.57826,-0.566689 1.18956,-1.148556 1.83505,-1.743858 a 0.74217328,0.7421755 0 0 1 0.84669,-0.13566 239.96936,239.97008 0 0 1 0.21421,0.105645 0.74217328,0.7421755 0 0 1 0.40782,0.754308 c -0.0793,0.874513 -0.16882,1.713701 -0.26639,2.517446 -0.0344,0.283466 -0.0699,0.562519 -0.10614,0.837158 a 236.30799,236.30868 0 0 1 2.00449,1.021342 c 0.20084,-0.190816 0.40578,-0.383488 0.61488,-0.577941 0.5929,-0.551358 1.21921,-1.117025 1.88008,-1.695225 a 0.74217328,0.7421755 0 0 1 0.84995,-0.113449 239.96936,239.97008 0 0 1 0.21139,0.111216 0.74217328,0.7421755 0 0 1 0.38792,0.764725 c -0.10218,0.872137 -0.21361,1.708695 -0.33219,2.509609 -0.0418,0.282468 -0.0845,0.560499 -0.12802,0.834094 a 236.30799,236.30868 0 0 1 1.97707,1.073463 c 0.20577,-0.185492 0.41569,-0.372734 0.6298,-0.561648 0.60713,-0.535649 1.24804,-1.084725 1.92381,-1.645429 a 0.74217328,0.7421755 0 0 1 0.85263,-0.09116 239.96936,239.97008 0 0 1 0.2084,0.116711 0.74217328,0.7421755 0 0 1 0.36777,0.774619 c -0.12498,0.869162 -0.25827,1.702517 -0.39776,2.500054 -0.0493,0.281275 -0.0991,0.558092 -0.14981,0.830456 a 236.30799,236.30868 0 0 1 1.94827,1.124849 c 0.21055,-0.180042 0.42529,-0.361726 0.64429,-0.544969 0.62093,-0.519574 1.27601,-1.051685 1.96623,-1.594507 a 0.74217328,0.7421755 0 0 1 0.85471,-0.06882 239.96936,239.97008 0 0 1 0.20527,0.122126 0.74217328,0.7421755 0 0 1 0.34738,0.783981 c -0.1477,0.865592 -0.30276,1.695172 -0.46309,2.488784 -0.0565,0.279891 -0.11373,0.555306 -0.17149,0.826249 a 236.30799,236.30868 0 0 1 1.91818,1.175465 c 0.21519,-0.174469 0.43462,-0.350469 0.65833,-0.527915 0.63432,-0.503143 1.30309,-1.017925 2.00729,-1.542492 a 0.74217328,0.7421755 0 0 1 0.85622,-0.0464 239.96936,239.97008 0 0 1 0.20202,0.127456 0.74217328,0.7421755 0 0 1 0.32672,0.792805 c -0.17031,0.861433 -0.34703,1.686667 -0.52807,2.47581 -0.0639,0.278315 -0.12823,0.55214 -0.19306,0.821479 a 236.30799,236.30868 0 0 1 1.88675,1.225272 c 0.21968,-0.168776 0.44364,-0.33897 0.67193,-0.510501 0.64726,-0.486364 1.32928,-0.983465 2.04697,-1.489418 a 0.74217328,0.7421755 0 0 1 0.85714,-0.02399 239.96936,239.97008 0 0 1 0.19861,0.132701 0.74217328,0.7421755 0 0 1 0.30586,0.801087 c -0.1928,0.856679 -0.39106,1.677004 -0.59268,2.46114 -0.0712,0.276548 -0.14266,0.548592 -0.21451,0.816142 a 236.30799,236.30868 0 0 1 1.85402,1.27424 c 0.22403,-0.162967 0.45237,-0.32724 0.68506,-0.492736 0.65979,-0.469254 1.35458,-0.94833 2.08527,-1.435322 a 0.74217328,0.7421755 0 0 1 0.85748,-0.0016 239.96936,239.97008 0 0 1 0.19505,0.137855 0.74217328,0.7421755 0 0 1 0.2848,0.808817 c -0.21516,0.851338 -0.43482,1.666194 -0.65692,2.44478 -0.0784,0.274592 -0.15696,0.544671 -0.2358,0.810247 a 236.30799,236.30868 0 0 1 1.82005,1.32234 c 0.2282,-0.157048 0.46077,-0.315288 0.69772,-0.474637 0.67184,-0.451822 1.37893,-0.912546 2.12211,-1.380245 a 0.74217328,0.7421755 0 0 1 0.85723,0.02091 239.96936,239.97008 0 0 1 0.19138,0.142914 0.74217328,0.7421755 0 0 1 0.26353,0.815995 c -0.23737,0.845413 -0.4783,1.654239 -0.72069,2.426745 -0.0855,0.272448 -0.17116,0.540376 -0.25692,0.803799 a 236.30799,236.30868 0 0 1 1.78479,1.369528 c 0.23225,-0.15102 0.46886,-0.303118 0.7099,-0.456209 0.68346,-0.43408 1.40236,-0.876137 2.15753,-1.324221 a 0.74217328,0.7421755 0 0 1 0.85639,0.04335 239.96936,239.97008 0 0 1 0.18759,0.147874 0.74217328,0.7421755 0 0 1 0.24207,0.822616 c -0.25943,0.83891 -0.52144,1.641151 -0.78399,2.407048 -0.0926,0.270117 -0.18524,0.53571 -0.27787,0.796796 a 236.30799,236.30868 0 0 1 1.74834,1.41578 c 0.23612,-0.144888 0.47664,-0.29074 0.72162,-0.437469 0.69457,-0.41604 1.4248,-0.839128 2.19144,-1.26729 a 0.74217328,0.7421755 0 0 1 0.85496,0.06575 239.96936,239.97008 0 0 1 0.18364,0.152734 0.74217328,0.7421755 0 0 1 0.22046,0.828668 c -0.28128,0.831833 -0.56422,1.626941 -0.84671,2.385702 -0.0996,0.2676 -0.1992,0.530677 -0.29865,0.78925 a 236.30799,236.30868 0 0 1 1.71069,1.461061 c 0.23984,-0.138657 0.48409,-0.278163 0.73282,-0.418429 0.70521,-0.397715 1.44626,-0.801544 2.22384,-1.209492 a 0.74217328,0.7421755 0 0 1 0.85297,0.0881 239.96936,239.97008 0 0 1 0.17957,0.157488 0.74217328,0.7421755 0 0 1 0.19868,0.834156 c -0.30296,0.824185 -0.6066,1.611614 -0.90886,2.362721 -0.1066,0.264901 -0.21304,0.52528 -0.31919,0.781161 a 236.30799,236.30868 0 0 1 1.67184,1.50534 c 0.24338,-0.132331 0.4912,-0.265395 0.74352,-0.399103 0.71539,-0.379117 1.46677,-0.763408 2.25476,-1.150861 a 0.74217328,0.7421755 0 0 1 0.85035,0.110401 239.96936,239.97008 0 0 1 0.1754,0.162135 0.74217328,0.7421755 0 0 1 0.17677,0.839072 c -0.32442,0.815971 -0.64857,1.595182 -0.9704,2.33812 -0.1135,0.262017 -0.22671,0.519523 -0.33953,0.772537 a 236.30799,236.30868 0 0 1 1.63186,1.54859 c 0.24677,-0.125917 0.498,-0.252447 0.75371,-0.379504 0.72507,-0.360261 1.48626,-0.724751 2.28414,-1.091445 a 0.74217328,0.7421755 0 0 1 0.84717,0.132623 239.96936,239.97008 0 0 1 0.17109,0.166673 0.74217328,0.7421755 0 0 1 0.15476,0.843411 c -0.34569,0.807198 -0.69013,1.577656 -1.03128,2.311914 -0.12032,0.258959 -0.24024,0.513412 -0.35965,0.763385 a 236.30799,236.30868 0 0 1 1.59078,1.590778 c 0.24996,-0.119414 0.50442,-0.239325 0.76338,-0.359645 0.73425,-0.341159 1.5047,-0.685597 2.3119,-1.031279 a 0.74217328,0.7421755 0 0 1 0.84341,0.154754 239.96936,239.97008 0 0 1 0.16667,0.171093 0.74217328,0.7421755 0 0 1 0.13262,0.847174 c -0.36669,0.797874 -0.73118,1.559051 -1.09144,2.284127 -0.12705,0.255719 -0.25359,0.506948 -0.37951,0.753709 a 236.30799,236.30868 0 0 1 1.54859,1.631872 c 0.25302,-0.112828 0.51052,-0.226037 0.77254,-0.339537 0.74293,-0.32182 1.52214,-0.645974 2.33811,-0.970406 a 0.74217328,0.7421755 0 0 1 0.83906,0.17678 239.96936,239.97008 0 0 1 0.16213,0.175396 0.74217328,0.7421755 0 0 1 0.11042,0.850354 c -0.38746,0.788001 -0.77175,1.539378 -1.15087,2.254775 -0.1337,0.252306 -0.26677,0.500135 -0.3991,0.743515 a 236.30799,236.30868 0 0 1 1.50534,1.671853 c 0.25588,-0.106168 0.51626,-0.212598 0.78116,-0.319199 0.75111,-0.302262 1.53853,-0.605906 2.36271,-0.90887 a 0.74217328,0.7421755 0 0 1 0.83415,0.198685 239.96936,239.97008 0 0 1 0.1575,0.17958 0.74217328,0.7421755 0 0 1 0.0881,0.852953 c -0.40796,0.777588 -0.81178,1.518646 -1.20949,2.223875 -0.14026,0.24872 -0.27978,0.492981 -0.41843,0.732814 a 236.30799,236.30868 0 0 1 1.46107,1.710686 c 0.25856,-0.09944 0.52163,-0.199011 0.78924,-0.298642 0.75876,-0.282497 1.55385,-0.565426 2.38568,-0.84671 a 0.74217328,0.7421755 0 0 1 0.82867,0.220451 239.96936,239.97008 0 0 1 0.15275,0.183642 0.74217328,0.7421755 0 0 1 0.0657,0.854968 c -0.42816,0.766642 -0.85126,1.496876 -1.2673,2.191449 -0.14673,0.244979 -0.29258,0.4855 -0.43745,0.72161 a 236.30799,236.30868 0 0 1 1.41577,1.74835 c 0.26108,-0.0926 0.52668,-0.1853 0.7968,-0.27788 0.76589,-0.26254 1.56813,-0.52455 2.40703,-0.78397 a 0.74217328,0.7421755 0 0 1 0.82262,0.24207 239.96936,239.97008 0 0 1 0.14786,0.18758 0.74217328,0.7421755 0 0 1 0.0433,0.85639 c -0.44807,0.75517 -0.89013,1.47408 -1.32421,2.15752 -0.15309,0.24104 -0.3052,0.47766 -0.45622,0.70992 a 236.30799,236.30868 0 0 1 1.36953,1.7848 c 0.26343,-0.0857 0.53136,-0.17144 0.80379,-0.25694 0.77252,-0.24238 1.58134,-0.48331 2.42675,-0.72067 a 0.74217328,0.7421755 0 0 1 0.81599,0.2635 239.96936,239.97008 0 0 1 0.14292,0.19139 0.74217328,0.7421755 0 0 1 0.0208,0.85724 c -0.46769,0.74318 -0.92842,1.45027 -1.38024,2.12213 -0.15934,0.23695 -0.31758,0.46952 -0.47462,0.69774 a 236.30799,236.30868 0 0 1 1.32233,1.82003 c 0.26556,-0.0789 0.53565,-0.15747 0.81024,-0.2358 0.77858,-0.22209 1.59344,-0.44176 2.44476,-0.65691 a 0.74217328,0.7421755 0 0 1 0.80881,0.28479 239.96936,239.97008 0 0 1 0.13786,0.19506 0.74217328,0.7421755 0 0 1 -0.002,0.85749 c -0.48699,0.73068 -0.96608,1.42547 -1.43532,2.08527 -0.16549,0.2327 -0.32976,0.46103 -0.49273,0.68504 a 236.30799,236.30868 0 0 1 1.27423,1.85404 c 0.26754,-0.0718 0.53958,-0.14338 0.81613,-0.21449 0.78414,-0.20165 1.60447,-0.3999 2.46113,-0.59271 a 0.74217328,0.7421755 0 0 1 0.80109,0.30586 239.96936,239.97008 0 0 1 0.1327,0.19861 0.74217328,0.7421755 0 0 1 -0.0239,0.85715 c -0.50596,0.71769 -1.00306,1.39969 -1.48942,2.04698 -0.17153,0.22828 -0.34173,0.45225 -0.5105,0.67193 a 236.30799,236.30868 0 0 1 1.22527,1.88675 c 0.26934,-0.0648 0.54315,-0.12922 0.82147,-0.19306 0.78914,-0.18105 1.61438,-0.35778 2.47581,-0.52808 a 0.74217328,0.7421755 0 0 1 0.79281,0.32674 239.96936,239.97008 0 0 1 0.12746,0.202 0.74217328,0.7421755 0 0 1 -0.0464,0.85623 c -0.52456,0.70421 -1.03934,1.37296 -1.54249,2.0073 -0.17744,0.22371 -0.35345,0.44314 -0.52793,0.65832 a 236.30799,236.30868 0 0 1 1.17548,1.9182 c 0.27094,-0.0578 0.54637,-0.11496 0.82625,-0.17151 0.79361,-0.16032 1.62319,-0.31539 2.48877,-0.46308 a 0.74217328,0.7421755 0 0 1 0.78398,0.34736 239.96936,239.97008 0 0 1 0.12213,0.20529 0.74217328,0.7421755 0 0 1 -0.0688,0.85473 c -0.54283,0.69022 -1.07493,1.34527 -1.5945,1.96622 -0.18325,0.21898 -0.36492,0.43374 -0.54497,0.64429 a 236.30799,236.30868 0 0 1 1.12485,1.94829 c 0.27237,-0.0506 0.54917,-0.10061 0.83045,-0.14981 0.79754,-0.13949 1.63089,-0.27278 2.50004,-0.39777 a 0.74217328,0.7421755 0 0 1 0.77461,0.36777 239.96936,239.97008 0 0 1 0.11672,0.20841 0.74217328,0.7421755 0 0 1 -0.0912,0.85262 c -0.56069,0.67579 -1.10977,1.31669 -1.64542,1.92383 -0.1889,0.2141 -0.37615,0.42402 -0.56164,0.6298 a 236.30799,236.30868 0 0 1 1.07345,1.97707 c 0.27359,-0.0435 0.55163,-0.0861 0.8341,-0.12802 0.8009,-0.11856 1.63746,-0.23 2.50959,-0.3322 a 0.74217328,0.7421755 0 0 1 0.76474,0.38794 239.96936,239.97008 0 0 1 0.1112,0.21138 0.74217328,0.7421755 0 0 1 -0.11344,0.84995 c -0.57821,0.66087 -1.14387,1.28719 -1.69523,1.88007 -0.19445,0.20911 -0.38711,0.41406 -0.57793,0.6149 a 236.30799,236.30868 0 0 1 1.02134,2.00449 c 0.27463,-0.0364 0.55369,-0.0717 0.83715,-0.10615 0.80375,-0.0976 1.64292,-0.18705 2.51745,-0.26637 a 0.74217328,0.7421755 0 0 1 0.7543,0.4078 239.96936,239.97008 0 0 1 0.10564,0.21423 0.74217328,0.7421755 0 0 1 -0.13565,0.84669 c -0.59531,0.64551 -1.17717,1.25679 -1.74386,1.83505 -0.19987,0.20395 -0.39783,0.40378 -0.59384,0.59955 a 236.30799,236.30868 0 0 1 0.96852,2.03055 c 0.2755,-0.0291 0.55538,-0.0572 0.83966,-0.0842 0.80602,-0.0765 1.64725,-0.14399 2.52354,-0.20039 a 0.74217328,0.7421755 0 0 1 0.74337,0.42741 239.96936,239.97008 0 0 1 0.1,0.21693 0.74217328,0.7421755 0 0 1 -0.15777,0.84284 c -0.61198,0.62971 -1.20966,1.22556 -1.7913,1.78878 -0.20512,0.19865 -0.40827,0.39323 -0.60932,0.58381 a 236.30799,236.30868 0 0 1 0.91503,2.05518 c 0.27617,-0.0219 0.55669,-0.0427 0.84157,-0.0622 0.80775,-0.0554 1.65047,-0.10081 2.52794,-0.13427 a 0.74217328,0.7421755 0 0 1 0.73193,0.44674 239.96936,239.97008 0 0 1 0.0943,0.21945 0.74217328,0.7421755 0 0 1 -0.17978,0.83844 c -0.62827,0.61347 -1.24133,1.19346 -1.83752,1.74128 -0.21026,0.1932 -0.41841,0.38239 -0.6244,0.56763 a 236.30799,236.30868 0 0 1 0.86093,2.07846 c 0.27665,-0.0146 0.55763,-0.0281 0.8429,-0.0401 0.80893,-0.0343 1.65254,-0.0576 2.53057,-0.068 a 0.74217328,0.7421755 0 0 1 0.71999,0.46573 239.96936,239.97008 0 0 1 0.0885,0.22185 0.74217328,0.7421755 0 0 1 -0.20168,0.83344 c -0.64411,0.59682 -1.27215,1.16058 -1.88245,1.69259 -0.21523,0.18763 -0.42828,0.37132 -0.63904,0.5511 a 236.30799,236.30868 0 0 1 0.80621,2.10027 c 0.27693,-0.007 0.55816,-0.0134 0.84367,-0.018 0.80952,-0.013 1.65347,-0.0143 2.53149,-0.002 a 0.74217328,0.7421755 0 0 1 0.70753,0.48443 239.96936,239.97008 0 0 1 0.0827,0.22409 0.74217328,0.7421755 0 0 1 -0.22343,0.82786 c -0.65951,0.57975 -1.30208,1.12687 -1.92611,1.64274 -0.22009,0.18193 -0.43786,0.35997 -0.65326,0.53418 a 236.30799,236.30868 0 0 1 0.75097,2.12065 c 0.27703,-1.6e-4 0.55832,0.001 0.84384,0.004 0.80961,0.008 1.65329,0.029 2.53068,0.0645 a 0.74217328,0.7421755 0 0 1 0.69462,0.50278 239.96936,239.97008 0 0 1 0.0768,0.22618 0.74217328,0.7421755 0 0 1 -0.24501,0.82175 c -0.67448,0.56227 -1.33115,1.09238 -1.96846,1.59174 -0.22477,0.17609 -0.44713,0.34838 -0.66701,0.51689 a 236.30799,236.30868 0 0 1 0.69518,2.1396 c 0.27695,0.007 0.55809,0.0157 0.84346,0.0262 0.80911,0.0294 1.65196,0.0722 2.52811,0.13071 a 0.74217328,0.7421755 0 0 1 0.68122,0.52079 239.96936,239.97008 0 0 1 0.0709,0.2281 0.74217328,0.7421755 0 0 1 -0.26644,0.81506 c -0.68895,0.54443 -1.35928,1.05716 -2.00944,1.53966 -0.22931,0.17016 -0.4561,0.33657 -0.68033,0.49927 a 236.30799,236.30868 0 0 1 0.63896,2.15705 c 0.27665,0.0144 0.55748,0.0304 0.84247,0.0482 0.80807,0.0505 1.6495,0.11549 2.52382,0.19685 a 0.74217328,0.7421755 0 0 1 0.66737,0.53845 239.96936,239.97008 0 0 1 0.0648,0.22988 0.74217328,0.7421755 0 0 1 -0.28769,0.80779 c -0.70297,0.52621 -1.38649,1.02123 -2.04906,1.48654 -0.23368,0.16411 -0.46475,0.32452 -0.69316,0.4813 a 236.30799,236.30868 0 0 1 0.58226,2.17304 c 0.2762,0.0216 0.55653,0.045 0.84093,0.0702 0.80648,0.0716 1.64591,0.15861 2.51781,0.26285 a 0.74217328,0.7421755 0 0 1 0.65304,0.55572 239.96936,239.97008 0 0 1 0.0588,0.23151 0.74217328,0.7421755 0 0 1 -0.30873,0.79999 c -0.7165,0.50763 -1.41274,0.98458 -2.08727,1.43239 -0.2379,0.15793 -0.47309,0.31222 -0.70552,0.46297 a 236.30799,236.30868 0 0 1 0.52518,2.18754 c 0.27553,0.0288 0.55514,0.0595 0.8388,0.0922 0.80431,0.0927 1.64121,0.20164 2.51008,0.32867 a 0.74217328,0.7421755 0 0 1 0.63824,0.57264 239.96936,239.97008 0 0 1 0.0528,0.23295 0.74217328,0.7421755 0 0 1 -0.32957,0.79163 c -0.72952,0.48871 -1.43801,0.94727 -2.12403,1.37727 -0.24195,0.15164 -0.4811,0.29974 -0.7174,0.44434 a 236.30799,236.30868 0 0 1 0.46773,2.20055 c 0.27469,0.036 0.5534,0.074 0.8361,0.11413 0.80161,0.11379 1.63536,0.24454 2.5006,0.39426 a 0.74217328,0.7421755 0 0 1 0.62306,0.58914 239.96936,239.97008 0 0 1 0.0467,0.23427 0.74217328,0.7421755 0 0 1 -0.35018,0.78273 c -0.74208,0.46943 -1.46234,0.9093 -2.15937,1.32119 -0.24584,0.14527 -0.48877,0.28704 -0.72877,0.42542 a 236.30799,236.30868 0 0 1 0.40997,2.21202 c 0.27364,0.0432 0.55125,0.0884 0.83284,0.136 0.79833,0.13473 1.62838,0.28725 2.4894,0.45957 a 0.74217328,0.7421755 0 0 1 0.60744,0.60527 239.96936,239.97008 0 0 1 0.0404,0.23539 0.74217328,0.7421755 0 0 1 -0.37054,0.77329 c -0.75413,0.44986 -1.48565,0.87072 -2.19324,1.26422 -0.24955,0.13877 -0.49612,0.27415 -0.73965,0.4062 a 236.30799,236.30868 0 0 1 0.35193,2.22199 c 0.27241,0.0503 0.54876,0.10288 0.82897,0.15776 0.79456,0.15557 1.62032,0.32978 2.47655,0.52458 a 0.74217328,0.7421755 0 0 1 0.59137,0.62095 239.96936,239.97008 0 0 1 0.0342,0.23637 0.74217328,0.7421755 0 0 1 -0.39066,0.76334 c -0.76563,0.42995 -1.50792,0.83153 -2.22557,1.20636 -0.2531,0.13221 -0.50313,0.26108 -0.75004,0.3867 a 236.30799,236.30868 0 0 1 0.29364,2.23046 c 0.27102,0.0574 0.54589,0.1172 0.82457,0.17939 0.7902,0.17633 1.61114,0.37209 2.46198,0.58924 a 0.74217328,0.7421755 0 0 1 0.5749,0.6362 239.96936,239.97008 0 0 1 0.0281,0.23721 0.74217328,0.7421755 0 0 1 -0.41052,0.75283 c -0.77661,0.40978 -1.52916,0.79178 -2.25638,1.14771 -0.25647,0.12552 -0.5098,0.2478 -0.75991,0.36692 a 236.30799,236.30868 0 0 1 0.23516,2.23739 c 0.26942,0.0644 0.54263,0.13145 0.81959,0.20091 0.78534,0.19695 1.60085,0.41413 2.44571,0.65347 a 0.74217328,0.7421755 0 0 1 0.55806,0.65104 239.96936,239.97008 0 0 1 0.0219,0.23786 0.74217328,0.7421755 0 0 1 -0.43007,0.74184 c -0.78709,0.3893 -1.54937,0.75147 -2.28564,1.08824 -0.25969,0.11876 -0.51613,0.23438 -0.76927,0.3469 a 236.30799,236.30868 0 0 1 0.17651,2.24276 c 0.26763,0.0715 0.539,0.14562 0.81406,0.22231 0.77991,0.21745 1.58945,0.45591 2.42776,0.71728 a 0.74217328,0.7421755 0 0 1 0.54082,0.66542 239.96936,239.97008 0 0 1 0.0156,0.23836 0.74217328,0.7421755 0 0 1 -0.44935,0.73032 c -0.79701,0.36855 -1.56851,0.71065 -2.31335,1.02802 -0.26269,0.11194 -0.52207,0.2208 -0.77808,0.32666 a 236.30799,236.30868 0 0 1 0.11774,2.24661 c 0.26567,0.0786 0.535,0.15967 0.80796,0.24355 0.77394,0.23777 1.57697,0.49734 2.40814,0.78057 a 0.74217328,0.7421755 0 0 1 0.52323,0.67936 239.96936,239.97008 0 0 1 0.009,0.23867 0.74217328,0.7421755 0 0 1 -0.46831,0.71832 c -0.80639,0.34757 -1.58658,0.66934 -2.33947,0.96711 -0.26554,0.10503 -0.52767,0.20706 -0.78636,0.30619 a 236.30799,236.30868 0 0 1 0.0589,2.24893 c 0.26353,0.0855 0.53064,0.17362 0.8013,0.26461 0.76745,0.25796 1.56342,0.53846 2.38688,0.84334 a 0.74217328,0.7421755 0 0 1 0.50526,0.69283 239.96936,239.97008 0 0 1 0.003,0.23884 0.74217328,0.7421755 0 0 1 -0.48697,0.7058"
       id="path6693" />
    <circle
       style="fill:none;stroke:#000783;stroke-width:0.1;stroke-opacity:1;stroke-dasharray:none"
       id="path7946"
       cx="250"
       cy="20.982275"
       r="2" />
  </g>
</svg>
