<?xml version="1.0" encoding="UTF-8" standalone="no"?>
<!-- Created with Inkscape (http://www.inkscape.org/) -->

<svg
   width="500mm"
   height="500mm"
   viewBox="0 0 500 500"
   version="1.1"
   id="svg5"
   xml:space="preserve"
   sodipodi:docname="large-gear.svg"
   inkscape:version="1.3.2 (091e20e, 2023-11-25)"
   xmlns:inkscape="http://www.inkscape.org/namespaces/inkscape"
   xmlns:sodipodi="http://sodipodi.sourceforge.net/DTD/sodipodi-0.dtd"
   xmlns="http://www.w3.org/2000/svg"
   xmlns:svg="http://www.w3.org/2000/svg"><sodipodi:namedview
     id="namedview1"
     pagecolor="#ffffff"
     bordercolor="#000000"
     borderopacity="0.25"
     inkscape:showpageshadow="2"
     inkscape:pageopacity="0.0"
     inkscape:pagecheckerboard="0"
     inkscape:deskcolor="#d1d1d1"
     inkscape:document-units="mm"
     inkscape:zoom="0.38523333"
     inkscape:cx="944.88189"
     inkscape:cy="944.88189"
     inkscape:window-width="1392"
     inkscape:window-height="1027"
     inkscape:window-x="0"
     inkscape:window-y="394"
     inkscape:window-maximized="0"
     inkscape:current-layer="svg5" /><defs
     id="defs2" /><g
     id="layer2"
     style="display:inline"><path
       style="display:inline;fill:#000000;fill-opacity:0.322034;stroke:#000000;stroke-width:0.1"
       d="m 313.07226,248.83648 c 0.16311,0.0478 0.33268,0.0998 0.50852,0.15654 0.45853,0.1479 0.95963,0.32746 1.49998,0.5451 a 65,65 0 0 1 0,0.81459 c -0.54035,0.21764 -1.04145,0.3972 -1.49998,0.5451 -0.17584,0.0567 -0.34541,0.10878 -0.50852,0.15654 a 0.375,0.375 0 0 0 -0.25763,0.36829 62.75,62.75 0 0 1 -0.003,0.12547 0.375,0.375 0 0 0 0.23924,0.38049 c 0.16058,0.0557 0.32738,0.11602 0.50023,0.1813 0.45073,0.17023 0.94241,0.37416 1.47143,0.61804 a 65,65 0 0 1 -0.04,0.81362 c -0.55038,0.19086 -1.05968,0.34561 -1.52492,0.47084 -0.17842,0.048 -0.35033,0.0917 -0.51559,0.1314 a 0.375,0.375 0 0 0 -0.27539,0.3552 62.75,62.75 0 0 1 -0.009,0.12517 0.375,0.375 0 0 0 0.22029,0.39177 c 0.15765,0.0635 0.3213,0.13195 0.49074,0.20563 0.44182,0.19214 0.92291,0.41995 1.43933,0.6895 a 65,65 0 0 1 -0.0799,0.81067 c -0.55908,0.16362 -1.07536,0.2932 -1.54619,0.39545 -0.18055,0.0392 -0.3544,0.0744 -0.52141,0.10595 a 0.375,0.375 0 0 0 -0.29249,0.34126 62.75,62.75 0 0 1 -0.0154,0.12456 0.375,0.375 0 0 0 0.20081,0.40211 c 0.15434,0.0712 0.31443,0.14755 0.48005,0.22946 0.43186,0.21358 0.90119,0.46473 1.40376,0.75929 a 65,65 0 0 1 -0.11953,0.80578 c -0.56643,0.13599 -1.08845,0.24008 -1.56372,0.31911 -0.18227,0.0303 -0.35764,0.0569 -0.52599,0.0802 a 0.375,0.375 0 0 0 -0.30888,0.3265 62.75,62.75 0 0 1 -0.0215,0.12366 0.375,0.375 0 0 0 0.18083,0.41147 c 0.15066,0.0787 0.30681,0.1628 0.46821,0.25274 0.42087,0.23452 0.87731,0.50839 1.36482,0.82726 a 65,65 0 0 1 -0.15892,0.79894 c -0.57243,0.10804 -1.09893,0.18639 -1.57751,0.242 -0.18353,0.0213 -0.35999,0.0393 -0.52929,0.0543 a 0.375,0.375 0 0 0 -0.32453,0.31095 62.75,62.75 0 0 1 -0.0275,0.12246 0.375,0.375 0 0 0 0.16043,0.41985 c 0.14662,0.086 0.29845,0.17766 0.45525,0.27541 0.40885,0.25489 0.8513,0.55082 1.32258,0.89323 a 65,65 0 0 1 -0.19794,0.79018 c -0.57703,0.0798 -1.10674,0.13224 -1.58747,0.1643 -0.18436,0.0123 -0.36149,0.0216 -0.53132,0.0283 a 0.375,0.375 0 0 0 -0.3394,0.29465 62.75,62.75 0 0 1 -0.0335,0.12096 0.375,0.375 0 0 0 0.13962,0.42722 c 0.14223,0.0931 0.28938,0.19209 0.44119,0.29741 0.39585,0.27465 0.82325,0.59194 1.27716,0.95705 a 65,65 0 0 1 -0.23647,0.77952 c -0.58025,0.0514 -1.1119,0.0778 -1.59362,0.0862 -0.18474,0.003 -0.36212,0.004 -0.53207,0.002 a 0.375,0.375 0 0 0 -0.35345,0.27765 62.75,62.75 0 0 1 -0.0394,0.11917 0.375,0.375 0 0 0 0.1185,0.43355 c 0.13749,0.0999 0.27961,0.20606 0.42606,0.31871 0.3819,0.29373 0.79322,0.63161 1.22866,1.01856 a 65,65 0 0 1 -0.27443,0.76698 c -0.58208,0.0229 -1.11438,0.0231 -1.59593,0.008 -0.18468,-0.006 -0.36187,-0.014 -0.53154,-0.0239 a 0.375,0.375 0 0 0 -0.36664,0.25997 62.75,62.75 0 0 1 -0.0452,0.1171 0.375,0.375 0 0 0 0.0971,0.43884 c 0.13242,0.10655 0.26916,0.21953 0.40991,0.33923 0.36703,0.31212 0.76127,0.66977 1.1772,1.07762 a 65,65 0 0 1 -0.31173,0.75259 c -0.5825,-0.006 -1.11417,-0.0316 -1.5944,-0.0704 -0.18417,-0.0149 -0.36075,-0.0317 -0.52972,-0.05 a 0.375,0.375 0 0 0 -0.37896,0.24166 62.75,62.75 0 0 1 -0.0509,0.11474 0.375,0.375 0 0 0 0.0754,0.44308 c 0.12703,0.11292 0.25806,0.23248 0.39277,0.35894 0.35127,0.32975 0.72749,0.70632 1.12291,1.13409 a 65,65 0 0 1 -0.34829,0.73638 c -0.58152,-0.0343 -1.11128,-0.0862 -1.58902,-0.14856 -0.18322,-0.0239 -0.35876,-0.0494 -0.52663,-0.0759 a 0.375,0.375 0 0 0 -0.39036,0.22278 62.75,62.75 0 0 1 -0.0564,0.1121 0.375,0.375 0 0 0 0.0536,0.44625 c 0.12134,0.11902 0.24634,0.24486 0.37468,0.37777 0.33467,0.3466 0.69196,0.74117 1.06591,1.18783 a 65,65 0 0 1 -0.384,0.71841 c -0.57914,-0.0628 -1.10571,-0.14065 -1.57982,-0.22636 -0.18182,-0.0329 -0.3559,-0.0669 -0.52227,-0.10166 a 0.375,0.375 0 0 0 -0.40082,0.20336 62.75,62.75 0 0 1 -0.0619,0.1092 0.375,0.375 0 0 0 0.0316,0.44834 c 0.11536,0.12483 0.23404,0.25665 0.3557,0.3957 0.31726,0.3626 0.65475,0.77423 1.00634,1.2387 a 65,65 0 0 1 -0.41878,0.6987 c -0.57536,-0.0911 -1.09748,-0.19473 -1.56682,-0.3036 -0.17999,-0.0418 -0.35219,-0.0843 -0.51665,-0.12716 a 0.375,0.375 0 0 0 -0.41032,0.18344 62.75,62.75 0 0 1 -0.0671,0.10604 0.375,0.375 0 0 0 0.01,0.44935 c 0.10909,0.13033 0.22116,0.26782 0.33585,0.41268 0.29909,0.37772 0.61598,0.80542 0.94435,1.28658 a 65,65 0 0 1 -0.45257,0.67731 c -0.57019,-0.11925 -1.0866,-0.24835 -1.55003,-0.38011 -0.17772,-0.0505 -0.34763,-0.10146 -0.50979,-0.15237 a 0.375,0.375 0 0 0 -0.41882,0.16309 62.75,62.75 0 0 1 -0.0723,0.10262 0.375,0.375 0 0 0 -0.0125,0.44928 c 0.10257,0.13553 0.20775,0.27835 0.3152,0.42866 0.28019,0.39195 0.57572,0.83468 0.88009,1.33137 a 65,65 0 0 1 -0.48526,0.65429 c -0.56366,-0.14709 -1.07311,-0.30137 -1.52951,-0.45571 -0.17503,-0.0592 -0.34224,-0.11839 -0.5017,-0.1772 a 0.375,0.375 0 0 0 -0.42632,0.14234 62.75,62.75 0 0 1 -0.0772,0.099 0.375,0.375 0 0 0 -0.0345,0.44813 c 0.0958,0.1404 0.19384,0.28821 0.29379,0.44361 0.26062,0.40522 0.53406,0.86192 0.81369,1.37295 a 65,65 0 0 1 -0.51677,0.62969 c -0.55576,-0.17456 -1.05703,-0.35366 -1.50531,-0.53021 -0.17191,-0.0677 -0.33601,-0.13504 -0.4924,-0.2016 a 0.375,0.375 0 0 0 -0.43279,0.12125 62.75,62.75 0 0 1 -0.082,0.095 0.375,0.375 0 0 0 -0.0564,0.44589 c 0.0888,0.14493 0.17947,0.29738 0.27167,0.4575 0.24042,0.41752 0.49112,0.88708 0.74534,1.41122 a 65,65 0 0 1 -0.54705,0.60357 c -0.54652,-0.20162 -1.0384,-0.40509 -1.47748,-0.60343 -0.16838,-0.0761 -0.32898,-0.15137 -0.48191,-0.22552 a 0.375,0.375 0 0 0 -0.43822,0.0999 62.75,62.75 0 0 1 -0.0865,0.0909 0.375,0.375 0 0 0 -0.0783,0.44259 c 0.0816,0.14911 0.16466,0.30582 0.24889,0.47027 0.21964,0.42882 0.44701,0.91012 0.6752,1.44609 a 65,65 0 0 1 -0.576,0.57601 c -0.53598,-0.22819 -1.01728,-0.45556 -1.4461,-0.6752 -0.16444,-0.0842 -0.32115,-0.16733 -0.47027,-0.24889 a 0.375,0.375 0 0 0 -0.44259,0.0782 62.75,62.75 0 0 1 -0.0909,0.0865 0.375,0.375 0 0 0 -0.0999,0.43822 c 0.0742,0.15293 0.14946,0.31353 0.22552,0.48191 0.19834,0.43908 0.40181,0.93096 0.60343,1.47748 a 65,65 0 0 1 -0.60357,0.54705 c -0.52414,-0.25422 -0.9937,-0.50492 -1.41122,-0.74534 -0.16012,-0.0922 -0.31256,-0.18289 -0.45749,-0.27167 a 0.375,0.375 0 0 0 -0.4459,0.0564 62.75,62.75 0 0 1 -0.095,0.082 0.375,0.375 0 0 0 -0.12125,0.43279 c 0.0666,0.15639 0.13389,0.32049 0.2016,0.49241 0.17655,0.44828 0.35565,0.94954 0.53021,1.50531 a 65,65 0 0 1 -0.62969,0.51677 c -0.51103,-0.27963 -0.96773,-0.55307 -1.37295,-0.81369 -0.1554,-0.1 -0.30321,-0.198 -0.44361,-0.29379 a 0.375,0.375 0 0 0 -0.44813,0.0345 62.75,62.75 0 0 1 -0.0989,0.0772 0.375,0.375 0 0 0 -0.14235,0.42631 c 0.0588,0.15947 0.11801,0.32668 0.1772,0.50171 0.15435,0.4564 0.30863,0.96585 0.45571,1.52951 a 65,65 0 0 1 -0.65429,0.48525 c -0.49669,-0.30437 -0.93942,-0.59989 -1.33137,-0.88008 -0.15031,-0.10745 -0.29313,-0.21263 -0.42866,-0.3152 a 0.375,0.375 0 0 0 -0.44928,0.0125 62.75,62.75 0 0 1 -0.10262,0.0723 A 0.375,0.375 0 0 0 286,301.70368 c 0.0509,0.16216 0.10183,0.33207 0.15236,0.50979 0.13177,0.46343 0.26086,0.97984 0.38011,1.55003 a 65,65 0 0 1 -0.67731,0.45257 c -0.48116,-0.32838 -0.90886,-0.64527 -1.28658,-0.94435 -0.14486,-0.1147 -0.28235,-0.22676 -0.41268,-0.33585 a 0.375,0.375 0 0 0 -0.44935,-0.01 62.75,62.75 0 0 1 -0.10604,0.0671 0.375,0.375 0 0 0 -0.18344,0.41032 c 0.0429,0.16446 0.0854,0.33666 0.12716,0.51665 0.10887,0.46933 0.21248,0.99145 0.3036,1.56681 a 65,65 0 0 1 -0.6987,0.41879 c -0.46447,-0.35159 -0.8761,-0.68908 -1.2387,-1.00634 -0.13905,-0.12167 -0.27087,-0.24034 -0.3957,-0.3557 a 0.375,0.375 0 0 0 -0.44834,-0.0316 62.75,62.75 0 0 1 -0.1092,0.0619 0.375,0.375 0 0 0 -0.20335,0.40082 c 0.0348,0.16636 0.0688,0.34045 0.10166,0.52227 0.0857,0.47411 0.16356,1.00068 0.22635,1.57982 a 65,65 0 0 1 -0.71841,0.384 c -0.44666,-0.37396 -0.84123,-0.73124 -1.18782,-1.06591 -0.13292,-0.12834 -0.25876,-0.25335 -0.37778,-0.37468 a 0.375,0.375 0 0 0 -0.44624,-0.0536 62.75,62.75 0 0 1 -0.11211,0.0564 0.375,0.375 0 0 0 -0.22278,0.39035 c 0.0266,0.16788 0.052,0.34342 0.0759,0.52663 0.0623,0.47775 0.11427,1.00751 0.14856,1.58903 a 65,65 0 0 1 -0.73638,0.34829 c -0.42777,-0.39542 -0.80434,-0.77164 -1.13409,-1.12291 -0.12646,-0.13471 -0.24602,-0.26574 -0.35893,-0.39277 a 0.375,0.375 0 0 0 -0.44308,-0.0754 62.75,62.75 0 0 1 -0.11475,0.0509 0.375,0.375 0 0 0 -0.24166,0.37895 c 0.0183,0.16898 0.0351,0.34556 0.05,0.52973 0.0388,0.48022 0.0647,1.01189 0.0704,1.5944 a 65,65 0 0 1 -0.75259,0.31173 c -0.40785,-0.41593 -0.7655,-0.81017 -1.07762,-1.1772 -0.1197,-0.14075 -0.23268,-0.27749 -0.33923,-0.40991 a 0.375,0.375 0 0 0 -0.43884,-0.0971 62.75,62.75 0 0 1 -0.1171,0.0452 0.375,0.375 0 0 0 -0.25997,0.36664 c 0.01,0.16967 0.0181,0.34686 0.0239,0.53153 0.0152,0.48156 0.015,1.01386 -0.008,1.59594 a 65,65 0 0 1 -0.76698,0.27443 c -0.38695,-0.43544 -0.72482,-0.84676 -1.01856,-1.22866 -0.11265,-0.14646 -0.21878,-0.28857 -0.31871,-0.42606 a 0.375,0.375 0 0 0 -0.43355,-0.1185 62.75,62.75 0 0 1 -0.11917,0.0394 0.375,0.375 0 0 0 -0.27765,0.35345 c 0.002,0.16995 0.001,0.34733 -0.002,0.53207 -0.008,0.48172 -0.0348,1.01336 -0.0862,1.59362 a 65,65 0 0 1 -0.77953,0.23647 c -0.36511,-0.45391 -0.6824,-0.88131 -0.95704,-1.27716 -0.10533,-0.15181 -0.20437,-0.29896 -0.29742,-0.44119 a 0.375,0.375 0 0 0 -0.42722,-0.13963 62.75,62.75 0 0 1 -0.12096,0.0335 0.375,0.375 0 0 0 -0.29465,0.33939 c -0.007,0.16984 -0.016,0.34697 -0.0283,0.53133 -0.0321,0.48072 -0.0845,1.01044 -0.16429,1.58747 a 65,65 0 0 1 -0.79019,0.19793 c -0.34241,-0.47127 -0.63834,-0.91372 -0.89323,-1.32258 -0.0977,-0.15679 -0.18944,-0.30862 -0.27541,-0.45524 a 0.375,0.375 0 0 0 -0.41985,-0.16043 62.75,62.75 0 0 1 -0.12246,0.0275 0.375,0.375 0 0 0 -0.31095,0.32453 c -0.015,0.1693 -0.033,0.34576 -0.0543,0.52929 -0.0556,0.47858 -0.13396,1.00508 -0.242,1.57751 a 65,65 0 0 1 -0.79894,0.15892 c -0.31887,-0.48751 -0.59274,-0.94395 -0.82726,-1.36482 -0.0899,-0.1614 -0.17407,-0.31755 -0.25274,-0.46821 a 0.375,0.375 0 0 0 -0.41147,-0.18083 62.75,62.75 0 0 1 -0.12366,0.0215 0.375,0.375 0 0 0 -0.3265,0.30888 c -0.0233,0.16836 -0.0499,0.34373 -0.0802,0.52599 -0.079,0.47527 -0.18312,0.9973 -0.31911,1.56373 a 65,65 0 0 1 -0.80578,0.11953 c -0.29456,-0.50257 -0.5457,-0.9719 -0.75929,-1.40376 -0.0819,-0.16562 -0.15828,-0.32572 -0.22946,-0.48006 a 0.375,0.375 0 0 0 -0.40211,-0.2008 62.75,62.75 0 0 1 -0.12456,0.0154 0.375,0.375 0 0 0 -0.34126,0.29248 c -0.0315,0.16701 -0.0667,0.34087 -0.10594,0.52142 -0.10226,0.47082 -0.23183,0.98711 -0.39546,1.54619 a 65,65 0 0 1 -0.81067,0.0798 c -0.26955,-0.51641 -0.49736,-0.9975 -0.6895,-1.43932 -0.0737,-0.16944 -0.14211,-0.33309 -0.20563,-0.49074 a 0.375,0.375 0 0 0 -0.39177,-0.22029 62.75,62.75 0 0 1 -0.12516,0.009 0.375,0.375 0 0 0 -0.35521,0.27539 c -0.0397,0.16526 -0.0834,0.33717 -0.1314,0.51559 -0.12523,0.46524 -0.27998,0.97454 -0.47084,1.52492 a 65,65 0 0 1 -0.81362,0.04 c -0.24388,-0.52902 -0.44781,-1.02071 -0.61804,-1.47143 -0.0653,-0.17285 -0.12559,-0.33965 -0.1813,-0.50023 a 0.375,0.375 0 0 0 -0.38049,-0.23925 62.75,62.75 0 0 1 -0.12547,0.003 0.375,0.375 0 0 0 -0.36829,0.25763 c -0.0478,0.16312 -0.0998,0.33268 -0.15654,0.50853 -0.1479,0.45853 -0.32746,0.95963 -0.5451,1.49998 a 65,65 0 0 1 -0.81459,0 c -0.21764,-0.54035 -0.3972,-1.04145 -0.5451,-1.49998 -0.0567,-0.17585 -0.10878,-0.34541 -0.15654,-0.50853 a 0.375,0.375 0 0 0 -0.36829,-0.25763 62.75,62.75 0 0 1 -0.12547,-0.003 0.375,0.375 0 0 0 -0.38049,0.23925 c -0.0557,0.16058 -0.11602,0.32738 -0.1813,0.50023 -0.17023,0.45072 -0.37416,0.94241 -0.61804,1.47143 a 65,65 0 0 1 -0.81362,-0.04 c -0.19086,-0.55038 -0.34561,-1.05968 -0.47084,-1.52492 -0.048,-0.17842 -0.0917,-0.35033 -0.1314,-0.51559 a 0.375,0.375 0 0 0 -0.3552,-0.27539 62.75,62.75 0 0 1 -0.12517,-0.009 0.375,0.375 0 0 0 -0.39177,0.22029 c -0.0635,0.15765 -0.13195,0.3213 -0.20563,0.49074 -0.19214,0.44182 -0.41995,0.92291 -0.6895,1.43932 a 65,65 0 0 1 -0.81067,-0.0798 c -0.16362,-0.55908 -0.2932,-1.07537 -0.39545,-1.54619 -0.0392,-0.18055 -0.0744,-0.35441 -0.10595,-0.52142 a 0.375,0.375 0 0 0 -0.34126,-0.29248 62.75,62.75 0 0 1 -0.12456,-0.0154 0.375,0.375 0 0 0 -0.40211,0.2008 c -0.0712,0.15434 -0.14755,0.31444 -0.22946,0.48006 -0.21358,0.43186 -0.46473,0.90119 -0.75929,1.40376 a 65,65 0 0 1 -0.80578,-0.11953 c -0.13599,-0.56643 -0.24008,-1.08846 -0.31911,-1.56373 -0.0303,-0.18226 -0.0569,-0.35763 -0.0802,-0.52599 a 0.375,0.375 0 0 0 -0.3265,-0.30888 62.75,62.75 0 0 1 -0.12366,-0.0215 0.375,0.375 0 0 0 -0.41147,0.18083 c -0.0787,0.15066 -0.1628,0.30681 -0.25274,0.46821 -0.23452,0.42087 -0.50839,0.87731 -0.82726,1.36482 a 65,65 0 0 1 -0.79894,-0.15892 c -0.10804,-0.57243 -0.18639,-1.09893 -0.242,-1.57751 -0.0213,-0.18353 -0.0393,-0.35999 -0.0543,-0.52929 a 0.375,0.375 0 0 0 -0.31095,-0.32453 62.75,62.75 0 0 1 -0.12246,-0.0275 0.375,0.375 0 0 0 -0.41985,0.16042 c -0.086,0.14663 -0.17766,0.29846 -0.27541,0.45525 -0.25489,0.40886 -0.55082,0.85131 -0.89323,1.32258 a 65,65 0 0 1 -0.79018,-0.19793 c -0.0798,-0.57703 -0.13224,-1.10675 -0.1643,-1.58747 -0.0123,-0.18436 -0.0216,-0.36149 -0.0283,-0.53132 a 0.375,0.375 0 0 0 -0.29465,-0.3394 62.75,62.75 0 0 1 -0.12096,-0.0335 0.375,0.375 0 0 0 -0.42722,0.13963 c -0.0931,0.14223 -0.19209,0.28938 -0.29741,0.44119 -0.27465,0.39585 -0.59194,0.82325 -0.95705,1.27716 a 65,65 0 0 1 -0.77952,-0.23647 c -0.0514,-0.58026 -0.0778,-1.1119 -0.0862,-1.59362 -0.003,-0.18474 -0.004,-0.36212 -0.002,-0.53207 a 0.375,0.375 0 0 0 -0.27765,-0.35345 62.75,62.75 0 0 1 -0.11917,-0.0394 0.375,0.375 0 0 0 -0.43355,0.1185 c -0.0999,0.13749 -0.20606,0.2796 -0.31871,0.42606 -0.29373,0.3819 -0.63161,0.79322 -1.01856,1.22866 a 65,65 0 0 1 -0.76698,-0.27443 c -0.0229,-0.58208 -0.0231,-1.11438 -0.008,-1.59594 0.006,-0.18467 0.0139,-0.36186 0.0239,-0.53153 a 0.375,0.375 0 0 0 -0.25997,-0.36664 62.75,62.75 0 0 1 -0.1171,-0.0452 0.375,0.375 0 0 0 -0.43884,0.0971 c -0.10655,0.13242 -0.21953,0.26916 -0.33923,0.40991 -0.31212,0.36703 -0.66977,0.76127 -1.07762,1.1772 a 65,65 0 0 1 -0.75259,-0.31173 c 0.006,-0.58251 0.0316,-1.11418 0.0704,-1.5944 0.0149,-0.18417 0.0317,-0.36075 0.05,-0.52972 a 0.375,0.375 0 0 0 -0.24166,-0.37896 62.75,62.75 0 0 1 -0.11474,-0.0509 0.375,0.375 0 0 0 -0.44308,0.0754 c -0.11292,0.12703 -0.23248,0.25806 -0.35894,0.39277 -0.32975,0.35127 -0.70632,0.72749 -1.13409,1.12291 a 65,65 0 0 1 -0.73638,-0.34829 c 0.0343,-0.58152 0.0862,-1.11128 0.14856,-1.58903 0.0239,-0.18321 0.0494,-0.35875 0.0759,-0.52663 a 0.375,0.375 0 0 0 -0.22278,-0.39035 62.75,62.75 0 0 1 -0.1121,-0.0564 0.375,0.375 0 0 0 -0.44625,0.0536 c -0.11902,0.12133 -0.24486,0.24634 -0.37777,0.37468 -0.3466,0.33467 -0.74117,0.69195 -1.18783,1.06591 a 65,65 0 0 1 -0.71841,-0.384 c 0.0628,-0.57914 0.14065,-1.10571 0.22636,-1.57982 0.0329,-0.18182 0.0669,-0.35591 0.10166,-0.52227 a 0.375,0.375 0 0 0 -0.20336,-0.40082 62.75,62.75 0 0 1 -0.1092,-0.0619 0.375,0.375 0 0 0 -0.44834,0.0316 c -0.12483,0.11536 -0.25665,0.23403 -0.3957,0.3557 -0.3626,0.31726 -0.77423,0.65475 -1.2387,1.00634 a 65,65 0 0 1 -0.6987,-0.41879 c 0.0911,-0.57536 0.19473,-1.09748 0.3036,-1.56681 0.0418,-0.17999 0.0843,-0.35219 0.12716,-0.51665 a 0.375,0.375 0 0 0 -0.18344,-0.41032 62.75,62.75 0 0 1 -0.10604,-0.0671 0.375,0.375 0 0 0 -0.44935,0.01 c -0.13033,0.10909 -0.26782,0.22115 -0.41268,0.33585 -0.37772,0.29908 -0.80542,0.61597 -1.28658,0.94435 a 65,65 0 0 1 -0.67731,-0.45257 c 0.11925,-0.57019 0.24835,-1.0866 0.38011,-1.55003 0.0505,-0.17772 0.10146,-0.34763 0.15237,-0.50979 a 0.375,0.375 0 0 0 -0.16309,-0.41882 62.75,62.75 0 0 1 -0.10262,-0.0723 0.375,0.375 0 0 0 -0.44928,-0.0125 c -0.13553,0.10257 -0.27835,0.20775 -0.42866,0.3152 -0.39195,0.28019 -0.83468,0.57571 -1.33137,0.88008 a 65,65 0 0 1 -0.65429,-0.48525 c 0.14708,-0.56366 0.30137,-1.07311 0.45571,-1.52951 0.0592,-0.17503 0.11839,-0.34224 0.1772,-0.5017 a 0.375,0.375 0 0 0 -0.14235,-0.42632 62.75,62.75 0 0 1 -0.0989,-0.0772 0.375,0.375 0 0 0 -0.44813,-0.0345 c -0.1404,0.0958 -0.28821,0.19384 -0.44361,0.29379 -0.40522,0.26062 -0.86192,0.53406 -1.37295,0.81369 a 65,65 0 0 1 -0.62969,-0.51677 c 0.17456,-0.55577 0.35366,-1.05703 0.53021,-1.50531 0.0677,-0.17192 0.13504,-0.33602 0.2016,-0.4924 a 0.375,0.375 0 0 0 -0.12125,-0.4328 62.75,62.75 0 0 1 -0.095,-0.082 0.375,0.375 0 0 0 -0.44589,-0.0564 c -0.14493,0.0888 -0.29738,0.17947 -0.4575,0.27167 -0.41752,0.24042 -0.88708,0.49112 -1.41122,0.74534 a 65,65 0 0 1 -0.60357,-0.54705 c 0.20162,-0.54652 0.40509,-1.0384 0.60343,-1.47748 0.0761,-0.16838 0.15137,-0.32898 0.22552,-0.48191 a 0.375,0.375 0 0 0 -0.0999,-0.43822 62.75,62.75 0 0 1 -0.0909,-0.0865 0.375,0.375 0 0 0 -0.44259,-0.0782 c -0.14911,0.0816 -0.30583,0.16465 -0.47027,0.24889 -0.42882,0.21964 -0.91012,0.44701 -1.44609,0.6752 a 65,65 0 0 1 -0.57601,-0.57601 c 0.22819,-0.53597 0.45556,-1.01727 0.6752,-1.44609 0.0842,-0.16445 0.16733,-0.32116 0.24889,-0.47027 a 0.375,0.375 0 0 0 -0.0782,-0.44259 62.75,62.75 0 0 1 -0.0866,-0.0909 0.375,0.375 0 0 0 -0.43822,-0.0999 c -0.15293,0.0741 -0.31353,0.14946 -0.48191,0.22552 -0.43908,0.19834 -0.93096,0.40181 -1.47748,0.60343 a 65,65 0 0 1 -0.54705,-0.60357 c 0.25422,-0.52414 0.50492,-0.9937 0.74534,-1.41122 0.0922,-0.16012 0.18289,-0.31257 0.27167,-0.4575 a 0.375,0.375 0 0 0 -0.0564,-0.44589 62.75,62.75 0 0 1 -0.082,-0.095 0.375,0.375 0 0 0 -0.43279,-0.12125 c -0.15639,0.0666 -0.32049,0.13389 -0.49241,0.2016 -0.44828,0.17655 -0.94954,0.35565 -1.50531,0.53021 a 65,65 0 0 1 -0.51677,-0.62969 c 0.27963,-0.51103 0.55307,-0.96773 0.81369,-1.37295 0.1,-0.1554 0.198,-0.30321 0.29379,-0.44361 a 0.375,0.375 0 0 0 -0.0345,-0.44813 62.75,62.75 0 0 1 -0.0772,-0.099 0.375,0.375 0 0 0 -0.42632,-0.14234 c -0.15946,0.0588 -0.32667,0.118 -0.5017,0.1772 -0.4564,0.15434 -0.96585,0.30862 -1.52951,0.45571 a 65,65 0 0 1 -0.48525,-0.65429 c 0.30437,-0.49669 0.59989,-0.93942 0.88008,-1.33137 0.10745,-0.15031 0.21263,-0.29313 0.3152,-0.42866 a 0.375,0.375 0 0 0 -0.0125,-0.44928 62.75,62.75 0 0 1 -0.0723,-0.10262 0.375,0.375 0 0 0 -0.41882,-0.16309 c -0.16216,0.0509 -0.33207,0.10183 -0.50979,0.15237 -0.46343,0.13176 -0.97984,0.26086 -1.55003,0.38011 a 65,65 0 0 1 -0.45257,-0.67731 c 0.32838,-0.48116 0.64527,-0.90886 0.94435,-1.28658 0.1147,-0.14486 0.22676,-0.28235 0.33585,-0.41268 a 0.375,0.375 0 0 0 0.01,-0.44935 62.75,62.75 0 0 1 -0.0671,-0.10604 0.375,0.375 0 0 0 -0.41032,-0.18344 c -0.16446,0.0429 -0.33666,0.0854 -0.51665,0.12716 -0.46934,0.10887 -0.99145,0.21247 -1.56681,0.3036 a 65,65 0 0 1 -0.41879,-0.6987 c 0.35159,-0.46447 0.68908,-0.8761 1.00634,-1.2387 0.12167,-0.13905 0.24034,-0.27087 0.3557,-0.3957 a 0.375,0.375 0 0 0 0.0316,-0.44834 62.75,62.75 0 0 1 -0.0619,-0.1092 0.375,0.375 0 0 0 -0.40082,-0.20336 c -0.16636,0.0348 -0.34045,0.0688 -0.52227,0.10166 -0.47411,0.0857 -1.00068,0.16357 -1.57982,0.22636 a 65,65 0 0 1 -0.384,-0.71841 c 0.37396,-0.44666 0.73124,-0.84123 1.06591,-1.18783 0.12834,-0.13291 0.25335,-0.25875 0.37468,-0.37777 a 0.375,0.375 0 0 0 0.0536,-0.44625 62.75,62.75 0 0 1 -0.0564,-0.1121 0.375,0.375 0 0 0 -0.39035,-0.22278 c -0.16788,0.0266 -0.34342,0.052 -0.52663,0.0759 -0.47775,0.0623 -1.00751,0.11427 -1.58903,0.14856 a 65,65 0 0 1 -0.34829,-0.73638 c 0.39542,-0.42777 0.77164,-0.80434 1.12291,-1.13409 0.13471,-0.12646 0.26574,-0.24602 0.39277,-0.35894 a 0.375,0.375 0 0 0 0.0754,-0.44308 62.75,62.75 0 0 1 -0.0509,-0.11474 0.375,0.375 0 0 0 -0.37895,-0.24166 c -0.16898,0.0183 -0.34556,0.0351 -0.52973,0.05 -0.48023,0.0388 -1.0119,0.0647 -1.5944,0.0704 a 65,65 0 0 1 -0.31173,-0.75259 c 0.41593,-0.40785 0.81017,-0.7655 1.1772,-1.07762 0.14075,-0.1197 0.27749,-0.23268 0.40991,-0.33923 a 0.375,0.375 0 0 0 0.0971,-0.43884 62.75,62.75 0 0 1 -0.0452,-0.1171 0.375,0.375 0 0 0 -0.36664,-0.25997 c -0.16967,0.01 -0.34686,0.0181 -0.53154,0.0239 -0.48155,0.0152 -1.01385,0.015 -1.59593,-0.008 a 65,65 0 0 1 -0.27443,-0.76698 c 0.43544,-0.38695 0.84676,-0.72483 1.22866,-1.01856 0.14645,-0.11265 0.28857,-0.21879 0.42606,-0.31871 a 0.375,0.375 0 0 0 0.1185,-0.43355 62.75,62.75 0 0 1 -0.0394,-0.11917 0.375,0.375 0 0 0 -0.35345,-0.27765 c -0.16995,0.002 -0.34733,10e-4 -0.53207,-0.002 -0.48172,-0.008 -1.01336,-0.0348 -1.59362,-0.0862 a 65,65 0 0 1 -0.23647,-0.77952 c 0.45391,-0.36511 0.88131,-0.6824 1.27716,-0.95705 0.15181,-0.10532 0.29896,-0.20436 0.44119,-0.29741 a 0.375,0.375 0 0 0 0.13963,-0.42722 62.75,62.75 0 0 1 -0.0335,-0.12096 0.375,0.375 0 0 0 -0.3394,-0.29465 c -0.16983,-0.007 -0.34696,-0.016 -0.53132,-0.0283 -0.48072,-0.0321 -1.01044,-0.0845 -1.58747,-0.1643 a 65,65 0 0 1 -0.19793,-0.79018 c 0.47127,-0.34241 0.91372,-0.63834 1.32258,-0.89323 0.15679,-0.0978 0.30862,-0.18945 0.45524,-0.27541 a 0.375,0.375 0 0 0 0.16043,-0.41985 62.75,62.75 0 0 1 -0.0275,-0.12246 0.375,0.375 0 0 0 -0.32453,-0.31095 c -0.1693,-0.015 -0.34576,-0.033 -0.52929,-0.0543 -0.47858,-0.0556 -1.00508,-0.13396 -1.57751,-0.242 a 65,65 0 0 1 -0.15892,-0.79894 c 0.48751,-0.31887 0.94395,-0.59274 1.36482,-0.82726 0.1614,-0.0899 0.31755,-0.17407 0.46821,-0.25274 a 0.375,0.375 0 0 0 0.18083,-0.41147 62.75,62.75 0 0 1 -0.0214,-0.12366 0.375,0.375 0 0 0 -0.30888,-0.3265 c -0.16836,-0.0233 -0.34373,-0.0499 -0.52599,-0.0802 -0.47528,-0.079 -0.9973,-0.18312 -1.56373,-0.31911 a 65,65 0 0 1 -0.11953,-0.80578 c 0.50257,-0.29456 0.9719,-0.54571 1.40376,-0.75929 0.16562,-0.0819 0.32571,-0.15828 0.48006,-0.22946 a 0.375,0.375 0 0 0 0.2008,-0.40211 62.75,62.75 0 0 1 -0.0154,-0.12456 0.375,0.375 0 0 0 -0.29248,-0.34126 c -0.16701,-0.0315 -0.34087,-0.0667 -0.52142,-0.10595 -0.47082,-0.10225 -0.98711,-0.23183 -1.54619,-0.39545 a 65,65 0 0 1 -0.0798,-0.81067 c 0.51642,-0.26955 0.99751,-0.49736 1.43933,-0.6895 0.16944,-0.0737 0.33309,-0.14211 0.49074,-0.20563 a 0.375,0.375 0 0 0 0.22029,-0.39177 62.75,62.75 0 0 1 -0.009,-0.12517 0.375,0.375 0 0 0 -0.27539,-0.3552 c -0.16526,-0.0397 -0.33717,-0.0834 -0.51559,-0.1314 -0.46524,-0.12523 -0.97454,-0.27998 -1.52492,-0.47084 a 65,65 0 0 1 -0.04,-0.81362 c 0.52902,-0.24388 1.0207,-0.44781 1.47143,-0.61804 0.17285,-0.0653 0.33965,-0.1256 0.50023,-0.1813 a 0.375,0.375 0 0 0 0.23925,-0.38049 62.75,62.75 0 0 1 -0.003,-0.12547 0.375,0.375 0 0 0 -0.25763,-0.36829 c -0.16312,-0.0478 -0.33268,-0.0998 -0.50853,-0.15654 -0.45853,-0.1479 -0.95963,-0.32746 -1.49998,-0.5451 a 65,65 0 0 1 0,-0.81459 c 0.54035,-0.21764 1.04145,-0.3972 1.49998,-0.5451 0.17585,-0.0567 0.34541,-0.10878 0.50853,-0.15654 a 0.375,0.375 0 0 0 0.25763,-0.36829 62.75,62.75 0 0 1 0.003,-0.12547 0.375,0.375 0 0 0 -0.23925,-0.38049 c -0.16058,-0.0557 -0.32738,-0.11602 -0.50023,-0.1813 -0.45073,-0.17023 -0.94241,-0.37416 -1.47143,-0.61805 a 65,65 0 0 1 0.04,-0.81361 c 0.55038,-0.19086 1.05968,-0.34561 1.52492,-0.47084 0.17842,-0.048 0.35033,-0.0917 0.51559,-0.1314 a 0.375,0.375 0 0 0 0.27539,-0.35521 62.75,62.75 0 0 1 0.009,-0.12516 0.375,0.375 0 0 0 -0.22029,-0.39177 c -0.15765,-0.0635 -0.3213,-0.13195 -0.49074,-0.20563 -0.44182,-0.19214 -0.92291,-0.41995 -1.43933,-0.6895 a 65,65 0 0 1 0.0798,-0.81067 c 0.55908,-0.16363 1.07537,-0.29321 1.54619,-0.39546 0.18055,-0.0392 0.35441,-0.0744 0.52142,-0.10594 a 0.375,0.375 0 0 0 0.29248,-0.34126 62.75,62.75 0 0 1 0.0154,-0.12456 0.375,0.375 0 0 0 -0.2008,-0.40211 c -0.15435,-0.0712 -0.31444,-0.14755 -0.48006,-0.22946 -0.43186,-0.21359 -0.90119,-0.46473 -1.40376,-0.75929 a 65,65 0 0 1 0.11953,-0.80578 c 0.56643,-0.13599 1.08845,-0.24008 1.56373,-0.31911 0.18226,-0.0303 0.35763,-0.0569 0.52599,-0.0802 a 0.375,0.375 0 0 0 0.30888,-0.3265 62.75,62.75 0 0 1 0.0214,-0.12366 0.375,0.375 0 0 0 -0.18083,-0.41147 c -0.15066,-0.0787 -0.30681,-0.16281 -0.46821,-0.25274 -0.42087,-0.23452 -0.87731,-0.50839 -1.36482,-0.82726 a 65,65 0 0 1 0.15892,-0.79894 c 0.57243,-0.10804 1.09893,-0.18639 1.57751,-0.242 0.18353,-0.0213 0.35999,-0.0393 0.52929,-0.0543 a 0.375,0.375 0 0 0 0.32453,-0.31095 62.75,62.75 0 0 1 0.0275,-0.12246 0.375,0.375 0 0 0 -0.16043,-0.41985 c -0.14662,-0.086 -0.29845,-0.17766 -0.45524,-0.27541 -0.40886,-0.25489 -0.85131,-0.55083 -1.32258,-0.89323 a 65,65 0 0 1 0.19793,-0.79019 c 0.57703,-0.0798 1.10675,-0.13223 1.58747,-0.16429 0.18436,-0.0123 0.36149,-0.0216 0.53132,-0.0283 a 0.375,0.375 0 0 0 0.3394,-0.29465 62.75,62.75 0 0 1 0.0335,-0.12096 0.375,0.375 0 0 0 -0.13963,-0.42722 c -0.14223,-0.0931 -0.28938,-0.19209 -0.44119,-0.29742 -0.39585,-0.27464 -0.82325,-0.59193 -1.27716,-0.95705 a 65,65 0 0 1 0.23647,-0.77952 c 0.58026,-0.0514 1.1119,-0.0778 1.59362,-0.0862 0.18474,-0.003 0.36212,-0.004 0.53207,-0.002 a 0.375,0.375 0 0 0 0.35345,-0.27765 62.75,62.75 0 0 1 0.0394,-0.11917 0.375,0.375 0 0 0 -0.1185,-0.43355 c -0.13749,-0.0999 -0.27961,-0.20607 -0.42606,-0.31871 -0.3819,-0.29374 -0.79322,-0.63161 -1.22866,-1.01856 a 65,65 0 0 1 0.27443,-0.76698 c 0.58208,-0.0229 1.11438,-0.0231 1.59593,-0.008 0.18468,0.006 0.36187,0.0139 0.53154,0.0239 a 0.375,0.375 0 0 0 0.36664,-0.25997 62.75,62.75 0 0 1 0.0452,-0.1171 0.375,0.375 0 0 0 -0.0971,-0.43884 c -0.13242,-0.10655 -0.26916,-0.21953 -0.40991,-0.33923 -0.36703,-0.31212 -0.76127,-0.66977 -1.1772,-1.07762 a 65,65 0 0 1 0.31173,-0.75259 c 0.5825,0.006 1.11417,0.0316 1.5944,0.0704 0.18417,0.0149 0.36075,0.0317 0.52972,0.05 a 0.375,0.375 0 0 0 0.37896,-0.24167 62.75,62.75 0 0 1 0.0509,-0.11474 0.375,0.375 0 0 0 -0.0754,-0.44308 c -0.12703,-0.11291 -0.25806,-0.23247 -0.39277,-0.35893 -0.35127,-0.32975 -0.72749,-0.70632 -1.12291,-1.13409 a 65,65 0 0 1 0.34829,-0.73638 c 0.58152,0.0343 1.11128,0.0862 1.58903,0.14856 0.18321,0.0239 0.35875,0.0493 0.52663,0.0759 a 0.375,0.375 0 0 0 0.39035,-0.22278 62.75,62.75 0 0 1 0.0564,-0.11211 0.375,0.375 0 0 0 -0.0536,-0.44624 c -0.12133,-0.11902 -0.24634,-0.24486 -0.37468,-0.37778 -0.33467,-0.34659 -0.69195,-0.74116 -1.06591,-1.18782 a 65,65 0 0 1 0.384,-0.71841 c 0.57914,0.0628 1.10571,0.14065 1.57982,0.22635 0.18182,0.0329 0.35591,0.0669 0.52227,0.10166 a 0.375,0.375 0 0 0 0.40082,-0.20335 62.75,62.75 0 0 1 0.0619,-0.1092 0.375,0.375 0 0 0 -0.0316,-0.44834 c -0.11536,-0.12483 -0.23403,-0.25665 -0.3557,-0.39571 -0.31726,-0.36259 -0.65475,-0.77422 -1.00634,-1.23869 a 65,65 0 0 1 0.41879,-0.6987 c 0.57536,0.0911 1.09747,0.19473 1.56681,0.3036 0.17999,0.0417 0.35219,0.0843 0.51665,0.12716 a 0.375,0.375 0 0 0 0.41032,-0.18344 62.75,62.75 0 0 1 0.0671,-0.10604 0.375,0.375 0 0 0 -0.01,-0.44935 c -0.10909,-0.13033 -0.22115,-0.26782 -0.33585,-0.41268 -0.29908,-0.37773 -0.61597,-0.80542 -0.94435,-1.28658 a 65,65 0 0 1 0.45257,-0.67731 c 0.57019,0.11925 1.0866,0.24834 1.55003,0.38011 0.17772,0.0505 0.34763,0.10146 0.50979,0.15236 a 0.375,0.375 0 0 0 0.41882,-0.16309 62.75,62.75 0 0 1 0.0723,-0.10261 0.375,0.375 0 0 0 0.0125,-0.44928 c -0.10257,-0.13553 -0.20775,-0.27835 -0.3152,-0.42866 -0.28019,-0.39195 -0.57571,-0.83468 -0.88008,-1.33137 a 65,65 0 0 1 0.48525,-0.65429 c 0.56366,0.14708 1.07311,0.30136 1.52951,0.45571 0.17503,0.0592 0.34224,0.11839 0.5017,0.17719 a 0.375,0.375 0 0 0 0.42632,-0.14234 62.75,62.75 0 0 1 0.0772,-0.0989 0.375,0.375 0 0 0 0.0345,-0.44813 c -0.0958,-0.1404 -0.19384,-0.28821 -0.29379,-0.44361 -0.26062,-0.40522 -0.53406,-0.86192 -0.81369,-1.37295 a 65,65 0 0 1 0.51677,-0.62969 c 0.55577,0.17456 1.05703,0.35365 1.50531,0.53021 0.17192,0.0677 0.33602,0.13504 0.4924,0.2016 a 0.375,0.375 0 0 0 0.4328,-0.12125 62.75,62.75 0 0 1 0.082,-0.095 0.375,0.375 0 0 0 0.0564,-0.4459 c -0.0888,-0.14493 -0.17947,-0.29737 -0.27167,-0.45749 -0.24042,-0.41752 -0.49112,-0.88708 -0.74534,-1.41122 a 65,65 0 0 1 0.54705,-0.60357 c 0.54652,0.20162 1.0384,0.40509 1.47748,0.60343 0.16838,0.0761 0.32898,0.15136 0.48191,0.22552 a 0.375,0.375 0 0 0 0.43822,-0.0999 62.75,62.75 0 0 1 0.0866,-0.0909 0.375,0.375 0 0 0 0.0782,-0.44259 c -0.0816,-0.14912 -0.16465,-0.30583 -0.24889,-0.47028 -0.21964,-0.42881 -0.44701,-0.91011 -0.6752,-1.44609 a 65,65 0 0 1 0.57601,-0.576 c 0.53597,0.22819 1.01727,0.45556 1.44609,0.6752 0.16444,0.0842 0.32116,0.16732 0.47027,0.24889 a 0.375,0.375 0 0 0 0.44259,-0.0782 62.75,62.75 0 0 1 0.0909,-0.0865 0.375,0.375 0 0 0 0.0999,-0.43822 c -0.0742,-0.15293 -0.14946,-0.31353 -0.22552,-0.48191 -0.19834,-0.43908 -0.40181,-0.93096 -0.60343,-1.47748 a 65,65 0 0 1 0.60357,-0.54705 c 0.52414,0.25422 0.9937,0.50492 1.41122,0.74534 0.16012,0.0922 0.31257,0.18288 0.45749,0.27167 a 0.375,0.375 0 0 0 0.4459,-0.0564 62.75,62.75 0 0 1 0.095,-0.082 0.375,0.375 0 0 0 0.12125,-0.43279 c -0.0666,-0.15639 -0.13389,-0.32049 -0.2016,-0.4924 -0.17655,-0.44828 -0.35565,-0.94955 -0.53021,-1.50531 a 65,65 0 0 1 0.62969,-0.51677 c 0.51103,0.27963 0.96773,0.55307 1.37295,0.81369 0.1554,0.0999 0.30321,0.198 0.44361,0.29379 a 0.375,0.375 0 0 0 0.44813,-0.0345 62.75,62.75 0 0 1 0.0989,-0.0772 0.375,0.375 0 0 0 0.14235,-0.42632 c -0.0588,-0.15946 -0.11801,-0.32667 -0.1772,-0.5017 -0.15434,-0.4564 -0.30863,-0.96585 -0.45571,-1.52951 a 65,65 0 0 1 0.65429,-0.48526 c 0.49669,0.30437 0.93942,0.5999 1.33137,0.88009 0.15031,0.10745 0.29313,0.21263 0.42866,0.3152 a 0.375,0.375 0 0 0 0.44928,-0.0125 62.75,62.75 0 0 1 0.10262,-0.0723 0.375,0.375 0 0 0 0.16309,-0.41882 c -0.0509,-0.16216 -0.10184,-0.33207 -0.15237,-0.50979 -0.13176,-0.46343 -0.26086,-0.97984 -0.38011,-1.55003 a 65,65 0 0 1 0.67731,-0.45257 c 0.48116,0.32837 0.90886,0.64526 1.28658,0.94435 0.14486,0.11469 0.28235,0.22676 0.41268,0.33585 a 0.375,0.375 0 0 0 0.44935,0.01 62.75,62.75 0 0 1 0.10604,-0.0671 0.375,0.375 0 0 0 0.18344,-0.41032 c -0.0429,-0.16446 -0.0854,-0.33666 -0.12716,-0.51665 -0.10887,-0.46934 -0.21247,-0.99146 -0.3036,-1.56682 a 65,65 0 0 1 0.6987,-0.41878 c 0.46447,0.35159 0.8761,0.68908 1.2387,1.00634 0.13905,0.12166 0.27087,0.24034 0.3957,0.3557 a 0.375,0.375 0 0 0 0.44834,0.0316 62.75,62.75 0 0 1 0.1092,-0.0619 0.375,0.375 0 0 0 0.20336,-0.40082 c -0.0348,-0.16637 -0.0688,-0.34045 -0.10166,-0.52227 -0.0857,-0.47411 -0.16357,-1.00068 -0.22636,-1.57982 a 65,65 0 0 1 0.71841,-0.384 c 0.44666,0.37395 0.84123,0.73124 1.18783,1.06591 0.13291,0.12834 0.25875,0.25334 0.37777,0.37468 a 0.375,0.375 0 0 0 0.44625,0.0536 62.75,62.75 0 0 1 0.1121,-0.0564 0.375,0.375 0 0 0 0.22278,-0.39036 c -0.0266,-0.16787 -0.052,-0.34341 -0.0759,-0.52663 -0.0623,-0.47774 -0.11427,-1.0075 -0.14856,-1.58902 a 65,65 0 0 1 0.73638,-0.34829 c 0.42777,0.39542 0.80434,0.77164 1.13409,1.12291 0.12646,0.13471 0.24602,0.26574 0.35894,0.39277 a 0.375,0.375 0 0 0 0.44308,0.0754 62.75,62.75 0 0 1 0.11474,-0.0509 0.375,0.375 0 0 0 0.24166,-0.37896 c -0.0183,-0.16897 -0.0351,-0.34555 -0.05,-0.52972 -0.0388,-0.48023 -0.0647,-1.0119 -0.0704,-1.5944 a 65,65 0 0 1 0.75259,-0.31173 c 0.40785,0.41593 0.7655,0.81017 1.07762,1.1772 0.1197,0.14075 0.23268,0.27749 0.33923,0.40991 a 0.375,0.375 0 0 0 0.43884,0.0971 62.75,62.75 0 0 1 0.1171,-0.0452 0.375,0.375 0 0 0 0.25997,-0.36664 c -0.01,-0.16967 -0.0181,-0.34686 -0.0239,-0.53154 -0.0152,-0.48155 -0.015,-1.01385 0.008,-1.59593 a 65,65 0 0 1 0.76698,-0.27443 c 0.38695,0.43544 0.72483,0.84676 1.01856,1.22866 0.11265,0.14645 0.21879,0.28857 0.31871,0.42606 a 0.375,0.375 0 0 0 0.43355,0.1185 62.75,62.75 0 0 1 0.11917,-0.0394 0.375,0.375 0 0 0 0.27765,-0.35345 c -0.002,-0.16995 -0.001,-0.34733 0.002,-0.53207 0.008,-0.48172 0.0348,-1.01337 0.0862,-1.59362 a 65,65 0 0 1 0.77952,-0.23647 c 0.36511,0.45391 0.6824,0.88131 0.95705,1.27716 0.10532,0.15181 0.20436,0.29896 0.29741,0.44119 a 0.375,0.375 0 0 0 0.42722,0.13962 62.75,62.75 0 0 1 0.12096,-0.0335 0.375,0.375 0 0 0 0.29465,-0.3394 c 0.007,-0.16983 0.016,-0.34696 0.0283,-0.53132 0.0321,-0.48073 0.0845,-1.01044 0.1643,-1.58747 a 65,65 0 0 1 0.79018,-0.19794 c 0.34241,0.47128 0.63834,0.91373 0.89323,1.32258 0.0978,0.1568 0.18945,0.30863 0.27541,0.45525 a 0.375,0.375 0 0 0 0.41985,0.16043 62.75,62.75 0 0 1 0.12246,-0.0275 0.375,0.375 0 0 0 0.31095,-0.32453 c 0.015,-0.1693 0.033,-0.34576 0.0543,-0.5293 0.0556,-0.47857 0.13396,-1.00507 0.242,-1.5775 a 65,65 0 0 1 0.79894,-0.15892 c 0.31887,0.48751 0.59274,0.94395 0.82726,1.36482 0.0899,0.1614 0.17407,0.31755 0.25274,0.46821 a 0.375,0.375 0 0 0 0.41147,0.18083 62.75,62.75 0 0 1 0.12366,-0.0215 0.375,0.375 0 0 0 0.3265,-0.30888 c 0.0233,-0.16835 0.0499,-0.34372 0.0802,-0.52599 0.079,-0.47527 0.18312,-0.99729 0.31911,-1.56373 a 65,65 0 0 1 0.80578,-0.11952 c 0.29456,0.50257 0.54571,0.9719 0.75929,1.40376 0.0819,0.16562 0.15828,0.32571 0.22946,0.48005 a 0.375,0.375 0 0 0 0.40211,0.20081 62.75,62.75 0 0 1 0.12456,-0.0154 0.375,0.375 0 0 0 0.34126,-0.29249 c 0.0316,-0.16701 0.0667,-0.34086 0.10595,-0.52141 0.10225,-0.47083 0.23183,-0.98711 0.39545,-1.54619 a 65,65 0 0 1 0.81067,-0.0798 c 0.26955,0.51642 0.49736,0.99751 0.6895,1.43933 0.0737,0.16944 0.14211,0.33309 0.20563,0.49073 a 0.375,0.375 0 0 0 0.39177,0.2203 62.75,62.75 0 0 1 0.12517,-0.009 0.375,0.375 0 0 0 0.3552,-0.27539 c 0.0397,-0.16526 0.0834,-0.33717 0.1314,-0.51559 0.12523,-0.46524 0.27998,-0.97454 0.47084,-1.52492 a 65,65 0 0 1 0.81362,-0.04 c 0.24388,0.52902 0.44781,1.0207 0.61804,1.47143 0.0653,0.17284 0.1256,0.33965 0.1813,0.50023 a 0.375,0.375 0 0 0 0.38049,0.23924 62.75,62.75 0 0 1 0.12547,-0.003 0.375,0.375 0 0 0 0.36829,-0.25763 c 0.0478,-0.16311 0.0998,-0.33268 0.15654,-0.50852 0.1479,-0.45853 0.32746,-0.95963 0.5451,-1.49998 a 65,65 0 0 1 0.81459,0 c 0.21764,0.54035 0.3972,1.04145 0.5451,1.49998 0.0567,0.17584 0.10878,0.34541 0.15654,0.50852 a 0.375,0.375 0 0 0 0.36829,0.25763 62.75,62.75 0 0 1 0.12547,0.003 0.375,0.375 0 0 0 0.38049,-0.23924 c 0.0557,-0.16058 0.11602,-0.32739 0.1813,-0.50023 0.17023,-0.45073 0.37416,-0.94241 0.61804,-1.47143 a 65,65 0 0 1 0.81362,0.04 c 0.19086,0.55038 0.34561,1.05968 0.47084,1.52492 0.048,0.17842 0.0917,0.35033 0.1314,0.51559 a 0.375,0.375 0 0 0 0.35521,0.27539 62.75,62.75 0 0 1 0.12516,0.009 0.375,0.375 0 0 0 0.39177,-0.2203 c 0.0635,-0.15764 0.13195,-0.32129 0.20563,-0.49073 0.19214,-0.44182 0.41995,-0.92291 0.6895,-1.43933 a 65,65 0 0 1 0.81067,0.0798 c 0.16363,0.55908 0.2932,1.07536 0.39546,1.54619 0.0392,0.18055 0.0744,0.3544 0.10594,0.52141 a 0.375,0.375 0 0 0 0.34126,0.29249 62.75,62.75 0 0 1 0.12456,0.0154 0.375,0.375 0 0 0 0.40211,-0.20081 c 0.0712,-0.15434 0.14755,-0.31443 0.22946,-0.48005 0.21359,-0.43186 0.46473,-0.90119 0.75929,-1.40376 a 65,65 0 0 1 0.80578,0.11952 c 0.13599,0.56644 0.24008,1.08846 0.31911,1.56373 0.0303,0.18227 0.0569,0.35764 0.0802,0.52599 a 0.375,0.375 0 0 0 0.3265,0.30888 62.75,62.75 0 0 1 0.12366,0.0215 0.375,0.375 0 0 0 0.41147,-0.18083 c 0.0787,-0.15066 0.16281,-0.30681 0.25274,-0.46821 0.23452,-0.42087 0.50839,-0.87731 0.82726,-1.36482 a 65,65 0 0 1 0.79894,0.15892 c 0.10804,0.57243 0.18639,1.09893 0.242,1.5775 0.0213,0.18354 0.0393,0.36 0.0543,0.5293 a 0.375,0.375 0 0 0 0.31095,0.32453 62.75,62.75 0 0 1 0.12246,0.0275 0.375,0.375 0 0 0 0.41985,-0.16043 c 0.086,-0.14662 0.17766,-0.29845 0.27541,-0.45525 0.25489,-0.40885 0.55082,-0.8513 0.89323,-1.32258 a 65,65 0 0 1 0.79019,0.19794 c 0.0798,0.57703 0.13223,1.10674 0.16429,1.58747 0.0123,0.18436 0.0216,0.36149 0.0283,0.53132 a 0.375,0.375 0 0 0 0.29465,0.3394 62.75,62.75 0 0 1 0.12096,0.0335 0.375,0.375 0 0 0 0.42722,-0.13962 c 0.0931,-0.14223 0.19209,-0.28938 0.29742,-0.44119 0.27464,-0.39585 0.59193,-0.82325 0.95704,-1.27716 a 65,65 0 0 1 0.77953,0.23647 c 0.0514,0.58025 0.0778,1.1119 0.0862,1.59362 0.003,0.18474 0.004,0.36212 0.002,0.53207 a 0.375,0.375 0 0 0 0.27765,0.35345 62.75,62.75 0 0 1 0.11917,0.0394 0.375,0.375 0 0 0 0.43355,-0.1185 c 0.0999,-0.13749 0.20606,-0.27961 0.31871,-0.42606 0.29374,-0.3819 0.63161,-0.79322 1.01856,-1.22866 a 65,65 0 0 1 0.76698,0.27443 c 0.0229,0.58208 0.0231,1.11438 0.008,1.59593 -0.006,0.18468 -0.014,0.36187 -0.0239,0.53154 a 0.375,0.375 0 0 0 0.25997,0.36664 62.75,62.75 0 0 1 0.1171,0.0452 0.375,0.375 0 0 0 0.43884,-0.0971 c 0.10655,-0.13242 0.21953,-0.26916 0.33923,-0.40991 0.31212,-0.36703 0.66977,-0.76127 1.07762,-1.1772 a 65,65 0 0 1 0.75259,0.31173 c -0.006,0.5825 -0.0316,1.11417 -0.0704,1.5944 -0.0149,0.18417 -0.0317,0.36075 -0.05,0.52972 a 0.375,0.375 0 0 0 0.24166,0.37896 62.75,62.75 0 0 1 0.11475,0.0509 0.375,0.375 0 0 0 0.44308,-0.0754 c 0.11291,-0.12703 0.23247,-0.25806 0.35893,-0.39277 0.32975,-0.35127 0.70632,-0.72749 1.13409,-1.12291 a 65,65 0 0 1 0.73638,0.34829 c -0.0343,0.58152 -0.0862,1.11128 -0.14856,1.58902 -0.0239,0.18322 -0.0493,0.35876 -0.0759,0.52663 a 0.375,0.375 0 0 0 0.22278,0.39036 62.75,62.75 0 0 1 0.11211,0.0564 0.375,0.375 0 0 0 0.44624,-0.0536 c 0.11902,-0.12134 0.24486,-0.24634 0.37778,-0.37468 0.34659,-0.33467 0.74116,-0.69196 1.18782,-1.06591 a 65,65 0 0 1 0.71841,0.384 c -0.0628,0.57914 -0.14065,1.10571 -0.22635,1.57982 -0.0329,0.18182 -0.0669,0.3559 -0.10166,0.52227 a 0.375,0.375 0 0 0 0.20335,0.40082 62.75,62.75 0 0 1 0.1092,0.0619 0.375,0.375 0 0 0 0.44834,-0.0316 c 0.12483,-0.11536 0.25665,-0.23404 0.3957,-0.3557 0.3626,-0.31726 0.77423,-0.65475 1.2387,-1.00634 a 65,65 0 0 1 0.6987,0.41878 c -0.0911,0.57536 -0.19473,1.09748 -0.3036,1.56682 -0.0417,0.17999 -0.0843,0.35219 -0.12716,0.51665 a 0.375,0.375 0 0 0 0.18344,0.41032 62.75,62.75 0 0 1 0.10604,0.0671 0.375,0.375 0 0 0 0.44935,-0.01 c 0.13033,-0.10909 0.26782,-0.22116 0.41268,-0.33585 0.37772,-0.29909 0.80542,-0.61598 1.28658,-0.94435 a 65,65 0 0 1 0.67731,0.45257 c -0.11925,0.57019 -0.24834,1.0866 -0.38011,1.55003 -0.0505,0.17772 -0.10146,0.34763 -0.15236,0.50979 a 0.375,0.375 0 0 0 0.16308,0.41882 62.75,62.75 0 0 1 0.10262,0.0723 0.375,0.375 0 0 0 0.44928,0.0125 c 0.13553,-0.10257 0.27835,-0.20775 0.42866,-0.3152 0.39195,-0.28019 0.83468,-0.57572 1.33137,-0.88009 a 65,65 0 0 1 0.65429,0.48526 c -0.14708,0.56366 -0.30136,1.07311 -0.45571,1.52951 -0.0592,0.17503 -0.11839,0.34224 -0.17719,0.5017 a 0.375,0.375 0 0 0 0.14234,0.42632 62.75,62.75 0 0 1 0.0989,0.0772 0.375,0.375 0 0 0 0.44813,0.0345 c 0.1404,-0.0958 0.28821,-0.19384 0.44361,-0.29379 0.40522,-0.26062 0.86192,-0.53406 1.37295,-0.81369 a 65,65 0 0 1 0.62969,0.51677 c -0.17456,0.55576 -0.35366,1.05703 -0.53021,1.50531 -0.0677,0.17191 -0.13504,0.33601 -0.2016,0.4924 a 0.375,0.375 0 0 0 0.12125,0.43279 62.75,62.75 0 0 1 0.095,0.082 0.375,0.375 0 0 0 0.4459,0.0564 c 0.14493,-0.0888 0.29737,-0.17947 0.45749,-0.27167 0.41752,-0.24042 0.88708,-0.49112 1.41122,-0.74534 a 65,65 0 0 1 0.60357,0.54705 c -0.20162,0.54652 -0.40509,1.0384 -0.60343,1.47748 -0.0761,0.16838 -0.15136,0.32898 -0.22552,0.48191 a 0.375,0.375 0 0 0 0.0999,0.43822 62.75,62.75 0 0 1 0.0909,0.0865 0.375,0.375 0 0 0 0.44259,0.0782 c 0.14912,-0.0816 0.30583,-0.16466 0.47027,-0.24889 0.42882,-0.21964 0.91012,-0.44701 1.4461,-0.6752 a 65,65 0 0 1 0.576,0.576 c -0.22819,0.53598 -0.45556,1.01728 -0.6752,1.44609 -0.0842,0.16445 -0.16732,0.32116 -0.24889,0.47028 a 0.375,0.375 0 0 0 0.0783,0.44259 62.75,62.75 0 0 1 0.0865,0.0909 0.375,0.375 0 0 0 0.43822,0.0999 c 0.15293,-0.0742 0.31353,-0.14946 0.48191,-0.22552 0.43908,-0.19834 0.93096,-0.40181 1.47748,-0.60343 a 65,65 0 0 1 0.54705,0.60357 c -0.25422,0.52414 -0.50492,0.9937 -0.74534,1.41122 -0.0922,0.16012 -0.18288,0.31256 -0.27167,0.45749 a 0.375,0.375 0 0 0 0.0564,0.4459 62.75,62.75 0 0 1 0.082,0.095 0.375,0.375 0 0 0 0.43279,0.12125 c 0.15639,-0.0666 0.32049,-0.13389 0.4924,-0.2016 0.44828,-0.17656 0.94955,-0.35565 1.50531,-0.53021 a 65,65 0 0 1 0.51677,0.62969 c -0.27963,0.51103 -0.55307,0.96773 -0.81369,1.37295 -0.0999,0.1554 -0.198,0.30321 -0.29379,0.44361 a 0.375,0.375 0 0 0 0.0345,0.44813 62.75,62.75 0 0 1 0.0772,0.0989 0.375,0.375 0 0 0 0.42632,0.14234 c 0.15946,-0.0588 0.32667,-0.118 0.5017,-0.17719 0.4564,-0.15435 0.96585,-0.30863 1.52951,-0.45571 a 65,65 0 0 1 0.48526,0.65429 c -0.30437,0.49669 -0.5999,0.93942 -0.88009,1.33137 -0.10745,0.15031 -0.21263,0.29313 -0.3152,0.42866 a 0.375,0.375 0 0 0 0.0125,0.44928 62.75,62.75 0 0 1 0.0723,0.10261 0.375,0.375 0 0 0 0.41882,0.16309 c 0.16216,-0.0509 0.33207,-0.10183 0.50979,-0.15236 0.46343,-0.13177 0.97984,-0.26086 1.55003,-0.38011 a 65,65 0 0 1 0.45257,0.67731 c -0.32837,0.48116 -0.64526,0.90885 -0.94435,1.28658 -0.11469,0.14486 -0.22676,0.28235 -0.33585,0.41268 a 0.375,0.375 0 0 0 -0.01,0.44935 62.75,62.75 0 0 1 0.0671,0.10604 0.375,0.375 0 0 0 0.41032,0.18344 c 0.16446,-0.0429 0.33666,-0.0854 0.51665,-0.12716 0.46934,-0.10887 0.99146,-0.21248 1.56682,-0.3036 a 65,65 0 0 1 0.41878,0.6987 c -0.35159,0.46447 -0.68908,0.8761 -1.00634,1.23869 -0.12166,0.13906 -0.24034,0.27088 -0.3557,0.39571 a 0.375,0.375 0 0 0 -0.0316,0.44834 62.75,62.75 0 0 1 0.0619,0.1092 0.375,0.375 0 0 0 0.40082,0.20335 c 0.16637,-0.0348 0.34045,-0.0688 0.52227,-0.10166 0.47411,-0.0857 1.00068,-0.16356 1.57982,-0.22635 a 65,65 0 0 1 0.384,0.71841 c -0.37395,0.44666 -0.73124,0.84123 -1.06591,1.18782 -0.12834,0.13292 -0.25334,0.25876 -0.37468,0.37778 a 0.375,0.375 0 0 0 -0.0536,0.44624 62.75,62.75 0 0 1 0.0564,0.11211 0.375,0.375 0 0 0 0.39036,0.22278 c 0.16787,-0.0266 0.34341,-0.052 0.52663,-0.0759 0.47774,-0.0624 1.0075,-0.11427 1.58902,-0.14856 a 65,65 0 0 1 0.34829,0.73638 c -0.39542,0.42777 -0.77164,0.80434 -1.12291,1.13409 -0.13471,0.12646 -0.26574,0.24602 -0.39277,0.35893 a 0.375,0.375 0 0 0 -0.0754,0.44308 62.75,62.75 0 0 1 0.0509,0.11474 0.375,0.375 0 0 0 0.37896,0.24167 c 0.16897,-0.0183 0.34555,-0.0351 0.52972,-0.05 0.48023,-0.0388 1.0119,-0.0647 1.5944,-0.0704 a 65,65 0 0 1 0.31173,0.75259 c -0.41593,0.40785 -0.81017,0.7655 -1.1772,1.07762 -0.14075,0.1197 -0.27749,0.23268 -0.40991,0.33923 a 0.375,0.375 0 0 0 -0.0971,0.43884 62.75,62.75 0 0 1 0.0452,0.1171 0.375,0.375 0 0 0 0.36664,0.25997 c 0.16967,-0.01 0.34686,-0.0181 0.53154,-0.0239 0.48155,-0.0152 1.01385,-0.015 1.59593,0.008 a 65,65 0 0 1 0.27443,0.76698 c -0.43544,0.38695 -0.84676,0.72482 -1.22866,1.01856 -0.14645,0.11264 -0.28857,0.21878 -0.42606,0.31871 a 0.375,0.375 0 0 0 -0.1185,0.43355 62.75,62.75 0 0 1 0.0394,0.11917 0.375,0.375 0 0 0 0.35345,0.27765 c 0.16995,-0.002 0.34733,-10e-4 0.53207,0.002 0.48172,0.008 1.01337,0.0348 1.59362,0.0862 a 65,65 0 0 1 0.23647,0.77952 c -0.45391,0.36512 -0.88131,0.68241 -1.27716,0.95705 -0.15181,0.10533 -0.29896,0.20437 -0.44119,0.29742 a 0.375,0.375 0 0 0 -0.13962,0.42722 62.75,62.75 0 0 1 0.0335,0.12096 0.375,0.375 0 0 0 0.3394,0.29465 c 0.16983,0.007 0.34696,0.016 0.53132,0.0283 0.48073,0.0321 1.01044,0.0845 1.58747,0.16429 a 65,65 0 0 1 0.19794,0.79019 c -0.47128,0.3424 -0.91373,0.63834 -1.32258,0.89323 -0.1568,0.0978 -0.30863,0.18944 -0.45525,0.27541 a 0.375,0.375 0 0 0 -0.16043,0.41985 62.75,62.75 0 0 1 0.0275,0.12246 0.375,0.375 0 0 0 0.32453,0.31095 c 0.1693,0.015 0.34576,0.033 0.52929,0.0543 0.47858,0.0556 1.00508,0.13396 1.57751,0.242 a 65,65 0 0 1 0.15892,0.79894 c -0.48751,0.31887 -0.94395,0.59274 -1.36482,0.82726 -0.1614,0.0899 -0.31755,0.17407 -0.46821,0.25274 a 0.375,0.375 0 0 0 -0.18083,0.41147 62.75,62.75 0 0 1 0.0215,0.12366 0.375,0.375 0 0 0 0.30888,0.3265 c 0.16835,0.0233 0.34372,0.0499 0.52599,0.0802 0.47527,0.079 0.99729,0.18312 1.56372,0.31911 a 65,65 0 0 1 0.11953,0.80578 c -0.50257,0.29456 -0.9719,0.5457 -1.40376,0.75929 -0.16562,0.0819 -0.32571,0.15828 -0.48005,0.22946 a 0.375,0.375 0 0 0 -0.20081,0.40211 62.75,62.75 0 0 1 0.0154,0.12456 0.375,0.375 0 0 0 0.29248,0.34126 c 0.16702,0.0316 0.34087,0.0667 0.52142,0.10594 0.47083,0.10225 0.98711,0.23183 1.54619,0.39546 a 65,65 0 0 1 0.0799,0.81067 c -0.51642,0.26955 -0.99751,0.49736 -1.43933,0.6895 -0.16944,0.0737 -0.33309,0.14211 -0.49073,0.20563 a 0.375,0.375 0 0 0 -0.2203,0.39177 62.75,62.75 0 0 1 0.009,0.12516 0.375,0.375 0 0 0 0.27539,0.35521 c 0.16526,0.0397 0.33717,0.0834 0.51559,0.1314 0.46524,0.12523 0.97454,0.27998 1.52492,0.47084 a 65,65 0 0 1 0.04,0.81361 c -0.52902,0.24389 -1.0207,0.44782 -1.47143,0.61805 -0.17285,0.0653 -0.33965,0.12559 -0.50023,0.1813 a 0.375,0.375 0 0 0 -0.23924,0.38049 62.75,62.75 0 0 1 0.003,0.12547 0.375,0.375 0 0 0 0.25763,0.36829 z"
       id="path11119" /></g></svg>
