<?xml version="1.0" encoding="UTF-8" standalone="no"?>
<!-- Created with Inkscape (http://www.inkscape.org/) -->

<svg
   width="500mm"
   height="500mm"
   viewBox="0 0 500 500"
   version="1.1"
   id="svg5"
   xml:space="preserve"
   sodipodi:docname="small-gear.svg"
   inkscape:version="1.3.2 (091e20e, 2023-11-25)"
   xmlns:inkscape="http://www.inkscape.org/namespaces/inkscape"
   xmlns:sodipodi="http://sodipodi.sourceforge.net/DTD/sodipodi-0.dtd"
   xmlns="http://www.w3.org/2000/svg"
   xmlns:svg="http://www.w3.org/2000/svg"><sodipodi:namedview
     id="namedview1"
     pagecolor="#ffffff"
     bordercolor="#000000"
     borderopacity="0.25"
     inkscape:showpageshadow="2"
     inkscape:pageopacity="0.0"
     inkscape:pagecheckerboard="0"
     inkscape:deskcolor="#d1d1d1"
     inkscape:document-units="mm"
     inkscape:zoom="12.327467"
     inkscape:cx="942.52942"
     inkscape:cy="675.48348"
     inkscape:window-width="1392"
     inkscape:window-height="1027"
     inkscape:window-x="0"
     inkscape:window-y="394"
     inkscape:window-maximized="0"
     inkscape:current-layer="svg5"
     showgrid="true"><inkscape:grid
       id="grid1"
       units="px"
       originx="0"
       originy="0"
       spacingx="0.26458333"
       spacingy="0.26458333"
       empcolor="#0099e5"
       empopacity="0.30196078"
       color="#0099e5"
       opacity="0.14901961"
       empspacing="5"
       dotted="false"
       gridanglex="30"
       gridanglez="30"
       visible="true" /></sodipodi:namedview><defs
     id="defs2" /><g
     id="layer2"
     style="display:inline"
     transform="translate(-0.15176571,0.78918168)"><path
       style="display:inline;fill:#000000;fill-opacity:0.322034;stroke:#000000;stroke-width:0.1"
       d="m 257.22603,178.47117 0.41739,0.0398 c 0.0437,0.007 0.17374,0.0343 0.38126,0.12764 0.24748,0.11306 0.59311,0.31834 0.98963,0.68733 a 9,9 0 0 1 -0.13605,0.65053 c -0.51113,0.17918 -0.91007,0.22879 -1.18211,0.23318 -0.22763,0.002 -0.35761,-0.0249 -0.40046,-0.0359 l -0.39836,-0.1308 a 0.375,0.375 0 0 0 -0.46688,0.21932 6.75,6.75 0 0 1 -0.16223,0.38112 0.375,0.375 0 0 0 0.16549,0.48855 l 0.37043,0.19645 c 0.0376,0.0232 0.14759,0.0979 0.30339,0.26382 0.18539,0.19913 0.42613,0.52109 0.65126,1.01372 a 9,9 0 0 1 -0.37462,0.54895 c -0.54082,-0.03 -0.92837,-0.13692 -1.18139,-0.23684 -0.21138,-0.0846 -0.32092,-0.15976 -0.35627,-0.18635 l -0.31795,-0.27334 a 0.375,0.375 0 0 0 -0.51527,0.024 6.75,6.75 0 0 1 -0.29575,0.29001 0.375,0.375 0 0 0 -0.034,0.51469 l 0.26705,0.32324 c 0.0259,0.0359 0.0989,0.14689 0.17934,0.35986 0.0951,0.25491 0.19429,0.64449 0.21374,1.18578 a 9,9 0 0 1 -0.55617,0.36379 c -0.48814,-0.23472 -0.80531,-0.48174 -1.00077,-0.67099 -0.16292,-0.15901 -0.23537,-0.27041 -0.25783,-0.30851 l -0.18915,-0.3742 a 0.375,0.375 0 0 0 -0.48521,-0.17502 6.75,6.75 0 0 1 -0.38423,0.15475 0.375,0.375 0 0 0 -0.22843,0.46249 l 0.12302,0.40084 c 0.0102,0.0431 0.0352,0.17356 0.028,0.40109 -0.01,0.27188 -0.0671,0.66979 -0.25641,1.17728 a 9,9 0 0 1 -0.65306,0.12328 c -0.36115,-0.40367 -0.55965,-0.75326 -0.66781,-1.00291 -0.0896,-0.20926 -0.11396,-0.33988 -0.12015,-0.38368 l -0.0315,-0.4181 a 0.375,0.375 0 0 0 -0.3813,-0.3474 6.75,6.75 0 0 1 -0.4142,-0.005 0.375,0.375 0 0 0 -0.38803,0.33986 l -0.0399,0.41739 c -0.007,0.0437 -0.0343,0.17374 -0.12764,0.38126 -0.11306,0.24748 -0.31834,0.59311 -0.68733,0.98963 a 9,9 0 0 1 -0.65053,-0.13605 c -0.17918,-0.51113 -0.22879,-0.91007 -0.23318,-1.18211 -0.002,-0.22763 0.0249,-0.35761 0.0358,-0.40046 l 0.1308,-0.39836 a 0.375,0.375 0 0 0 -0.21932,-0.46688 6.75,6.75 0 0 1 -0.38112,-0.16223 0.375,0.375 0 0 0 -0.48856,0.16549 l -0.19644,0.37043 c -0.0232,0.0376 -0.0979,0.14758 -0.26382,0.30339 -0.19912,0.18539 -0.52109,0.42613 -1.01372,0.65126 a 9,9 0 0 1 -0.54895,-0.37462 c 0.03,-0.54082 0.13692,-0.92837 0.23684,-1.1814 0.0846,-0.21137 0.15976,-0.32091 0.18635,-0.35626 l 0.27333,-0.31795 a 0.375,0.375 0 0 0 -0.024,-0.51528 6.75,6.75 0 0 1 -0.29001,-0.29575 0.375,0.375 0 0 0 -0.51469,-0.034 l -0.32324,0.26705 c -0.0359,0.0259 -0.14688,0.0989 -0.35985,0.17934 -0.25492,0.0951 -0.6445,0.19429 -1.18578,0.21374 a 9,9 0 0 1 -0.3638,-0.55617 c 0.23472,-0.48814 0.48173,-0.80531 0.671,-1.00077 0.159,-0.16292 0.2704,-0.23537 0.3085,-0.25783 l 0.37419,-0.18915 a 0.375,0.375 0 0 0 0.17504,-0.48521 6.75,6.75 0 0 1 -0.15476,-0.38423 0.375,0.375 0 0 0 -0.46248,-0.22844 l -0.40085,0.12303 c -0.0431,0.0102 -0.17355,0.0352 -0.40109,0.028 -0.27187,-0.01 -0.66979,-0.0671 -1.17728,-0.25641 a 9,9 0 0 1 -0.12326,-0.65306 c 0.40366,-0.36115 0.75324,-0.55965 1.00289,-0.66781 0.20926,-0.0896 0.33988,-0.11396 0.38368,-0.12014 l 0.4181,-0.0315 a 0.375,0.375 0 0 0 0.34741,-0.38129 6.75,6.75 0 0 1 0.005,-0.4142 0.375,0.375 0 0 0 -0.33985,-0.38803 l -0.41739,-0.0398 c -0.0437,-0.007 -0.17374,-0.0343 -0.38127,-0.12764 -0.24748,-0.11306 -0.59311,-0.31834 -0.98962,-0.68733 a 9,9 0 0 1 0.13604,-0.65053 c 0.51113,-0.17918 0.91008,-0.22879 1.18211,-0.23318 0.22763,-0.002 0.35764,0.0248 0.40047,0.0358 l 0.39835,0.1308 a 0.375,0.375 0 0 0 0.46688,-0.21932 6.75,6.75 0 0 1 0.16223,-0.38112 0.375,0.375 0 0 0 -0.16549,-0.48856 l -0.37043,-0.19644 c -0.0376,-0.0233 -0.14758,-0.0979 -0.30338,-0.26382 -0.18539,-0.19913 -0.42614,-0.52109 -0.65126,-1.01372 a 9,9 0 0 1 0.37462,-0.54895 c 0.54081,0.03 0.92836,0.13692 1.18138,0.23684 0.21138,0.0846 0.32092,0.15977 0.35627,0.18635 l 0.31795,0.27333 a 0.375,0.375 0 0 0 0.51527,-0.024 6.75,6.75 0 0 1 0.29576,-0.29001 0.375,0.375 0 0 0 0.034,-0.51469 l -0.26705,-0.32324 c -0.0259,-0.0359 -0.0989,-0.14688 -0.17934,-0.35985 -0.0951,-0.25492 -0.19429,-0.6445 -0.21374,-1.18578 a 9,9 0 0 1 0.55617,-0.3638 c 0.48814,0.23472 0.80532,0.48174 1.00077,0.67099 0.16292,0.15901 0.23537,0.27041 0.25784,0.30851 l 0.18914,0.3742 a 0.375,0.375 0 0 0 0.48522,0.17503 6.75,6.75 0 0 1 0.38422,-0.15475 0.375,0.375 0 0 0 0.22843,-0.46249 l -0.12302,-0.40084 c -0.0101,-0.0431 -0.0353,-0.17355 -0.028,-0.40109 0.01,-0.27187 0.0671,-0.66979 0.25641,-1.17728 a 9,9 0 0 1 0.65306,-0.12326 c 0.36115,0.40365 0.55965,0.75325 0.66781,1.00289 0.0896,0.20925 0.11396,0.33988 0.12014,0.38368 l 0.0315,0.4181 a 0.375,0.375 0 0 0 0.3813,0.3474 6.75,6.75 0 0 1 0.4142,0.005 0.375,0.375 0 0 0 0.38803,-0.33985 l 0.0399,-0.41739 c 0.007,-0.0437 0.0343,-0.17374 0.12764,-0.38127 0.11306,-0.24748 0.31835,-0.59312 0.68733,-0.98962 a 9,9 0 0 1 0.65053,0.13604 c 0.17918,0.51112 0.22879,0.91008 0.23318,1.18211 0.002,0.22763 -0.0249,0.35762 -0.0358,0.40047 l -0.1308,0.39835 a 0.375,0.375 0 0 0 0.21932,0.46688 6.75,6.75 0 0 1 0.38112,0.16223 0.375,0.375 0 0 0 0.48856,-0.16549 l 0.19644,-0.37043 c 0.0233,-0.0376 0.0979,-0.14759 0.26382,-0.30338 0.19912,-0.18539 0.52109,-0.42614 1.01372,-0.65126 a 9,9 0 0 1 0.54895,0.37462 c -0.03,0.54081 -0.13692,0.92836 -0.23684,1.18139 -0.0846,0.21137 -0.15977,0.32091 -0.18635,0.35626 l -0.27333,0.31794 a 0.375,0.375 0 0 0 0.024,0.51529 6.75,6.75 0 0 1 0.29001,0.29574 0.375,0.375 0 0 0 0.51469,0.034 l 0.32324,-0.26705 c 0.0359,-0.0259 0.14689,-0.0989 0.35986,-0.17934 0.25491,-0.0951 0.64449,-0.19429 1.18578,-0.21374 a 9,9 0 0 1 0.36379,0.55617 c -0.23472,0.48814 -0.48173,0.80532 -0.671,1.00077 -0.159,0.16292 -0.2704,0.23537 -0.3085,0.25784 l -0.37419,0.18914 a 0.375,0.375 0 0 0 -0.17503,0.48522 6.75,6.75 0 0 1 0.15474,0.38422 0.375,0.375 0 0 0 0.46249,0.22843 l 0.40084,-0.12302 c 0.0431,-0.0101 0.17355,-0.0352 0.40109,-0.028 0.27188,0.01 0.66979,0.0671 1.17728,0.25641 a 9,9 0 0 1 0.12327,0.65306 c -0.40366,0.36115 -0.75324,0.55965 -1.0029,0.66781 -0.20925,0.0896 -0.33988,0.11396 -0.38368,0.12015 l -0.4181,0.0315 a 0.375,0.375 0 0 0 -0.34741,0.3813 6.75,6.75 0 0 1 -0.005,0.4142 0.375,0.375 0 0 0 0.33986,0.38803 z"
       id="path14901" /></g></svg>
